<svg width="20" height="20" viewBox="0 0 20 20" fill="none" xmlns="http://www.w3.org/2000/svg">
<path d="M16.6667 5.79169V14.2084M16.6667 5.79169C16.5333 5.81669 16.3917 5.83335 16.25 5.83335C15.1 5.83335 14.1667 4.90002 14.1667 3.75002C14.1667 3.60835 14.1833 3.46669 14.2083 3.33335M16.6667 5.79169C17.6167 5.60002 18.3333 4.75835 18.3333 3.75002C18.3333 2.60002 17.4 1.66669 16.25 1.66669C15.2417 1.66669 14.4 2.38335 14.2083 3.33335M16.6667 14.2084C16.5333 14.1834 16.3917 14.1667 16.25 14.1667C15.1 14.1667 14.1667 15.1 14.1667 16.25C14.1667 16.3917 14.1833 16.5334 14.2083 16.6667M16.6667 14.2084C17.6167 14.4 18.3333 15.2417 18.3333 16.25C18.3333 17.4 17.4 18.3334 16.25 18.3334C15.2417 18.3334 14.4 17.6167 14.2083 16.6667M14.2083 16.6667H5.79166M5.79166 16.6667C5.81666 16.5334 5.83332 16.3917 5.83332 16.25C5.83332 15.1 4.89999 14.1667 3.74999 14.1667C3.60832 14.1667 3.46666 14.1834 3.33332 14.2084M5.79166 16.6667C5.59999 17.6167 4.75832 18.3334 3.74999 18.3334C2.59999 18.3334 1.66666 17.4 1.66666 16.25C1.66666 15.2417 2.38332 14.4 3.33332 14.2084M3.33332 14.2084V5.79169M3.33332 5.79169C3.46666 5.81669 3.60832 5.83335 3.74999 5.83335C4.89999 5.83335 5.83332 4.90002 5.83332 3.75002C5.83332 3.60835 5.81666 3.46669 5.79166 3.33335M3.33332 5.79169C2.38332 5.60002 1.66666 4.75835 1.66666 3.75002C1.66666 2.60002 2.59999 1.66669 3.74999 1.66669C4.75832 1.66669 5.59999 2.38335 5.79166 3.33335M5.79166 3.33335H14.2083" stroke="white" stroke-width="2" stroke-linecap="round" stroke-linejoin="round"/>
</svg>
