<svg width="38" height="38" viewBox="0 0 38 38" fill="none" xmlns="http://www.w3.org/2000/svg">
<path d="M27.7083 10.292H27.7241M11.0833 3.16699H26.9166C31.2889 3.16699 34.8333 6.7114 34.8333 11.0837V26.917C34.8333 31.2892 31.2889 34.8337 26.9166 34.8337H11.0833C6.71104 34.8337 3.16663 31.2892 3.16663 26.917V11.0837C3.16663 6.7114 6.71104 3.16699 11.0833 3.16699ZM25.3333 18.0028C25.5287 19.3205 25.3036 20.6663 24.6901 21.8488C24.0765 23.0312 23.1058 23.9901 21.9159 24.589C20.726 25.1879 19.3775 25.3964 18.0623 25.1847C16.7471 24.9731 15.5321 24.3521 14.5901 23.4102C13.6482 22.4682 13.0272 21.2532 12.8156 19.938C12.6039 18.6228 12.8124 17.2743 13.4113 16.0844C14.0102 14.8945 14.9691 13.9237 16.1515 13.3102C17.3339 12.6967 18.6797 12.4716 19.9975 12.667C21.3416 12.8663 22.586 13.4926 23.5468 14.4535C24.5076 15.4143 25.134 16.6587 25.3333 18.0028Z" stroke="#F3F3F3" stroke-width="4" stroke-linecap="round" stroke-linejoin="round"/>
</svg>
