<svg width="38" height="38" viewBox="0 0 38 38" fill="none" xmlns="http://www.w3.org/2000/svg">
<path d="M25.3333 12.667C27.8528 12.667 30.2692 13.6679 32.0508 15.4495C33.8324 17.2311 34.8333 19.6474 34.8333 22.167V33.2503H28.5V22.167C28.5 21.3271 28.1663 20.5217 27.5725 19.9278C26.9786 19.334 26.1731 19.0003 25.3333 19.0003C24.4934 19.0003 23.688 19.334 23.0941 19.9278C22.5003 20.5217 22.1666 21.3271 22.1666 22.167V33.2503H15.8333V22.167C15.8333 19.6474 16.8342 17.2311 18.6158 15.4495C20.3974 13.6679 22.8137 12.667 25.3333 12.667Z" stroke="#F5F5F5" stroke-width="4" stroke-linecap="round" stroke-linejoin="round"/>
<path d="M9.49996 14.2503H3.16663V33.2503H9.49996V14.2503Z" stroke="#F5F5F5" stroke-width="4" stroke-linecap="round" stroke-linejoin="round"/>
<path d="M6.33329 9.50033C8.08219 9.50033 9.49996 8.08256 9.49996 6.33366C9.49996 4.58476 8.08219 3.16699 6.33329 3.16699C4.58439 3.16699 3.16663 4.58476 3.16663 6.33366C3.16663 8.08256 4.58439 9.50033 6.33329 9.50033Z" stroke="#F5F5F5" stroke-width="4" stroke-linecap="round" stroke-linejoin="round"/>
</svg>
