<svg width="604" height="1507" viewBox="0 0 604 1507" fill="none" xmlns="http://www.w3.org/2000/svg">
<path d="M323.557 1009.05L322.756 1451.58C314.539 1447.79 304.733 1442.81 294.716 1437.5C273.392 1426.18 252.023 1413.8 244.439 1409.01C157.911 1353.67 85.0074 1265.31 46.3983 1161.18L46.3976 1161.17C15.0565 1076.68 15.1954 1009.81 15.3918 915.303C15.4077 907.657 15.424 899.83 15.424 891.798V662.271C15.424 654.339 15.3168 646.291 15.2099 638.261C15.0365 625.238 14.8637 612.261 15.1495 599.895C31.0913 599.395 48.2883 599.678 65.3836 599.959C75.586 600.127 85.7522 600.295 95.5938 600.295H95.7775H95.9612H96.1449H96.3287H96.5124H96.6961H96.8798H97.0636H97.2473H97.4311H97.6148H97.7986H97.9824H98.1661H98.3499H98.5337H98.7175H98.9013H99.0851H99.2689H99.4528H99.6366H99.8204H100.004H100.188H100.372H100.556H100.74H100.924H101.107H101.291H101.475H101.659H101.843H102.027H102.211H102.395H102.579H102.763H102.946H103.13H103.314H103.498H103.682H103.866H104.05H104.234H104.418H104.602H104.786H104.97H105.154H105.338H105.522H105.706H105.89H106.074H106.258H106.442H106.626H106.81H106.995H107.179H107.363H107.547H107.731H107.915H108.099H108.283H108.467H108.651H108.835H109.02H109.204H109.388H109.572H109.756H109.94H110.124H110.309H110.493H110.677H110.861H111.045H111.229H111.414H111.598H111.782H111.966H112.151H112.335H112.519H112.703H112.887H113.072H113.256H113.44H113.624H113.809H113.993H114.177H114.362H114.546H114.73H114.914H115.099H115.283H115.467H115.652H115.836H116.02H116.205H116.389H116.573H116.758H116.942H117.126H117.311H117.495H117.679H117.864H118.048H118.232H118.417H118.601H118.786H118.97H119.154H119.339H119.523H119.708H119.892H120.077H120.261H120.445H120.63H120.814H120.999H121.183H121.368H121.552H121.737H121.921H122.106H122.29H122.475H122.659H122.844H123.028H123.213H123.397H123.582H123.766H123.951H124.135H124.32H124.504H124.689H124.873H125.058H125.243H125.427H125.612H125.796H125.981H126.165H126.35H126.535H126.719H126.904H127.088H127.273H127.458H127.642H127.827H128.011H128.196H128.381H128.565H128.75H128.935H129.119H129.304H129.489H129.673H129.858H130.043H130.227H130.412H130.597H130.781H130.966H131.151H131.335H131.52H131.705H131.889H132.074H132.259H132.444H132.628H132.813H132.998H133.183H133.367H133.552H133.737H133.922H134.106H134.291H134.476H134.661H134.845H135.03H135.215H135.4H135.584H135.769H135.954H136.139H136.324H136.508H136.693H136.878H137.063H137.248H137.433H137.617H137.802H137.987H138.172H138.357H138.542H138.726H138.911H139.096H139.281H139.466H139.651H139.836H140.02H140.205H140.39H140.575H140.76H140.945H141.13H141.315H141.499H141.684H141.869H142.054H142.239H142.424H142.609H142.794H142.979H143.164H143.349H143.534H143.719H143.903H144.088H144.273H144.458H144.643H144.828H145.013H145.198H145.383H145.568H145.753H145.938H146.123H146.308H146.493H146.678H146.863H147.048H147.233H147.418H147.603H147.788H147.973H148.158H148.343H148.528H148.713H148.898H149.083H149.268H149.453H149.638H149.823H150.008H150.193H150.378H150.563H150.748H150.933H151.118H151.303H151.489H151.674H151.859H152.044H152.229H152.414H152.599H152.784H152.969H153.154H153.339H153.524H153.709H153.894H154.08H154.265H154.45H154.635H154.82H155.005H155.19H155.375H155.56H155.746H155.931H156.116H156.301H156.486H156.671H156.856H157.041H157.227H157.412H157.597H157.782H157.967H158.152H158.337H158.523H158.708H158.893H159.078H159.263H159.448H159.633H159.819H160.004H160.189H160.374H160.559H160.744H160.93H161.115H161.3H161.485H161.67H161.856H162.041H162.226H162.411H162.596H162.781H162.967H163.152H163.337H163.522H163.707H163.893H164.078H164.263H164.448H164.634H164.819H165.004H165.189H165.374H165.56H165.745H165.93H166.115H166.3H166.486H166.671H166.856H167.041H167.227H167.412H167.597H167.782H167.968H168.153H168.338H168.523H168.709H168.894H169.079H169.264H169.45H169.635H169.82H170.005H170.191H170.376H170.561H170.746H170.932H171.117H171.302H171.487H171.673H171.858H172.043H172.229H172.414H172.599H172.784H172.97H173.155H173.34H173.525H173.711H173.896H174.081H174.267H174.452H174.637H174.822H175.008H175.193H175.378H175.564H175.749H175.934H176.12H176.305H176.49H176.675H176.861H177.046H177.231H177.417H177.602H177.787H177.973H178.158H178.343H178.528H178.714H178.899H179.084H179.27H179.455H179.64H179.826H180.011H180.196H180.382H180.567H180.752H180.938H181.123H181.308H181.493H181.679H181.864H182.049H182.235H182.42H182.605H182.791H182.976H183.161H183.347H183.532H183.717H183.903H184.088H184.273H184.459H184.644H184.829H185.015H185.2H185.385H185.571H185.756H185.941H186.127H186.312H186.497H186.683H186.868H187.053H187.239H187.424H187.609H187.795H187.98H188.165H188.351H188.536H188.721H188.907H189.092H189.277H189.462H189.648H189.833H190.018H190.204C192.589 600.295 194.948 600.29 197.28 600.285C221.628 600.236 243.106 600.192 262.126 605.659C281.583 611.252 298.406 622.693 310.741 648.571L310.744 648.578C321.075 670.223 323.837 693.051 323.837 722.731C323.837 728.666 323.895 743.887 323.973 764.387C324.087 794.138 324.244 835.009 324.327 874.755C324.397 908.372 324.414 941.223 324.309 966.007C324.257 978.408 324.174 988.737 324.053 996.118C323.992 999.82 323.923 1002.7 323.848 1004.69C323.825 1005.28 323.804 1005.75 323.784 1006.12L323.561 1006.87L323.557 1009.05ZM323.706 1007.18C323.704 1007.18 323.712 1007.07 323.735 1006.89C323.719 1007.09 323.708 1007.18 323.706 1007.18Z" stroke="white" stroke-width="30"/>
<path d="M761.568 293.762C695.278 297.191 629.58 309.707 568.619 353.626C560.633 359.251 551.538 366.496 544.602 373.432L544.493 373.54L544.387 373.651C541.625 376.528 538.92 379.145 535.948 382.022C535.558 382.398 535.164 382.78 534.764 383.167C533.64 384.256 532.485 385.379 531.301 386.547V386.27V385.951V385.632V385.313V384.994V384.676V384.357V384.038V383.719V383.4V383.081V382.763V382.444V382.125V381.806V381.487V381.168V380.849V380.53V380.212V379.893V379.574V379.255V378.936V378.617V378.298V377.979V377.66V377.341V377.022V376.703V376.384V376.065V375.747V375.428V375.109V374.79V374.471V374.152V373.833V373.514V373.195V372.876V372.557V372.238V371.919V371.6V371.281V370.962V370.643V370.323V370.004V369.685V369.366V369.047V368.728V368.409V368.09V367.771V367.452V367.133V366.814V366.495V366.176V365.856V365.537V365.218V364.899V364.58V364.261V363.942V363.623V363.304V362.984V362.665V362.346V362.027V361.708V361.389V361.069V360.75V360.431V360.112V359.793V359.474V359.154V358.835V358.516V358.197V357.878V357.558V357.239V356.92V356.601V356.282V355.962V355.643V355.324V355.005V354.685V354.366V354.047V353.728V353.408V353.089V352.77V352.451V352.131V351.812V351.493V351.174V350.854V350.535V350.216V349.896V349.577V349.258V348.938V348.619V348.3V347.98V347.661V347.342V347.023V346.703V346.384V346.065V345.745V345.426V345.106V344.787V344.468V344.148V343.829V343.51V343.19V342.871V342.552V342.232V341.913V341.593V341.274V340.955V340.635V340.316V339.996V339.677V339.358V339.038V338.719V338.399V338.08V337.761V337.441V337.122V336.802V336.483V336.163V335.844V335.524V335.205V334.886V334.566V334.247V333.927V333.608V333.288V332.969V332.649V332.33V332.01V331.691V331.371V331.052V330.732V330.413V330.093V329.774V329.454V329.135V328.815V328.496V328.176V327.857V327.537V327.218V326.898V326.579V326.259V325.94V325.62V325.301V324.981V324.662V324.342V324.022V323.703V323.383V323.064V322.744V322.425V322.105V321.786V321.466V321.146V320.827V320.507V320.188V319.868V319.548V319.229V318.909V318.59V318.27V317.951V317.631V317.311V316.992V316.672V316.353V316.033V315.713V315.394V315.074V314.754V314.435V314.115V313.796V313.476V313.156V312.837V312.517V312.197V311.878V311.558V311.238V310.919V310.599V310.28V309.96V309.64V309.321V309.001V308.681V308.362V308.042V307.722V307.403V307.083V306.763V306.444V306.124V305.804V305.485V305.165V304.845V304.526V304.206V303.886V303.566V303.247V302.927V302.607V302.288V301.968V301.648V301.329V301.009V300.689V300.369V300.05V299.73V299.41V299.091V298.771V298.451V298.131V297.812V297.492V297.172V296.853V296.533V296.213V295.893V295.574V295.254V294.934V294.614V294.295V293.975V293.655V293.336V293.016V292.696V292.376V292.057V291.737V291.417V291.097V290.778V290.458V290.138V289.818V289.499V289.179V288.859V288.539V288.219V287.9V287.58V287.26V286.94V286.621V286.301V285.981V285.661V285.342V285.022V284.702V284.382V284.062V283.743V283.423V283.103V282.783V282.464V282.144V281.824V281.504V281.184V280.865V280.545V280.225V279.905V279.585V279.266V278.946V278.626V278.306V277.987V277.667V277.347V277.027V276.707V276.388V276.068V275.748V275.428V275.108V274.789V274.469V274.149V273.829V273.509V273.189V272.87V272.55V272.23V271.91V271.59V271.271V270.951V270.631V270.311V269.991V269.672V269.352V269.032V268.712V268.392V268.073V267.753V267.433V267.113V266.793V266.473V266.154V265.834V265.514V265.194V264.874V264.555V264.235V263.915V263.595V263.275V262.955V262.636V262.316V261.996V261.676V261.356V261.037V260.717V260.397V260.077V259.757V259.437V259.118V258.798V258.478V258.158V257.838V257.519C531.301 253.432 531.353 245.248 531.422 234.588C531.53 217.77 531.677 194.786 531.72 171.999C531.755 153.559 531.721 135.422 531.535 121.324C531.448 114.666 531.326 108.824 531.158 104.24C531.228 104.19 531.297 104.141 531.365 104.093C534.039 102.205 537.153 99.7398 540.336 97.2194C541.161 96.5662 541.99 95.9093 542.818 95.2578C551.229 88.6386 562.39 80.1883 578.113 71.5392C609.445 54.3032 660.16 35.595 743.763 31.4968L743.776 31.4962L743.789 31.4955C776.872 29.8166 806.956 29.3823 836.501 28.9558C888.74 28.2017 939.298 27.4718 1001.78 19.9303L1001.86 19.9207L1001.94 19.9102C1006.55 19.3036 1011.53 18.4474 1016.2 17.6451C1016.99 17.509 1017.77 17.3745 1018.54 17.243L1018.04 281.972C1012.44 282.726 1005.6 283.678 998.62 284.648C982.163 286.938 965.731 289.221 961.233 289.595L961.162 289.601L961.091 289.608C928.008 292.684 894.841 292.903 861.432 292.745C856.669 292.723 851.896 292.693 847.117 292.662C818.592 292.482 789.84 292.3 761.568 293.762Z" stroke="white" stroke-width="30"/>
<path d="M501.3 384.994V385.264C500.592 384.537 499.868 383.801 499.129 383.056C483.962 367.78 462.266 348.919 434.332 334.126C375.238 302.594 314.326 294.685 253.693 292.908C231.202 292.249 208.406 292.434 185.767 292.617C178.033 292.68 170.317 292.742 162.638 292.771C132.258 292.884 102.063 292.477 71.8177 289.61L71.7327 289.602L71.6476 289.595C67.2355 289.227 51.5247 287.012 35.509 284.755L34.7777 284.651C27.8402 283.673 21.0207 282.714 15.4241 281.956V17.1911C16.7096 17.3958 18.0399 17.6124 19.3979 17.8334C23.9294 18.5712 28.7682 19.3589 33.2725 19.922C44.3987 21.3127 56.1705 22.752 68.0227 23.6245C91.8394 25.8886 116.427 27.2987 140.643 28.1442C163.938 29.1232 187.534 29.3049 210.858 29.4844C216.142 29.5251 221.411 29.5656 226.66 29.6153C255.257 29.8861 283.405 30.4268 310.966 32.655C366.077 37.1105 417.795 48.2521 463.943 76.6003L463.95 76.6043L463.956 76.6082C467.934 79.0465 477.523 85.3629 486.68 91.8003C491.24 95.0059 495.533 98.1295 498.873 100.73C499.686 101.362 500.414 101.942 501.056 102.467C501.088 103.126 501.12 103.85 501.151 104.641C501.32 108.947 501.447 114.772 501.538 121.717C501.72 135.584 501.755 153.539 501.72 171.941C501.678 194.296 501.53 217.584 501.421 234.603C501.353 245.339 501.3 253.58 501.3 257.518V257.838V258.158V258.477V258.797V259.117V259.437V259.757V260.076V260.396V260.716V261.036V261.356V261.676V261.995V262.315V262.635V262.955V263.275V263.594V263.914V264.234V264.554V264.874V265.194V265.513V265.833V266.153V266.473V266.793V267.112V267.432V267.752V268.072V268.392V268.712V269.031V269.351V269.671V269.991V270.311V270.63V270.95V271.27V271.59V271.91V272.229V272.549V272.869V273.189V273.509V273.828V274.148V274.468V274.788V275.108V275.427V275.747V276.067V276.387V276.707V277.026V277.346V277.666V277.986V278.306V278.625V278.945V279.265V279.585V279.905V280.224V280.544V280.864V281.184V281.504V281.823V282.143V282.463V282.783V283.102V283.422V283.742V284.062V284.382V284.701V285.021V285.341V285.661V285.98V286.3V286.62V286.94V287.26V287.579V287.899V288.219V288.539V288.858V289.178V289.498V289.818V290.137V290.457V290.777V291.097V291.416V291.736V292.056V292.376V292.695V293.015V293.335V293.655V293.974V294.294V294.614V294.934V295.253V295.573V295.893V296.212V296.532V296.852V297.172V297.491V297.811V298.131V298.451V298.77V299.09V299.41V299.729V300.049V300.369V300.689V301.008V301.328V301.648V301.967V302.287V302.607V302.926V303.246V303.566V303.885V304.205V304.525V304.845V305.164V305.484V305.804V306.123V306.443V306.763V307.082V307.402V307.722V308.041V308.361V308.681V309V309.32V309.64V309.959V310.279V310.599V310.918V311.238V311.557V311.877V312.197V312.516V312.836V313.156V313.475V313.795V314.115V314.434V314.754V315.073V315.393V315.713V316.032V316.352V316.671V316.991V317.311V317.63V317.95V318.27V318.589V318.909V319.228V319.548V319.867V320.187V320.507V320.826V321.146V321.465V321.785V322.104V322.424V322.744V323.063V323.383V323.702V324.022V324.341V324.661V324.98V325.3V325.62V325.939V326.259V326.578V326.898V327.217V327.537V327.856V328.176V328.495V328.815V329.134V329.454V329.773V330.093V330.412V330.732V331.051V331.371V331.69V332.01V332.329V332.649V332.968V333.288V333.607V333.927V334.246V334.565V334.885V335.204V335.524V335.843V336.163V336.482V336.802V337.121V337.44V337.76V338.079V338.399V338.718V339.038V339.357V339.676V339.996V340.315V340.635V340.954V341.273V341.593V341.912V342.232V342.551V342.87V343.19V343.509V343.828V344.148V344.467V344.786V345.106V345.425V345.745V346.064V346.383V346.703V347.022V347.341V347.661V347.98V348.299V348.618V348.938V349.257V349.576V349.896V350.215V350.534V350.854V351.173V351.492V351.811V352.131V352.45V352.769V353.089V353.408V353.727V354.046V354.366V354.685V355.004V355.323V355.642V355.962V356.281V356.6V356.919V357.239V357.558V357.877V358.196V358.515V358.835V359.154V359.473V359.792V360.111V360.43V360.75V361.069V361.388V361.707V362.026V362.345V362.665V362.984V363.303V363.622V363.941V364.26V364.579V364.898V365.218V365.537V365.856V366.175V366.494V366.813V367.132V367.451V367.77V368.089V368.408V368.728V369.047V369.366V369.685V370.004V370.323V370.642V370.961V371.28V371.599V371.918V372.237V372.556V372.875V373.194V373.513V373.832V374.151V374.47V374.789V375.108V375.427V375.746V376.065V376.384V376.703V377.022V377.341V377.66V377.979V378.297V378.616V378.935V379.254V379.573V379.892V380.211V380.53V380.849V381.168V381.486V381.805V382.124V382.443V382.762V383.081V383.4V383.718V384.037V384.356V384.675V384.994Z" stroke="white" stroke-width="30"/>
<path d="M352.735 1463.31L353.406 1092.7C356.883 1098.26 360.513 1103.37 364.225 1108.14L364.272 1108.2L364.319 1108.26C450.651 1216.97 611.133 1202.97 680.549 1092.44L680.992 1463.36L652.822 1472.23C639.164 1476.05 625.128 1479.55 610.929 1482.22L610.884 1482.23L610.838 1482.24C523.223 1499.33 436.441 1492.33 352.735 1463.31Z" stroke="white" stroke-width="30"/>
</svg>
