<svg width="512" height="217" viewBox="0 0 512 217" fill="none" xmlns="http://www.w3.org/2000/svg">
<path fill-rule="evenodd" clip-rule="evenodd" d="M336.973 46.119C330.967 46.1989 328.405 51.4742 328.325 58.5079C328.245 65.3818 327.844 81.4475 328.645 87.7619C329.206 92.0781 331.928 94.4759 334.731 95.9946C339.215 98.3125 346.583 98.3924 351.628 95.7548C353.87 94.6358 358.194 92.2379 358.354 87.3623C358.595 78.4102 357.954 63.8632 358.034 56.7495C358.114 51.5541 355.471 45.7992 348.264 46.039C344.901 46.119 341.217 46.039 336.973 46.119ZM327.444 29.254C314.311 29.174 304.621 40.444 304.461 55.7104C304.381 65.0621 304.621 77.0514 304.461 87.2823C304.221 102.868 315.352 113.739 327.924 113.819C335.532 113.899 350.587 113.499 356.993 114.059C367.804 114.858 381.818 101.67 381.657 89.8401C381.417 77.2113 381.417 64.023 381.577 55.071C381.818 43.3214 374.931 30.4529 359.155 29.0142C351.548 28.2948 337.934 29.3339 327.444 29.254ZM105.785 81.0479C113.712 81.5275 131.17 81.3676 136.455 81.2877C149.428 81.0479 153.191 77.531 156.234 71.2166C160.639 62.1847 160.559 45 152.07 36.2877C148.227 32.3712 144.703 28.8543 135.094 28.4547C125.965 28.135 114.513 28.135 106.105 28.7744C87.6867 30.1332 81.4405 42.9218 82.2413 61.785C82.3214 70.0177 83.0421 79.2894 82.882 87.2823C82.5616 97.0337 84.4035 102.309 89.7688 107.344C95.3743 112.7 100.579 114.138 107.146 114.059C124.443 113.819 136.855 113.819 148.146 113.819C158.397 113.819 159.037 107.185 158.877 104.387C158.557 97.1136 154.873 95.515 150.949 95.2752C141.1 94.7157 129.088 95.8347 117.796 95.6749C109.789 95.5949 106.025 92.0781 105.785 81.0479ZM106.265 61.785C114.193 62.0248 126.525 62.0248 132.611 61.8649C134.933 61.785 135.414 60.2664 135.494 59.3872C135.894 55.3108 135.974 50.515 133.252 48.1172C131.89 46.9183 129.568 45.7992 126.685 45.7193C122.361 45.6394 114.834 45.7193 112.111 45.9591C107.707 46.2788 106.345 48.4369 106.345 51.3943C106.345 54.0319 106.185 58.1882 106.265 61.785ZM227.905 0H233.191C238.236 0 242.4 4.1563 242.4 9.19182V65.7815L267.625 34.3694C270.748 30.4529 274.351 29.174 278.676 28.6945C282.279 28.3748 287.084 28.6945 290.367 28.8543C293.01 28.9343 295.172 30.1332 292.209 33.8099L265.222 67.6198L294.611 108.384C296.453 110.941 296.533 114.298 289.887 113.899C287.805 113.739 282.519 113.899 276.193 113.739C271.949 113.579 269.146 110.622 267.144 107.664L242.4 72.0958V104.307C242.4 109.343 238.236 113.419 233.191 113.419H227.905C222.86 113.419 218.696 109.343 218.696 104.307V9.19182C218.696 4.1563 222.86 0 227.905 0ZM185.303 0H190.669C195.714 0 199.798 4.1563 199.798 9.19182V104.307C199.798 109.343 195.714 113.419 190.669 113.419H185.303C180.258 113.419 176.094 109.343 176.094 104.307V9.19182C176.094 4.1563 180.258 0 185.303 0ZM89.8488 9.19182V13.4281C89.8488 17.4245 86.5656 20.6217 82.5616 20.6217H57.5769V104.307C57.5769 109.343 53.4929 113.419 48.4479 113.419H43.0826C38.0376 113.419 33.8735 109.343 33.8735 104.307V20.6217H7.28721C3.28325 20.6217 0 17.4245 0 13.4281V9.19182C0 5.19538 3.28325 1.99822 7.28721 1.99822H82.5616C86.5656 1.99822 89.8488 5.19538 89.8488 9.19182ZM400.316 39.9644C400.316 61.9449 400.236 84.0052 400.236 105.986C400.236 111.021 404.4 115.178 409.445 115.178H414.73C419.775 115.178 423.939 111.021 423.939 105.986C423.939 87.2823 423.939 68.7388 424.099 50.0355C424.179 47.3978 428.984 46.4387 431.547 46.4387C440.035 46.5186 443.158 50.9946 443.158 57.1491C443.158 73.3747 443.318 89.6802 443.318 105.986C443.318 111.021 447.402 115.178 452.447 115.178H457.813C462.858 115.178 467.022 111.021 467.022 105.986C467.022 88.2415 466.782 70.5772 466.701 52.833C466.701 47.238 471.666 45.3197 476.551 46.4387C485.52 48.4369 485.2 57.2291 485.2 64.103V105.986C485.2 111.021 489.284 115.178 494.329 115.178H499.694C504.739 115.178 508.903 111.021 508.903 105.986C508.903 89.1207 509.384 71.8561 508.903 55.071C508.182 28.3748 485.2 26.1367 469.584 28.8543C462.377 30.0533 457.572 35.3286 455.811 33.0106C452.447 28.7744 448.764 28.135 436.512 28.6945C427.543 28.6145 422.578 33.0106 422.017 31.3321C421.777 30.5328 420.416 29.0941 418.494 28.8543C415.531 28.5346 411.687 28.2948 407.443 28.8543C403.599 29.3339 400.316 32.8508 400.316 39.9644Z" fill="white"/>
<path fill-rule="evenodd" clip-rule="evenodd" d="M396.326 138.866H400.089C402.251 138.866 404.092 140.697 404.092 142.847V144.678C404.092 146.907 402.251 148.658 400.089 148.658H396.326C394.084 148.658 392.243 146.907 392.243 144.678V142.847C392.243 140.697 394.084 138.866 396.326 138.866ZM396.646 153.196H399.048C401.931 153.196 404.333 155.584 404.333 158.45V193.955C404.333 196.821 401.931 199.209 399.048 199.209H396.646C393.764 199.209 391.362 196.821 391.362 193.955V158.45C391.362 155.584 393.764 153.196 396.646 153.196ZM64.7767 190.134C62.1345 190.134 54.6885 190.373 52.927 190.214C48.7637 189.736 46.762 187.666 46.3617 181.536C45.8813 174.69 46.3617 162.59 46.6019 145.713C46.682 139.901 44.28 139.026 40.0366 138.946C36.0333 138.866 33.231 139.185 33.3912 145.792C33.5513 162.112 33.7114 175.566 33.7915 184.243C33.7915 194.911 38.4353 198.015 46.8421 199.289C55.6493 200.563 63.4156 199.846 69.2603 199.448C79.5887 198.732 83.8322 192.284 83.672 181.298C83.5119 172.939 83.3518 154.947 83.5119 143.245C83.672 139.503 80.8698 139.026 77.8273 139.026C74.3845 138.946 71.5822 138.787 71.342 143.484C70.9417 154.151 71.262 173.735 71.1819 179.228C71.342 184.163 71.5021 190.214 64.7767 190.134ZM208.734 199.369C218.662 199.13 218.342 194.751 223.546 180.103C225.467 174.77 229.23 164.023 230.752 159.644C231.712 156.699 229.871 154.231 226.828 153.992C222.905 153.673 220.663 155.027 219.142 158.45C215.459 166.252 211.296 179.148 207.933 187.666C203.85 177.158 199.846 166.65 195.843 156.062C194.322 152.559 190.639 152.798 187.917 153.594C185.195 154.31 183.833 156.38 184.474 158.848C186.235 165.535 191.76 181.059 195.523 190.612C197.525 195.866 199.126 199.528 208.734 199.369ZM298.246 161.077C298.246 176.282 298.407 187.427 298.327 193.318C298.327 197.299 300.488 199.209 304.171 199.369C307.374 199.528 310.577 197.856 310.416 194.831C310.897 188.064 310.576 178.352 310.576 165.694C310.576 163.386 314.34 163.465 315.781 163.306C320.665 162.908 323.387 163.863 327.63 163.067C329.472 162.669 331.233 158.768 330.032 156.141C329.232 154.47 326.91 153.355 322.666 153.355C316.581 153.116 314.099 154.629 311.137 156.141C309.616 157.017 309.776 155.584 309.135 154.47C308.255 152.877 305.693 153.435 303.851 153.514C299.768 153.673 298.246 155.186 298.246 161.077ZM362.779 180.9C363.9 180.979 365.581 181.616 365.661 185.835C365.741 188.542 364.62 189.02 361.338 189.099C357.254 189.179 349.008 188.622 343.403 189.418C339.88 189.975 338.519 191.726 338.519 194.513C338.519 197.697 340.921 198.732 344.124 199.289C350.769 200.404 359.897 199.448 363.74 199.448C371.746 199.369 378.472 194.513 377.991 184.641C377.591 175.407 373.828 172.541 366.222 171.745C361.978 171.347 358.215 172.063 354.933 171.585C350.929 170.948 349.648 169.356 349.969 165.774C350.209 162.988 352.21 163.226 353.571 163.147C359.816 162.749 366.942 163.545 371.426 163.306C374.789 163.067 375.669 160.042 375.669 158.211C375.589 155.664 375.589 153.514 369.825 153.435C366.862 153.435 356.694 153.196 352.931 153.275C343.563 153.355 338.039 157.256 337.398 165.854C337.238 167.764 337.318 169.436 337.398 170.948C337.879 176.043 342.042 180.024 351.089 180.581C356.053 180.9 358.375 180.183 362.779 180.9ZM426.751 185.437C426.751 189.497 427.391 191.806 429.313 194.115C434.357 200.404 444.285 200.722 453.092 199.05C455.574 198.573 455.895 195.548 455.895 193.159C455.895 191.886 455.975 189.656 453.092 190.134C451.491 190.373 448.929 190.771 445.406 190.612C441.563 190.453 439.241 189.099 439.241 184.323V163.386H449.97C451.971 163.386 453.573 161.873 453.573 159.883V157.415C453.573 155.504 451.971 153.912 449.97 153.912H439.241L439.161 142.369C439.161 139.662 437.4 138.548 433.156 138.548C431.635 138.548 427.071 138.389 427.071 140.936L426.991 153.912H419.385C417.383 153.912 415.862 155.504 415.862 157.415V159.883C415.862 161.873 417.383 163.386 419.385 163.386H426.911L426.751 185.437ZM498.89 199.448C499.05 204.464 497.849 207.011 494.566 207.17C489.042 207.489 481.836 207.17 477.352 207.17C475.43 207.17 472.388 208.524 472.468 212.026C472.548 215.131 474.71 216.883 477.192 216.962C482.877 217.121 489.362 216.723 495.126 216.803C504.654 216.803 510.739 212.265 510.899 202.871C511.14 191.487 511.86 163.147 511.54 157.495C511.3 153.992 507.937 153.594 505.535 153.514C501.852 153.514 499.21 153.833 499.13 157.017C498.97 162.271 499.29 174.212 499.29 190.134C494.406 190.134 490.483 190.453 487.76 189.736C484.238 188.781 482.236 185.278 482.236 180.581C482.316 175.884 482.556 168.56 482.316 158.45C482.236 155.027 481.275 153.594 476.391 153.435C473.029 153.275 470.627 154.231 470.386 157.176C470.066 160.918 470.066 178.113 470.386 187.029C470.627 195.388 477.832 199.608 485.359 199.608C490.643 199.608 494.966 199.448 498.89 199.448ZM253.81 181.616C257.974 181.855 267.101 181.775 269.903 181.696C276.709 181.616 278.711 179.785 280.312 176.441C282.634 171.745 282.634 162.749 278.15 158.132C276.068 156.062 274.227 154.231 269.183 154.072C264.379 153.912 258.374 153.912 253.97 154.231C244.283 154.947 241 161.634 241.4 171.506C241.4 175.805 241.881 180.661 241.721 184.88C241.56 189.975 242.521 192.761 245.404 195.388C248.366 198.175 251.008 198.971 254.451 198.891C263.578 198.732 270.144 198.732 276.068 198.732C281.433 198.732 281.753 195.309 281.753 193.796C281.593 189.975 279.591 189.179 277.59 189.099C272.385 188.781 266.06 189.338 260.135 189.258C255.892 189.179 253.89 187.348 253.81 181.616ZM254.051 171.506C258.214 171.585 264.699 171.665 267.902 171.585C269.103 171.506 269.343 170.71 269.423 170.232C269.663 168.162 269.663 165.615 268.222 164.341C267.501 163.704 266.3 163.147 264.779 163.067C262.457 163.067 258.534 163.147 257.093 163.226C254.771 163.386 254.131 164.5 254.051 166.092C254.051 167.446 254.051 169.675 254.051 171.506ZM101.206 160.361C101.206 171.745 101.126 183.129 101.126 194.433C101.126 197.06 103.768 199.209 106.891 199.209H110.174C113.296 199.209 113.536 197.06 113.536 194.433C113.536 184.8 113.536 175.247 113.616 165.615C113.616 163.067 119.461 163.226 120.982 163.226C126.267 163.226 129.469 164.261 129.469 169.675C129.549 178.034 129.549 186.472 129.549 194.911C129.549 197.458 130.51 199.209 133.633 199.209H136.995C140.118 199.209 142.68 197.06 142.68 194.433C142.68 185.278 142.68 177.556 142.44 168.401C142.28 162.112 139.477 154.947 130.67 153.514C127.708 152.957 118.821 153.435 115.058 154.868C114.017 155.266 112.976 155.345 111.935 154.629C110.334 153.435 108.332 153.196 105.69 153.514C103.288 153.753 101.206 156.778 101.206 160.361ZM163.337 138.866H167.1C169.342 138.866 171.183 140.697 171.183 142.847V144.678C171.183 146.907 169.342 148.658 167.1 148.658H163.337C161.175 148.658 159.334 146.907 159.334 144.678V142.847C159.334 140.697 161.175 138.866 163.337 138.866ZM163.737 153.196H166.139C169.021 153.196 171.343 155.584 171.343 158.45V193.955C171.343 196.821 169.021 199.209 166.139 199.209H163.737C160.855 199.209 158.453 196.821 158.453 193.955V158.45C158.453 155.584 160.855 153.196 163.737 153.196Z" fill="white"/>
</svg>
