<svg width="670" height="1260" viewBox="0 0 670 1260" fill="none" xmlns="http://www.w3.org/2000/svg">
<path fill-rule="evenodd" clip-rule="evenodd" d="M32.5365 593.689C76.187 593.689 110.884 628.503 110.884 671.178C110.884 713.854 76.187 748.668 32.5365 748.668C-9.99482 748.668 -44.6914 713.854 -44.6914 671.178C-44.6914 628.503 -9.99482 593.689 32.5365 593.689ZM32.5365 637.487C51.5636 637.487 67.2331 652.087 67.2331 671.178C67.2331 690.27 51.5636 705.993 32.5365 705.993C14.6286 705.993 -1.04086 690.27 -1.04086 671.178C-1.04086 652.087 14.6286 637.487 32.5365 637.487Z" fill="white"/>
<path d="M212.014 509.735C210.893 510.856 210.893 511.977 210.893 513.097C210.893 514.218 212.014 515.339 213.136 516.46C213.136 517.58 213.136 517.58 214.258 517.58C215.38 518.701 217.623 519.822 219.867 520.943C220.988 520.943 220.988 520.943 222.11 519.822C223.232 518.701 223.232 516.46 223.232 515.339C222.11 513.097 220.988 510.856 218.745 508.615C218.745 508.615 218.745 507.494 217.623 507.494C215.38 504.132 214.258 500.769 215.38 497.407C215.38 494.045 216.501 490.683 219.867 488.441C219.867 488.441 219.867 488.441 220.988 488.441C224.353 485.079 227.719 485.079 231.084 485.079C234.449 485.079 237.814 487.321 241.18 489.562C243.423 491.804 245.667 495.166 246.788 498.528C246.788 501.89 246.788 505.252 245.667 508.615L237.814 504.132C237.814 503.011 237.814 501.89 237.814 500.769C236.693 499.649 235.571 497.407 234.449 496.287C233.327 495.166 231.084 494.045 229.962 494.045C228.84 494.045 227.719 494.045 225.475 495.166V496.287C224.353 496.287 224.353 497.407 224.353 498.528C224.353 499.649 224.353 500.769 225.475 501.89C225.475 501.89 225.475 503.011 226.597 503.011C228.84 505.252 231.084 508.615 232.206 513.097C233.327 516.46 233.327 522.063 228.84 526.546C225.475 529.908 222.11 529.908 217.623 529.908C214.258 528.788 210.893 526.546 207.527 524.305L206.406 523.184C204.162 520.943 201.919 517.58 201.919 514.218C201.919 510.856 201.919 507.494 204.162 504.132L212.014 509.735ZM-173.865 498.528C-173.865 499.649 -171.622 500.769 -170.5 501.89C-168.257 505.252 -164.892 508.615 -160.405 511.977C-154.796 516.46 -148.065 519.822 -143.578 515.339C-140.213 510.856 -140.213 507.494 -141.335 503.011C-144.7 498.528 -150.309 491.804 -160.405 483.959L-153.674 476.113C-143.578 485.079 -136.848 492.924 -133.483 499.649C-130.117 507.494 -131.239 514.218 -136.848 520.943C-145.822 532.15 -157.039 526.546 -167.135 518.701C-170.5 515.339 -173.865 511.977 -177.231 508.615C-178.352 507.494 -179.474 506.373 -180.596 505.252L-173.865 498.528ZM-123.387 499.649L-145.822 467.148L-139.091 461.544L-104.317 469.389L-117.778 449.216L-109.926 443.612L-90.8565 473.872L-88.613 478.355L-95.3434 481.717L-130.117 473.872L-115.535 494.045L-123.387 499.649ZM-93.1 434.647L-76.2738 467.148L-84.126 471.631L-100.952 439.129L-93.1 434.647ZM-77.3955 423.439L-56.0824 445.854L-53.8389 416.715L-44.865 417.836L-51.5954 461.544L-84.126 430.164L-77.3955 423.439ZM-4.48221 412.232C-6.72569 413.353 -7.84744 413.353 -10.0909 413.353C-16.8214 414.473 -24.6736 415.594 -24.6736 418.956C-24.6736 421.198 -24.6736 422.319 -24.6736 424.56L-6.72569 421.198L-4.48221 430.164L-22.4301 433.526C-22.4301 434.647 -21.3084 436.888 -21.3084 438.009L-20.1866 440.25C-20.1866 440.25 -17.9431 440.25 -15.6996 440.25C-11.2127 439.129 -5.60396 438.009 -1.11697 436.888L1.12651 445.854C-3.36046 446.975 -8.96918 448.095 -14.5779 449.216C-21.3084 450.337 -26.9171 449.216 -29.1606 443.612V441.371C-32.5258 432.405 -34.7693 427.922 -33.6475 417.836C-33.6475 407.749 -21.3084 405.508 -11.2127 404.387C-10.0909 404.387 -7.84744 404.387 -6.72569 403.266L-4.48221 412.232ZM47.118 444.733C44.8745 440.25 42.631 436.888 40.3875 434.647C38.144 432.405 37.0223 431.284 35.9006 430.164C32.5353 430.164 29.1701 430.164 25.8049 430.164H24.6831V442.492H15.7092V406.628V402.145H19.0744C21.3179 401.025 22.4396 401.025 24.6831 401.025C30.2918 399.904 37.0223 401.025 41.5093 402.145C47.118 403.266 51.605 407.749 52.7267 413.353C52.7267 414.473 52.7267 414.473 52.7267 414.473V415.594C53.8484 420.077 51.605 423.439 48.2397 425.681C47.118 425.681 47.118 426.801 45.9962 426.801C45.9962 427.922 47.118 427.922 47.118 429.043C50.4832 431.284 52.7267 435.767 54.9702 440.25L47.118 444.733ZM24.6831 409.991V420.077H25.8049C29.1701 421.198 32.5353 421.198 37.0223 420.077C39.2658 420.077 40.3875 420.077 42.631 418.956C43.7528 417.836 43.7528 416.715 43.7528 415.594C43.7528 413.353 41.5093 411.111 39.2658 411.111C35.9006 409.991 30.2918 409.991 25.8049 409.991H24.6831ZM72.9181 436.888C74.0398 438.009 75.1616 439.129 76.2833 440.25C77.4051 440.25 79.6486 441.371 80.7703 441.371C83.0138 441.371 85.2573 441.371 86.379 440.25C87.5008 440.25 88.6225 439.129 88.6225 438.009V436.888C88.6225 435.767 88.6225 434.647 87.5008 433.526C87.5008 433.526 86.379 432.405 84.1355 432.405C84.1355 432.405 84.1355 432.405 83.0138 432.405C78.5268 431.284 75.1616 430.164 71.7964 427.922C69.5529 424.56 68.4311 421.198 68.4311 416.715C68.4311 413.353 70.6746 409.991 74.0398 407.749C77.4051 405.508 80.7703 404.387 85.2573 405.508C88.6225 405.508 91.9877 407.749 94.2312 408.87C96.4747 411.111 97.5965 413.353 98.7182 415.594L90.866 420.077C89.7443 418.956 88.6225 416.715 87.5008 415.594C87.5008 415.594 85.2573 414.473 84.1355 414.473C83.0138 414.473 80.7703 414.473 79.6486 415.594C78.5268 416.715 77.4051 416.715 77.4051 417.836C77.4051 418.956 77.4051 420.077 78.5268 421.198C79.6486 422.319 81.8921 422.319 84.1355 423.439C85.2573 423.439 85.2573 423.439 86.379 423.439C89.7443 424.56 91.9877 425.681 94.2312 427.922C96.4747 430.164 98.7182 433.526 97.5965 438.009C97.5965 438.009 97.5965 439.129 97.5965 440.25C96.4747 443.612 94.2312 446.975 90.866 448.095C87.5008 450.337 84.1355 451.457 79.6486 450.337C77.4051 450.337 74.0398 449.216 71.7964 446.975C68.4311 445.854 66.1876 443.612 65.0659 440.25L72.9181 436.888ZM123.397 417.836L111.057 453.699L103.205 451.457L114.423 415.594L123.397 417.836ZM131.249 460.423L144.71 434.647L135.736 430.164L139.101 421.198L168.266 436.888L163.779 444.733L153.684 439.129L139.101 464.906L131.249 460.423ZM177.24 463.785C180.605 466.027 183.971 468.268 187.336 470.51C189.579 472.751 191.823 474.993 195.188 477.234C198.553 471.631 200.797 466.027 195.188 461.544C188.458 457.061 182.849 459.303 177.24 463.785ZM181.727 477.234C178.362 474.993 174.997 473.872 171.632 471.631C171.632 472.751 170.51 472.751 169.388 473.872C168.266 476.113 167.145 478.355 166.023 479.476L158.171 473.872C159.292 472.751 161.536 470.51 162.658 468.268C171.632 455.94 181.727 441.371 200.797 454.82C212.014 462.665 208.649 472.751 201.919 482.838C199.675 486.2 196.31 489.562 194.066 494.045C191.823 495.166 190.701 496.287 190.701 497.407L182.849 491.804C183.971 490.683 185.092 488.441 186.214 487.321C187.336 486.2 188.458 486.2 188.458 485.079C186.214 481.717 183.971 479.476 181.727 477.234Z" fill="white"/>
<path d="M-1.99518 921.156C1.35839 921.156 4.71197 921.156 8.06555 921.156C12.537 921.156 15.8906 922.274 20.362 922.274C20.362 914.451 18.1263 907.745 10.3013 907.745C5.82983 907.745 2.47625 909.98 0.240537 914.451C-0.877322 916.686 -1.99518 918.921 -1.99518 921.156ZM6.94769 930.098C3.59411 930.098 -0.877322 930.098 -5.34876 930.098C-5.34876 931.215 -5.34876 932.333 -5.34876 933.45C-5.34876 935.686 -5.34876 937.921 -5.34876 939.039H-14.2916C-14.2916 936.803 -14.2916 934.568 -14.2916 933.45C-13.1738 924.509 -10.9381 916.686 -7.58447 909.98C-3.11304 903.274 2.47625 897.686 10.3013 897.686C10.3013 897.686 10.3013 897.686 11.4191 897.686C31.5406 899.921 30.4227 920.039 29.3049 936.803C28.187 939.039 28.187 941.274 28.187 942.392H19.2441C19.2441 939.039 19.2441 937.921 19.2441 935.686C19.2441 934.568 20.362 933.45 20.362 932.333C15.8906 931.215 11.4191 931.215 6.94769 930.098Z" fill="white"/>
<path d="M50.5748 902.081V913.258L70.4556 896.493L75.978 903.199L61.6197 916.611L79.2915 933.375L72.6646 940.081L54.9927 922.199L51.6793 925.552L52.7838 940.081L42.8434 941.199L41.7389 903.199L50.5748 902.081Z" fill="white"/>
<path d="M95.141 931.065C92.879 922.144 90.6169 913.223 90.6169 905.417C90.6169 896.496 95.141 889.805 105.32 886.459C113.237 883.114 120.023 886.459 124.547 894.265C129.071 899.841 131.333 909.877 134.726 921.029L125.678 923.259C124.547 919.914 123.416 916.568 123.416 914.338L101.927 921.029C101.927 923.259 103.058 926.605 104.189 928.835L95.141 931.065ZM99.665 906.532C99.665 907.647 99.665 909.877 99.665 912.108L120.023 905.417C118.892 903.186 117.761 900.956 116.63 898.726C114.368 895.38 110.975 894.265 107.582 895.38C101.927 896.496 99.665 900.956 99.665 906.532Z" fill="white"/>
<path d="M155.853 911.992L136.95 882.84L134.726 878.355L138.062 876.112C140.286 874.991 142.51 873.87 144.733 871.628C149.181 869.385 153.629 866.022 158.076 863.779C161.412 861.537 166.972 861.537 170.307 862.658C172.531 862.658 174.755 863.779 175.867 866.022C178.091 868.264 179.203 870.506 179.203 873.87C179.203 876.112 178.091 879.476 175.867 882.84C176.979 882.84 178.091 882.84 180.314 882.84C184.762 883.961 189.21 885.082 192.545 888.446L188.098 895.173C184.762 894.052 181.426 892.931 178.091 891.81C175.867 891.81 172.531 891.81 169.195 892.931C166.972 895.173 164.748 896.294 162.524 898.537C161.412 898.537 160.3 899.658 159.188 900.779L163.636 907.507L155.853 911.992ZM146.957 881.719L153.629 892.931C154.741 891.81 155.853 891.81 156.964 890.688C159.188 889.567 161.412 887.325 162.524 885.082C168.083 879.476 169.195 876.112 169.195 873.87C169.195 872.749 169.195 872.749 169.195 871.628H168.083C165.86 870.506 163.636 870.506 162.524 871.628C158.076 873.87 153.629 877.234 150.293 879.476C149.181 880.597 148.069 880.597 146.957 881.719Z" fill="white"/>
<path d="M212.795 870.266C209.467 865.812 206.139 861.357 202.811 856.902C199.483 854.674 197.264 851.333 193.936 849.106L186.171 855.788L180.624 849.106L203.92 827.945L209.467 834.628L200.592 842.424C203.92 844.651 206.139 847.992 209.467 851.333C212.795 855.788 217.233 860.243 220.561 865.812L212.795 870.266Z" fill="white"/>
<path d="M242.037 843.444C240.92 842.328 238.686 841.212 237.569 840.097C226.4 831.172 212.997 818.9 224.167 802.165C233.102 789.893 243.154 792.125 253.206 798.818C256.557 801.05 258.791 803.281 262.141 805.512C264.375 807.743 266.609 809.975 268.843 811.09L263.258 818.9C261.025 817.784 258.791 815.553 256.557 813.322H255.44L242.037 832.287H243.154C245.388 834.519 246.505 835.634 248.739 836.75L242.037 843.444ZM231.985 807.743C227.517 814.437 230.868 820.015 235.336 825.594L248.739 807.743C248.739 806.628 247.622 806.628 247.622 806.628C242.037 803.281 236.453 801.05 231.985 807.743Z" fill="white"/>
<path d="M163.585 406.706C165.826 404.465 164.706 403.345 165.826 401.104C168.067 398.863 187.113 378.696 188.234 377.576C197.197 366.372 203.919 358.529 211.762 348.445C218.484 338.362 225.206 328.278 233.049 314.833C242.012 298.027 250.975 283.462 255.457 265.535C259.938 248.729 261.059 229.683 253.216 205.034C248.735 188.228 238.651 175.903 224.086 166.94C209.521 156.856 190.474 151.254 168.067 146.773C140.057 141.171 119.89 134.448 101.964 128.846C95.2416 125.485 88.5193 123.244 81.797 121.004C70.5931 117.642 61.63 113.161 52.6669 106.438C44.8242 100.836 39.2223 94.1138 32.5 87.3914C26.8981 94.1138 21.2961 100.836 13.4534 106.438C4.4903 113.161 -4.47278 117.642 -15.6766 121.004C-22.399 123.244 -29.1213 125.485 -35.8436 128.846C-53.7698 134.448 -73.9368 141.171 -101.946 146.773C-124.354 151.254 -143.401 156.856 -157.966 166.94C-172.531 175.903 -182.614 188.228 -187.096 205.034C-194.939 229.683 -193.818 248.729 -189.337 265.535C-184.855 283.462 -175.892 298.027 -166.929 314.833C-159.086 328.278 -152.364 338.362 -145.641 348.445C-137.799 358.529 -131.076 366.372 -122.113 377.576C-118.752 382.057 -114.271 385.419 -109.789 389.9C-108.669 392.141 -112.03 395.502 -109.789 396.623L-108.669 398.863L-112.03 406.706L-113.15 404.465C-119.873 398.863 -126.595 392.141 -132.197 385.419C-141.16 375.335 -149.003 365.251 -155.725 356.288C-162.447 346.204 -170.29 335 -178.133 321.556C-188.216 304.75 -197.179 287.944 -202.781 268.897C-207.263 249.85 -208.383 227.442 -199.42 201.673C-193.818 181.505 -181.494 166.94 -164.688 155.736C-149.003 145.652 -128.836 138.93 -104.187 133.328C-77.2979 128.846 -58.2513 122.124 -40.3251 116.522C-33.6028 113.161 -26.8805 110.92 -20.1582 108.679C-10.0747 106.438 -2.23199 101.957 5.61072 96.3547C14.5738 89.6322 21.2961 81.7894 28.0184 72.8262L32.5 64.9834L38.1019 72.8262C44.8242 81.7894 51.5466 89.6322 60.5096 96.3547C68.3524 101.957 76.1951 106.438 86.2785 108.679C93.0009 110.92 99.7231 113.161 106.445 116.522C124.372 122.124 143.418 128.846 170.308 133.328C193.836 138.93 215.123 145.652 230.808 155.736C247.614 166.94 259.938 181.505 265.54 201.673C274.503 227.442 273.383 249.85 268.902 268.897C263.3 287.944 254.337 304.75 244.253 321.556C236.41 335 228.568 346.204 221.845 356.288C215.123 365.251 207.28 375.335 198.317 385.419C197.197 387.659 194.956 389.9 192.715 392.141C192.715 392.141 188.234 396.623 183.752 401.104C178.15 407.827 183.752 392.141 182.632 393.261L163.585 406.706ZM-182.614 461.606C-183.735 459.365 -193.818 458.245 -193.818 457.124C-197.179 448.161 -201.661 440.318 -205.022 433.596C-211.744 422.392 -218.467 412.308 -225.189 402.225C-231.911 393.261 -238.634 383.178 -248.717 370.853C-261.041 356.288 -273.366 342.843 -287.931 332.76C-302.496 322.676 -320.422 315.954 -345.07 314.833C-362.996 313.713 -377.562 319.315 -391.006 329.398C-405.571 339.482 -417.895 356.288 -429.099 375.335C-443.664 399.984 -457.109 416.79 -468.313 431.355C-472.794 436.957 -477.276 442.559 -481.757 448.161C-488.48 457.124 -497.443 464.967 -506.406 470.569C-514.249 475.051 -522.091 479.532 -531.054 482.894C-525.453 490.736 -522.091 498.579 -519.851 507.543C-516.489 517.626 -514.249 528.83 -515.369 540.034C-515.369 546.757 -515.369 554.599 -515.369 561.322C-515.369 580.369 -515.369 601.656 -519.851 629.666C-524.332 652.075 -524.332 672.242 -519.851 689.048C-516.489 705.854 -507.526 719.299 -494.082 729.382C-473.915 745.068 -455.989 750.67 -438.062 751.79C-420.136 754.031 -402.21 750.67 -384.284 747.309C-368.598 743.948 -356.274 741.707 -345.07 738.346C-333.866 734.984 -322.663 731.623 -310.338 727.141C-302.496 723.78 -293.533 719.299 -284.569 715.938C-277.847 712.576 -268.884 708.095 -262.162 705.854L-259.921 712.576L-274.486 720.419C-278.967 722.66 -267.764 722.66 -273.366 724.901C-275.606 726.021 -277.847 727.141 -278.967 727.141C-287.931 731.623 -296.894 736.105 -305.857 739.466C-319.301 743.948 -330.505 747.309 -341.709 750.67C-352.913 754.031 -365.237 757.392 -382.043 759.633C-401.09 764.115 -420.136 767.476 -439.183 765.235C-459.35 764.115 -479.517 756.272 -501.924 739.466C-518.73 727.141 -527.693 711.456 -533.295 692.409C-537.777 673.362 -536.656 650.954 -533.295 627.426C-528.814 600.536 -528.814 579.248 -528.814 561.322C-528.814 553.479 -528.814 546.757 -527.693 538.914C-527.693 529.951 -528.814 519.867 -532.175 510.904C-535.536 500.82 -540.018 491.857 -545.62 482.894L-551.221 475.051L-542.258 472.81C-532.175 469.449 -522.091 464.967 -513.128 459.365C-505.286 454.884 -498.563 448.161 -491.841 440.318C-488.48 434.716 -483.998 429.114 -478.396 422.392C-467.192 408.947 -454.868 392.141 -440.303 368.613C-427.979 347.325 -414.534 330.519 -398.849 319.315C-383.163 306.99 -365.237 300.268 -345.07 301.388C-317.061 302.509 -296.894 310.352 -280.088 321.556C-264.402 332.76 -252.078 347.325 -238.634 363.011C-228.55 375.335 -220.707 385.419 -213.985 395.502C-207.263 405.586 -200.54 415.669 -193.818 426.874C-189.337 434.716 -185.975 443.68 -182.614 451.522C-181.494 453.763 -180.373 456.004 -179.253 457.124L-182.614 461.606ZM-146.762 431.355L-155.725 426.874L-196.059 371.974C-211.744 348.445 -228.55 326.037 -245.356 302.509L-246.476 300.268C-258.801 286.823 -274.486 276.74 -293.533 270.017C-313.699 263.295 -336.107 259.933 -358.515 261.054C-380.923 262.174 -401.09 268.897 -419.016 280.101C-440.303 293.546 -458.229 311.472 -470.554 330.519C-481.757 347.325 -489.6 360.77 -496.323 373.094C-506.406 388.78 -514.249 403.345 -527.693 421.272C-537.777 433.596 -542.258 444.8 -554.583 451.522C-562.425 457.124 -571.388 460.486 -581.472 463.847C-575.87 471.69 -571.388 480.653 -568.027 489.616C-563.546 503.061 -566.907 515.385 -566.907 531.071C-568.027 553.479 -570.268 570.285 -573.629 589.332C-575.87 602.777 -578.111 617.342 -580.351 637.509C-582.592 659.917 -580.351 685.687 -572.509 709.215C-565.786 729.382 -554.583 748.429 -538.897 762.994C-522.091 777.56 -501.924 791.004 -481.757 797.727C-463.831 804.449 -444.785 807.81 -426.859 804.449C-424.618 804.449 -421.257 803.329 -419.016 802.208C-391.006 792.125 -364.117 785.402 -337.228 777.56C-313.699 769.717 -289.051 762.994 -265.523 756.272C-261.041 754.031 -258.801 758.513 -254.319 757.392L-249.837 758.513L-248.717 764.115C-252.078 765.235 -254.319 766.356 -257.68 767.476C-282.329 776.439 -306.977 783.162 -331.626 789.884L-334.987 791.004H-336.107C-362.996 798.847 -388.765 807.81 -414.534 814.533C-430.22 822.376 -442.544 836.941 -453.748 853.747C-467.192 876.155 -477.276 900.804 -481.757 924.332C-486.239 945.62 -483.998 966.908 -478.396 987.075C-470.554 1011.72 -458.229 1033.01 -442.544 1049.82C-429.099 1065.5 -419.016 1075.59 -408.932 1085.67C-395.488 1099.12 -384.284 1110.32 -369.719 1129.37C-359.635 1141.69 -354.033 1154.02 -349.552 1167.46C-347.311 1176.42 -346.191 1186.51 -345.07 1196.59C-336.107 1193.23 -326.024 1190.99 -317.061 1189.87C-303.616 1188.75 -289.051 1190.99 -273.366 1195.47C-252.078 1201.07 -237.513 1207.79 -219.587 1215.64C-207.263 1221.24 -193.818 1227.96 -173.651 1234.68C-153.484 1243.65 -127.715 1248.13 -103.067 1245.89C-81.7795 1244.77 -60.4921 1239.17 -42.5659 1226.84C-23.5193 1214.52 -6.71356 1198.83 6.73108 1180.9C16.8146 1165.22 24.6573 1147.29 26.8981 1129.37C25.7776 1100.24 25.7776 1072.23 26.8981 1043.1C25.7776 1021.81 25.7776 1000.52 25.7776 978.112C25.7776 971.389 31.3796 970.269 32.5 963.547L34.7407 966.908C34.7407 974.751 39.2223 972.51 40.3427 981.473C40.3427 1001.64 39.2223 1022.93 39.2223 1043.1V1044.22C40.3427 1072.23 40.3427 1100.24 39.2223 1129.37C41.4631 1147.29 49.3058 1165.22 59.3893 1180.9C72.8339 1198.83 89.6397 1214.52 108.686 1226.84C126.612 1239.17 147.9 1244.77 169.187 1245.89C193.836 1248.13 219.605 1243.65 239.771 1234.68C258.818 1227.96 273.383 1221.24 285.707 1215.64C303.634 1207.79 318.199 1201.07 339.486 1195.47C355.171 1190.99 369.736 1188.75 382.061 1189.87C392.144 1190.99 402.228 1193.23 411.191 1196.59C411.191 1186.51 413.431 1176.42 415.672 1167.46C420.154 1154.02 425.756 1141.69 435.839 1129.37C450.404 1110.32 461.608 1099.12 475.053 1085.67C484.016 1075.59 495.22 1065.5 508.664 1049.82C524.35 1033.01 536.674 1011.72 544.517 987.075C550.119 966.908 552.359 945.62 547.878 924.332C543.396 900.804 533.313 876.155 519.868 853.747C508.664 836.941 496.34 822.376 480.655 814.533C456.006 807.81 431.358 799.968 406.709 792.125H404.468L402.228 791.004C376.459 784.282 342.847 774.198 314.837 764.115L315.958 760.754C326.041 761.874 331.643 755.152 332.764 756.272C357.412 762.994 385.422 771.958 407.829 778.68C432.478 785.402 457.126 792.125 485.136 802.208C487.377 803.329 490.738 804.449 492.979 804.449C510.905 807.81 529.952 804.449 547.878 797.727C568.045 791.004 588.212 777.56 605.018 762.994C620.703 748.429 631.907 729.382 638.629 709.215C646.472 685.687 648.713 659.917 646.472 637.509C644.231 617.342 641.99 602.777 639.75 589.332C636.388 570.285 634.148 553.479 633.027 531.071C633.027 515.385 629.666 503.061 634.148 490.736C636.388 480.653 641.99 472.81 647.592 463.847C637.509 461.606 628.546 457.124 619.583 452.643C608.379 445.92 603.897 433.596 593.814 421.272C580.369 403.345 571.406 388.78 562.443 373.094C555.72 360.77 547.878 347.325 536.674 330.519C524.35 311.472 506.423 293.546 485.136 280.101C467.21 268.897 447.043 262.174 424.635 261.054C402.228 259.933 378.699 262.174 358.532 270.017C341.727 275.619 326.041 284.582 314.837 295.786C314.837 296.907 313.717 299.148 312.597 300.268L222.966 425.753L212.882 434.716L202.799 442.559L205.039 434.716H206.16C209.521 429.114 206.16 426.874 209.521 421.272C222.966 402.225 236.41 383.178 249.855 365.251C267.781 340.602 284.587 315.954 301.393 291.305H302.513C302.513 290.184 303.634 289.064 304.754 287.944C311.476 273.378 313.717 257.693 313.717 239.766C313.717 218.479 308.115 194.95 300.272 174.783C291.309 154.616 277.865 137.81 261.059 124.365C240.892 108.679 218.484 98.5955 196.076 92.9934C177.03 88.5118 161.344 85.1506 147.9 82.9098C128.853 79.5486 113.168 76.1874 91.8805 69.465C76.1951 63.863 63.8708 54.8997 53.7873 47.0569C45.9446 40.3345 39.2223 32.4917 32.5 24.6489C26.8981 32.4917 20.1757 40.3345 12.333 47.0569C2.24951 54.8997 -10.0747 63.863 -25.7601 69.465C-47.0475 76.1874 -62.7329 79.5486 -81.7795 82.9098C-95.2241 85.1506 -110.91 88.5118 -129.956 92.9934C-152.364 98.5955 -174.772 108.679 -194.939 124.365C-211.744 137.81 -225.189 154.616 -234.152 174.783C-241.995 194.95 -247.597 218.479 -247.597 239.766C-247.597 258.813 -244.236 277.86 -235.272 293.546L-234.152 294.666L-185.975 361.89L-183.735 365.251C-171.41 383.178 -157.966 401.104 -145.641 419.031C-145.641 419.031 -142.28 432.476 -141.16 435.837L-146.762 431.355ZM-442.544 819.015C-457.109 819.015 -471.674 815.653 -486.239 810.051C-508.647 802.208 -529.934 788.764 -547.86 773.078C-565.786 756.272 -578.111 734.984 -584.833 713.697C-593.796 687.927 -596.037 661.038 -593.796 636.389C-591.555 616.222 -589.315 600.536 -587.074 587.091C-583.713 568.044 -581.472 552.359 -580.351 531.071C-580.351 516.506 -575.87 505.302 -580.351 494.098C-583.713 482.894 -590.435 472.81 -598.278 463.847L-605 454.884L-593.796 452.643C-581.472 450.402 -571.388 447.041 -561.305 440.318C-551.221 434.716 -546.74 424.633 -537.777 413.429C-525.453 396.623 -516.489 382.057 -507.526 366.372C-500.804 354.047 -492.961 340.602 -480.637 323.796C-468.313 303.629 -449.266 283.462 -425.738 268.897C-406.692 256.572 -383.163 248.729 -359.635 247.609C-336.107 246.489 -311.459 249.85 -289.051 257.693C-277.847 262.174 -266.643 267.776 -256.56 274.499C-259.921 263.295 -261.041 252.091 -261.041 239.766C-259.921 216.238 -254.319 191.589 -245.356 169.181C-236.393 146.773 -220.707 128.846 -202.781 114.281C-181.494 97.4751 -156.845 86.271 -133.317 80.669C-113.15 75.067 -97.4649 72.8262 -84.0202 69.465C-66.0941 66.1038 -50.4086 63.863 -29.1213 57.1405C-15.6766 52.6589 -4.47278 43.6957 4.4903 35.8529C13.4534 29.1305 21.2961 20.1673 28.0184 8.96322L32.5 0L38.1019 8.96322C44.8242 20.1673 52.6669 29.1305 61.63 35.8529C70.5931 43.6957 81.797 52.6589 95.2416 57.1405C116.529 63.863 132.214 66.1038 150.141 69.465C163.585 72.8262 179.271 75.067 199.438 80.669C222.966 86.271 247.614 97.4751 268.902 114.281C286.828 128.846 302.513 146.773 311.476 169.181C320.439 191.589 326.041 216.238 327.162 239.766C327.162 250.97 326.041 262.174 323.8 272.258C332.764 266.656 342.847 261.054 354.051 257.693C376.459 249.85 401.107 246.489 425.756 247.609C449.284 248.729 472.812 256.572 491.859 268.897C515.387 283.462 534.433 303.629 546.757 323.796C559.082 340.602 566.924 354.047 573.647 366.372C582.61 382.057 591.573 396.623 603.897 413.429C612.86 424.633 616.221 434.716 626.305 441.439C636.388 447.041 647.592 451.522 659.917 453.763L670 456.004L663.278 463.847C655.435 473.93 649.833 484.014 646.472 495.218C641.99 506.422 646.472 516.506 646.472 531.071C647.592 552.359 649.833 568.044 653.194 587.091C655.435 600.536 657.676 616.222 659.917 636.389C662.157 661.038 659.917 687.927 650.953 713.697C644.231 734.984 631.907 756.272 613.981 773.078C596.054 788.764 574.767 802.208 552.359 810.051C537.794 815.653 523.229 819.015 508.664 819.015C516.507 826.857 524.35 836.941 531.072 847.025C545.637 870.553 555.72 897.443 560.202 920.971C565.804 944.5 563.563 969.149 556.841 991.557C548.998 1017.33 534.433 1040.85 518.748 1058.78C504.183 1074.47 494.099 1084.55 484.016 1094.63C470.571 1108.08 459.367 1119.28 445.923 1137.21C438.08 1148.41 431.358 1159.62 427.996 1170.82C424.635 1182.03 424.635 1193.23 424.635 1205.55L425.756 1216.76L415.672 1212.28C404.468 1206.67 393.264 1204.43 382.061 1203.31C369.736 1202.19 357.412 1203.31 343.967 1207.79C322.68 1213.4 308.115 1220.12 291.309 1227.96C277.865 1233.56 263.3 1240.29 244.253 1247.01C221.845 1255.97 194.956 1260.45 168.067 1259.33C145.659 1257.09 122.131 1251.49 101.964 1238.05C81.797 1224.6 62.7504 1207.79 49.3058 1187.63C42.5834 1178.66 36.9815 1168.58 32.5 1158.5C29.1388 1168.58 23.5369 1178.66 16.8146 1187.63C3.36993 1207.79 -15.6766 1224.6 -35.8436 1238.05C-56.0106 1251.49 -79.5387 1257.09 -101.946 1259.33C-128.836 1260.45 -155.725 1255.97 -178.133 1247.01C-198.3 1240.29 -211.744 1233.56 -225.189 1227.96C-241.995 1220.12 -256.56 1213.4 -277.847 1207.79C-291.292 1203.31 -303.616 1202.19 -315.94 1203.31C-327.144 1204.43 -338.348 1206.67 -349.552 1212.28L-359.635 1216.76L-358.515 1205.55C-358.515 1193.23 -358.515 1182.03 -361.876 1170.82C-365.237 1159.62 -371.96 1148.41 -379.802 1137.21C-393.247 1119.28 -404.451 1108.08 -417.895 1094.63C-427.979 1084.55 -439.183 1074.47 -452.627 1058.78C-468.313 1040.85 -482.878 1017.33 -490.721 991.557C-497.443 969.149 -499.684 944.5 -494.082 920.971C-489.6 897.443 -479.517 870.553 -464.952 847.025C-458.229 836.941 -450.387 826.857 -442.544 819.015ZM-13.4359 983.714C-13.4359 987.075 -8.95435 973.63 -7.83392 978.112C-7.83392 983.714 -5.59314 993.797 -5.59314 994.918C-4.47278 1009.48 -3.35242 1020.69 -3.35242 1033.01C-3.35242 1045.34 -3.35242 1057.66 -5.59314 1074.47C-6.71356 1093.51 -7.83392 1112.56 -14.5563 1131.61C-21.2786 1149.53 -33.6028 1168.58 -54.8902 1185.39C-71.696 1197.71 -89.6222 1203.31 -109.789 1203.31C-128.836 1202.19 -150.123 1196.59 -172.531 1186.51C-197.179 1175.3 -217.346 1169.7 -235.272 1165.22C-241.995 1162.98 -249.837 1160.74 -255.439 1159.62C-265.523 1156.26 -274.486 1155.14 -284.569 1155.14C-294.653 1156.26 -304.736 1158.5 -315.94 1161.86L-323.783 1165.22V1156.26C-324.903 1145.05 -326.024 1134.97 -329.385 1124.88C-332.746 1115.92 -336.107 1106.96 -342.83 1099.12C-347.311 1093.51 -351.793 1087.91 -356.274 1081.19C-366.358 1066.62 -378.682 1050.94 -397.728 1030.77C-415.655 1013.96 -427.979 996.038 -435.822 978.112C-443.664 960.185 -444.785 941.138 -438.062 920.971C-430.22 894.082 -417.895 877.276 -402.21 863.831C-387.645 851.506 -370.839 842.543 -352.913 834.7C-338.348 827.978 -326.024 822.376 -314.82 819.015C-303.616 814.533 -292.412 811.172 -278.967 807.81C-270.004 805.57 -252.078 802.208 -243.115 801.088L-249.837 811.172L-238.634 813.413H-240.874C-249.837 814.533 -267.764 817.894 -274.486 820.135C-287.931 823.496 -299.134 826.857 -310.338 831.339C-321.542 834.7 -332.746 839.182 -347.311 845.904C-364.117 854.867 -379.802 861.59 -394.367 873.914C-407.812 885.118 -419.016 900.804 -425.738 925.453C-431.34 941.138 -430.22 957.945 -423.497 973.63C-416.775 989.316 -404.451 1005 -388.765 1021.81C-368.598 1041.97 -356.274 1058.78 -345.07 1074.47C-340.589 1080.07 -337.228 1085.67 -332.746 1091.27C-324.903 1100.24 -320.422 1110.32 -317.061 1120.4C-313.699 1129.37 -312.579 1138.33 -311.459 1147.29C-302.496 1145.05 -293.533 1142.81 -284.569 1142.81C-273.366 1141.69 -262.162 1142.81 -252.078 1146.17C-244.236 1148.41 -238.634 1150.65 -230.791 1152.89C-212.865 1157.38 -192.698 1162.98 -166.929 1174.18C-145.641 1184.27 -126.595 1189.87 -108.669 1189.87C-91.8629 1189.87 -77.2979 1185.39 -63.8533 1175.3C-43.6863 1159.62 -32.4824 1143.93 -26.8805 1127.13C-21.2786 1110.32 -19.0378 1092.39 -17.9174 1073.35C-16.7971 1057.66 -16.7971 1045.34 -16.7971 1033.01C-16.7971 1021.81 -17.9174 1010.6 -19.0378 996.038C-19.0378 994.918 -21.2786 976.991 -21.2786 974.751C-22.399 973.63 -22.399 971.389 -22.399 969.149L-16.7971 968.028L-13.4359 983.714ZM85.1581 973.63C85.1581 976.991 88.5193 975.871 88.5193 979.232C85.1581 993.797 84.0378 1007.24 82.9174 1020.69C82.9174 1037.49 82.9174 1054.3 84.0378 1073.35C85.1581 1092.39 87.3989 1110.32 93.0009 1127.13C98.6028 1143.93 109.807 1159.62 129.974 1175.3C143.418 1185.39 157.983 1189.87 174.789 1189.87C192.715 1189.87 211.762 1184.27 233.049 1174.18C258.818 1162.98 278.985 1157.38 296.911 1152.89C304.754 1150.65 310.356 1148.41 318.199 1146.17C328.282 1142.81 339.486 1141.69 350.69 1142.81C359.653 1142.81 368.616 1145.05 377.579 1147.29C378.699 1138.33 379.82 1129.37 383.181 1120.4C386.542 1110.32 391.024 1100.24 398.866 1091.27C403.348 1085.67 406.709 1080.07 411.191 1074.47C422.395 1058.78 434.719 1041.97 454.886 1021.81C470.571 1005 482.895 989.316 489.618 973.63C496.34 957.945 497.46 941.138 491.859 925.453C485.136 900.804 473.932 885.118 460.488 873.914C445.923 861.59 430.237 854.867 413.431 845.904C398.866 839.182 387.663 834.7 376.459 831.339C365.255 826.857 354.051 823.496 340.606 820.135C333.884 817.894 305.874 813.413 296.911 812.292L294.67 811.172C293.55 810.051 311.476 812.292 313.717 807.81C313.717 806.69 311.476 802.208 310.356 801.088C322.68 803.329 338.366 805.57 345.088 807.81C358.532 811.172 369.736 814.533 380.94 819.015C392.144 822.376 404.468 827.978 419.033 834.7C436.96 842.543 453.765 851.506 468.33 863.831C484.016 877.276 496.34 894.082 504.183 920.971C510.905 941.138 509.785 960.185 501.942 978.112C494.099 996.038 481.775 1013.96 463.849 1030.77C444.802 1050.94 432.478 1066.62 422.395 1081.19C417.913 1087.91 413.431 1093.51 408.95 1099.12C402.228 1106.96 397.746 1115.92 395.505 1124.88C392.144 1134.97 391.024 1145.05 389.903 1156.26V1165.22L382.061 1161.86C370.857 1158.5 360.773 1156.26 350.69 1155.14C340.606 1155.14 331.643 1156.26 321.56 1159.62C314.837 1160.74 308.115 1162.98 300.272 1165.22C283.467 1169.7 263.3 1175.3 238.651 1186.51C216.243 1196.59 194.956 1202.19 175.909 1203.31C155.742 1203.31 137.816 1197.71 121.01 1185.39C99.7231 1168.58 87.3989 1149.53 80.6766 1131.61C73.9543 1112.56 72.8339 1093.51 70.5931 1074.47C69.4727 1054.3 69.4727 1037.49 70.5931 1020.69C70.5931 1008.36 71.7135 997.159 73.9543 985.955C75.0746 979.232 80.6766 975.871 82.9174 969.149L85.1581 973.63ZM247.614 459.365C248.735 456.004 249.855 452.643 250.975 450.402C252.096 449.282 249.855 448.161 250.975 445.92C253.216 439.198 256.577 433.596 259.938 426.874C266.661 415.669 273.383 405.586 280.105 395.502C286.828 385.419 294.67 375.335 304.754 363.011C318.199 347.325 330.523 332.76 346.208 321.556C363.014 310.352 383.181 302.509 411.191 301.388C431.358 300.268 449.284 306.99 464.969 319.315C480.655 330.519 494.099 347.325 506.423 368.613C520.989 392.141 533.313 408.947 544.517 422.392C550.119 429.114 554.6 434.716 557.961 440.318C564.684 448.161 571.406 454.884 579.249 459.365C588.212 464.967 598.295 469.449 608.379 472.81L617.342 475.051L611.74 482.894C606.138 491.857 600.536 500.82 598.295 510.904C594.934 519.867 593.814 529.951 593.814 538.914C594.934 546.757 594.934 553.479 594.934 561.322C594.934 579.248 594.934 600.536 599.416 627.426C602.777 650.954 603.897 673.362 599.416 692.409C593.814 711.456 584.851 727.141 568.045 739.466C545.637 756.272 525.47 764.115 505.303 765.235C486.257 767.476 467.21 764.115 448.163 759.633C431.358 757.392 419.033 754.031 407.829 750.67C395.505 747.309 385.422 743.948 371.977 739.466C364.134 736.105 355.171 731.623 347.329 727.141C345.088 726.021 342.847 726.021 341.727 723.78C339.486 722.66 336.125 715.938 331.643 714.817L339.486 711.456C343.967 712.576 342.847 710.335 348.449 712.576C349.569 713.697 351.81 714.817 354.051 715.938C360.773 720.419 368.616 723.78 376.459 727.141C388.783 731.623 399.987 734.984 411.191 738.346C422.395 741.707 434.719 743.948 450.404 747.309C468.33 750.67 486.257 754.031 504.183 751.79C522.109 750.67 540.035 745.068 560.202 729.382C573.647 719.299 582.61 705.854 585.971 689.048C590.453 672.242 590.453 652.075 585.971 629.666C581.489 601.656 581.489 580.369 581.489 561.322C581.489 554.599 581.489 546.757 581.489 540.034C580.369 528.83 582.61 517.626 585.971 507.543C588.212 498.579 591.573 490.736 597.175 482.894C588.212 479.532 580.369 475.051 572.526 470.569C563.563 464.967 554.6 457.124 547.878 448.161C543.396 442.559 538.915 436.957 534.433 431.355C523.229 416.79 509.785 399.984 495.22 375.335C484.016 356.288 471.692 339.482 457.126 329.398C443.682 319.315 429.117 313.713 411.191 314.833C386.542 315.954 368.616 322.676 354.051 332.76C339.486 342.843 327.162 356.288 314.837 370.853C304.754 383.178 298.032 393.261 291.309 402.225C284.587 412.308 277.865 422.392 271.142 433.596C267.781 440.318 263.3 448.161 259.938 457.124C258.818 459.365 249.855 460.486 248.735 462.726L247.614 459.365Z" fill="white"/>
<path d="M390.946 248.563C399.894 215.011 404.368 189.287 401.013 155.735C374.169 163.564 348.443 175.867 320.48 195.998L317.125 182.577C343.969 163.564 373.05 150.143 405.487 141.196L412.198 140.078L413.316 146.788C417.79 180.34 415.553 213.892 404.368 247.445L390.946 248.563Z" fill="white"/>
<path d="M544.825 884.156C580.638 881.913 606.378 878.548 636.596 865.088C620.927 841.534 601.902 821.344 573.923 800.033L585.114 792.182C611.974 813.493 634.357 835.926 651.145 865.088L654.502 871.818L648.906 874.062C618.689 888.643 586.234 896.494 550.42 896.494L544.825 884.156Z" fill="white"/>
<path fill-rule="evenodd" clip-rule="evenodd" d="M32.5371 575.906C86.203 575.906 128.689 618.514 128.689 671.214C128.689 723.913 86.203 767.642 32.5371 767.642C-20.0107 767.642 -62.4962 723.913 -62.4962 671.214C-62.4962 618.514 -20.0107 575.906 32.5371 575.906ZM32.5371 568.058C89.5571 568.058 136.515 615.151 136.515 671.214C136.515 728.398 89.5571 775.491 32.5371 775.491C-23.3649 775.491 -70.3225 728.398 -70.3225 671.214C-70.3225 615.151 -23.3649 568.058 32.5371 568.058Z" fill="white"/>
<path d="M-148.808 898.383C-157.769 907.346 -167.85 916.31 -176.811 924.153C-199.214 944.321 -220.497 964.489 -237.299 989.139C-249.62 1007.07 -255.221 1029.48 -261.942 1051.88C-264.182 1059.73 -266.422 1067.57 -269.783 1075.41C-261.942 1070.93 -255.221 1066.45 -248.5 1063.09C-228.338 1050.76 -209.295 1039.56 -193.613 1022.75C-174.571 1001.46 -160.009 975.694 -144.327 949.923C-138.727 937.598 -132.006 926.394 -124.165 915.19C-133.126 909.587 -140.967 903.985 -148.808 898.383ZM-152.168 976.814C-156.649 985.778 -160.009 993.621 -163.37 1001.46C-164.49 1007.07 -165.61 1013.79 -166.73 1019.39C-153.289 1010.43 -142.087 998.103 -132.006 982.416C-121.925 966.73 -111.843 947.682 -102.882 928.635C-108.483 925.274 -112.964 921.912 -118.564 918.551C-125.285 929.755 -132.006 942.08 -138.727 953.285C-143.207 961.128 -147.688 968.971 -153.289 976.814H-152.168ZM-96.1616 931.996C-99.522 937.598 -102.882 944.321 -105.123 951.044C-109.603 958.887 -111.843 966.73 -112.964 975.694C-114.084 982.416 -115.204 990.26 -115.204 996.982C-108.483 989.139 -102.882 981.296 -98.4018 972.332C-93.9213 962.248 -89.4407 947.682 -87.2005 936.478C-89.4407 934.237 -92.8011 933.117 -96.1616 931.996ZM-119.684 976.814C-121.925 980.176 -124.165 983.537 -126.405 986.898C-138.727 1004.83 -152.168 1019.39 -168.97 1029.48L-173.451 1032.84V1026.11C-173.451 1019.39 -172.331 1012.67 -171.211 1005.95C-176.811 1012.67 -182.412 1020.51 -189.133 1027.23C-204.815 1044.04 -224.977 1056.37 -245.14 1068.69C-259.702 1077.65 -272.023 1085.5 -285.465 1095.58C-277.624 1079.9 -274.263 1067.57 -268.663 1049.64C-261.942 1027.23 -255.221 1004.83 -242.9 984.657C-237.299 977.935 -232.818 971.212 -227.218 964.489C-232.818 966.73 -238.419 968.971 -244.02 971.212L-250.74 972.332L-248.5 966.73C-244.02 952.164 -236.179 937.598 -226.097 925.274C-226.097 925.274 -226.097 925.274 -227.218 925.274C-231.698 926.394 -237.299 927.514 -242.9 928.635L-250.74 929.755L-246.26 923.033C-240.659 915.19 -235.059 907.346 -228.338 900.624C-231.698 901.744 -235.059 902.865 -238.419 902.865L-246.26 903.985L-241.779 897.262C-236.179 888.299 -229.458 880.456 -221.617 872.612C-227.218 873.733 -232.818 875.974 -237.299 875.974L-245.14 877.094L-241.779 871.492C-237.299 864.769 -232.818 858.047 -227.218 852.444C-232.818 854.685 -237.299 855.806 -242.9 855.806H-248.5L-246.26 850.203C-242.9 844.601 -238.419 838.999 -233.938 834.517C-237.299 834.517 -240.659 835.638 -244.02 835.638H-249.62L-247.38 830.035C-245.14 824.433 -240.659 819.951 -236.179 815.47C-240.659 815.47 -245.14 816.59 -250.74 815.47H-255.221L-252.981 810.988C-250.74 805.386 -248.5 800.904 -244.02 796.422H-242.9C-247.38 796.422 -250.74 796.422 -255.221 795.302H-259.702L-257.461 790.82C-256.341 786.338 -252.981 782.977 -249.62 779.615C-254.101 779.615 -257.461 778.495 -261.942 776.254L-265.302 774.013L-263.062 770.652C-260.822 767.29 -257.461 763.929 -254.101 761.688C-258.581 760.568 -263.062 759.447 -267.543 757.206L-272.023 754.965L-268.663 751.604C-266.422 749.363 -264.182 747.122 -261.942 744.881C-265.302 744.881 -269.783 743.761 -273.143 741.52L-277.624 739.279L-274.263 735.918C-272.023 733.677 -268.663 730.315 -265.302 728.075C-269.783 728.075 -273.143 726.954 -277.624 725.834L-284.345 724.713L-278.744 720.231C-275.383 716.87 -270.903 713.509 -266.422 711.268L-265.302 710.147C-266.422 710.147 -266.422 710.147 -267.543 710.147C-273.143 709.027 -278.744 707.907 -285.465 705.666L-292.186 703.425L-285.465 700.063C-280.984 696.702 -276.504 694.461 -272.023 692.22H-273.143C-280.984 691.1 -287.705 688.859 -295.546 685.498L-302.267 683.257L-295.546 679.895C-289.945 676.534 -285.465 674.293 -279.864 673.173C-288.825 672.052 -297.786 668.691 -306.747 665.329L-312.348 663.089L-306.747 659.727C-304.507 657.486 -301.147 655.245 -297.786 654.125C-304.507 651.884 -312.348 649.643 -320.189 646.282L-328.03 641.8L-320.189 639.559C-314.588 637.318 -310.108 636.198 -304.507 635.077C-314.588 633.957 -324.67 630.596 -335.871 626.114L-341.472 622.752L-335.871 619.391C-333.631 618.271 -330.27 616.03 -325.79 614.909C-341.472 610.428 -356.033 603.705 -368.355 593.621L-372.835 590.259L-367.235 588.019C-360.514 585.778 -353.793 583.537 -347.072 583.537C-356.033 580.175 -364.994 577.935 -373.956 574.573C-395.238 565.61 -414.28 551.044 -432.203 536.478C-444.524 526.394 -456.846 517.43 -470.287 508.467C-453.485 509.587 -438.924 508.467 -423.242 507.346C-399.719 505.105 -376.196 503.985 -352.673 508.467C-344.832 510.708 -335.871 514.069 -328.03 516.31C-332.51 511.828 -336.991 507.346 -340.351 502.864L-344.832 497.262H-338.111C-320.189 496.142 -301.147 499.503 -282.104 506.226H-283.224C-286.585 501.744 -288.825 497.262 -291.065 492.78L-294.426 486.058L-287.705 487.178C-276.504 490.54 -265.302 493.901 -255.221 498.383V497.262C-259.702 492.78 -261.942 487.178 -264.182 482.696L-267.543 474.853L-259.702 478.215C-248.5 481.576 -237.299 487.178 -227.218 492.78C-231.698 487.178 -236.179 480.456 -238.419 472.612L-241.779 465.89L-235.059 468.131C-228.338 470.371 -221.617 472.612 -213.776 477.094C-217.136 472.612 -219.377 469.251 -220.497 464.769L-222.737 459.167L-217.136 460.287C-210.416 461.408 -203.695 463.649 -198.094 467.01C-200.334 463.649 -201.454 459.167 -202.575 454.685L-204.815 449.083L-199.214 450.203C-193.613 451.324 -189.133 453.565 -185.773 455.806C-186.893 452.444 -188.013 449.083 -189.133 445.722L-190.253 440.119L-184.652 442.36C-180.172 442.36 -175.691 444.601 -172.331 446.842C-173.451 443.481 -175.691 440.119 -175.691 435.638L-177.932 430.035L-172.331 431.156C-166.73 433.397 -161.13 435.638 -157.769 437.878C-158.889 433.397 -158.889 428.915 -158.889 423.313L-160.009 416.59L-154.409 421.072C-152.168 422.192 -149.928 423.313 -147.688 425.554C-148.808 421.072 -149.928 417.71 -148.808 413.229L-147.688 409.867L-144.327 410.988C-140.967 412.108 -137.607 413.229 -135.366 415.469C-135.366 413.229 -136.487 409.867 -136.487 407.626V403.145L-132.006 404.265C-127.525 405.385 -125.285 407.626 -121.925 409.867C-123.045 406.506 -123.045 402.024 -123.045 397.542V391.94L-118.564 394.181C-116.324 396.422 -114.084 397.542 -111.843 398.663C-111.843 395.301 -111.843 390.82 -111.843 386.338V380.736L-106.243 384.097C-102.882 386.338 -99.522 388.579 -96.1616 391.94C-97.2817 386.338 -98.4018 380.736 -98.4018 375.133V368.411L-92.8011 372.892C-88.3206 375.133 -84.9602 378.495 -82.7199 381.856C-83.8401 375.133 -84.9602 368.411 -83.8401 361.688V356.086L-79.3595 358.327C-72.6387 361.688 -68.1581 366.17 -63.6776 371.772C-65.9179 360.568 -65.9179 350.483 -65.9179 339.279L-64.7977 332.556L-60.3172 337.038C-54.7165 340.399 -50.2359 344.881 -46.8755 349.363C-46.8755 344.881 -46.8755 339.279 -46.8755 334.797C-46.8755 324.713 -44.6353 315.75 -42.395 305.666L-40.1547 301.184L-36.7943 304.545C-32.3138 309.027 -27.8332 314.629 -24.4728 321.352C-25.5929 301.184 -24.4728 282.136 -17.752 264.209L-15.5117 258.607L-11.0312 263.088C-7.67075 268.691 -4.31033 274.293 -2.07004 279.895C-2.07004 270.932 -2.07004 261.968 -0.949921 253.004C0.170227 229.475 9.13132 208.187 18.0924 185.778C23.6931 172.332 28.1736 158.887 32.6542 145.441C38.2549 158.887 42.7354 172.332 48.3361 185.778C56.1771 208.187 65.1382 230.595 67.3785 253.004C67.3785 263.088 68.4986 272.052 67.3785 281.016C70.7389 275.413 74.0993 268.691 78.5798 263.088L81.9402 258.607L84.1805 264.209C90.9013 279.895 92.0215 296.702 92.0215 314.629C94.2617 310.147 96.502 306.786 99.8624 304.545L104.343 300.063L105.463 306.786C106.583 315.75 107.703 325.834 107.703 335.918C107.703 339.279 107.703 342.64 107.703 347.122C111.064 340.399 115.544 333.677 121.145 329.195L126.746 324.713V332.556C126.746 340.399 125.626 350.483 124.505 359.447C127.866 354.965 131.226 351.604 134.587 347.122L140.187 341.52V349.363C141.307 358.327 140.187 368.411 139.067 377.374C139.067 378.495 139.067 380.736 139.067 381.856C142.428 377.374 146.908 371.772 152.509 366.17L158.11 360.568V368.411C158.11 374.013 158.11 379.615 156.989 385.217C159.23 381.856 162.59 379.615 165.951 377.374L171.551 372.892V379.615C171.551 386.338 170.431 393.061 169.311 398.663C172.671 395.301 177.152 391.94 181.632 389.699L186.113 386.338V391.94C187.233 397.542 186.113 402.024 186.113 406.506C188.353 404.265 190.594 402.024 193.954 400.904L198.435 398.663L199.555 404.265C199.555 408.747 198.435 412.108 198.435 416.59C200.675 414.349 204.035 412.108 207.396 410.988L210.756 408.747L211.876 413.229C212.996 418.831 211.876 425.554 210.756 431.156C210.756 430.035 211.876 430.035 211.876 428.915C216.357 426.674 219.717 424.433 224.198 423.313L228.678 421.072V426.674C227.558 431.156 226.438 435.638 224.198 441.24C225.318 440.119 225.318 440.119 226.438 440.119C229.798 437.878 234.279 434.517 239.88 433.397L244.36 431.156V436.758C243.24 440.119 242.12 443.481 241 446.842C244.36 445.722 248.841 443.481 252.201 442.36L257.802 441.24L256.682 446.842C255.561 450.203 254.441 453.565 253.321 456.926C257.802 454.685 262.282 452.444 266.763 452.444L272.364 451.324L271.243 455.806C270.123 460.287 269.003 464.769 267.883 468.131C272.364 464.769 277.964 461.408 283.565 460.287L289.166 456.926L288.045 463.649C286.925 469.251 285.805 473.733 282.445 478.215C290.286 473.733 298.127 470.371 305.968 469.251L311.568 468.131L309.328 473.733C308.208 479.335 304.848 484.937 300.367 490.54C309.328 486.058 318.289 481.576 328.37 479.335L336.211 477.094L332.851 483.817C329.491 489.419 327.25 493.901 322.77 499.503C325.01 498.383 327.25 497.262 329.491 496.142C338.452 492.78 346.293 489.419 355.254 488.299L360.854 486.058L358.614 491.66C357.494 497.262 355.254 502.864 351.893 507.346C368.695 500.624 386.618 497.262 403.42 498.383L409.02 499.503L405.66 503.985C402.299 509.587 397.819 514.069 393.338 518.551C401.179 515.189 410.14 512.949 417.981 510.708C441.504 505.105 465.027 507.346 488.55 508.467C503.112 510.708 516.553 510.708 531.115 510.708C521.034 520.792 508.712 528.635 497.511 537.598C478.469 552.164 460.547 567.85 439.264 575.694C430.303 580.175 421.342 582.416 412.381 584.657C419.102 585.778 425.822 586.898 432.543 590.259L438.144 591.38L433.663 595.862C419.102 607.066 401.179 614.909 382.137 619.391C383.257 619.391 385.497 620.512 387.738 620.512C393.338 622.752 398.939 623.873 403.42 626.114L410.14 629.475L403.42 632.836C391.098 637.318 378.777 639.559 365.335 641.8C374.296 642.921 381.017 646.282 387.738 649.643L394.458 653.005L386.618 655.245C375.416 658.607 366.455 660.848 357.494 661.968C363.095 664.209 368.695 666.45 374.296 670.932L379.897 674.293L373.176 676.534C364.215 678.775 356.374 679.895 347.413 681.016C353.013 683.257 358.614 685.498 363.095 688.859L368.695 693.341L361.974 694.461C355.254 696.702 348.533 697.823 341.812 697.823C347.413 700.063 351.893 703.425 355.254 707.907L358.614 712.388L354.134 713.509C349.653 714.629 344.052 715.75 339.572 715.75C342.932 717.991 346.293 720.231 347.413 723.593L348.533 726.954L345.172 728.075C341.812 729.195 337.331 730.315 333.971 730.315C337.331 733.677 340.692 735.918 344.052 740.4L346.293 743.761L341.812 744.881C337.331 747.122 332.851 747.122 327.25 748.243C330.611 750.484 333.971 752.724 336.211 756.086L338.452 760.568L333.971 761.688C329.491 762.809 325.01 763.929 320.529 763.929C325.01 767.29 329.491 771.772 332.851 776.254L335.091 779.615L330.611 780.736C325.01 781.856 319.409 782.977 313.809 782.977C318.289 785.217 321.65 789.699 323.89 793.061L325.01 797.542L320.529 798.663C318.289 798.663 314.929 799.783 311.568 798.663C313.809 800.904 316.049 803.145 318.289 806.506L321.65 809.867L317.169 812.108C311.568 813.229 307.088 813.229 301.487 813.229H302.607C307.088 817.711 310.448 822.192 313.809 826.674L316.049 831.156L310.448 832.276C307.088 832.276 302.607 832.276 299.247 832.276C303.727 835.638 308.208 840.119 312.688 844.601L317.169 850.203H309.328C304.848 850.203 299.247 849.083 294.766 847.963C300.367 853.565 304.848 858.047 309.328 864.769L312.688 870.372H305.968C300.367 870.372 294.766 869.251 289.166 867.01C295.886 873.733 302.607 881.576 308.208 889.419L312.688 896.142L304.848 895.021C298.127 893.901 292.526 892.781 286.925 890.54C289.166 892.781 291.406 896.142 293.646 898.383C300.367 907.346 305.968 917.43 312.688 927.514C301.487 924.153 290.286 920.792 279.084 916.31C292.526 933.117 307.088 953.285 317.169 972.332C307.088 968.971 301.487 966.73 292.526 962.248C299.247 968.971 304.848 976.814 310.448 984.657C323.89 1004.83 330.611 1027.23 337.331 1049.64C341.812 1066.45 346.293 1079.9 353.013 1095.58C339.572 1085.5 327.25 1077.65 312.688 1068.69C292.526 1056.37 272.364 1044.04 256.682 1027.23C249.961 1020.51 244.36 1012.67 238.759 1005.95C241 1012.67 242.12 1019.39 242.12 1026.11V1032.84L236.519 1029.48C219.717 1019.39 206.275 1004.83 195.074 986.898C195.074 988.019 195.074 989.139 195.074 990.26C195.074 996.982 193.954 1001.46 192.834 1007.07L190.594 1013.79L186.113 1008.19C178.272 996.982 170.431 985.778 163.71 972.332C163.71 972.332 162.59 972.332 162.59 971.212C163.71 983.537 164.83 994.741 162.59 1007.07C153.629 999.223 148.028 989.139 142.428 977.935C142.428 984.657 142.428 991.38 141.307 996.982L139.067 1003.7L134.587 998.103C128.986 990.26 124.505 982.416 121.145 974.573C120.025 979.055 118.905 984.657 116.664 990.26L114.424 996.982L111.064 991.38C106.583 985.778 103.223 979.055 100.983 972.332C99.8624 977.935 98.7423 982.416 96.502 988.019L93.1416 993.621L89.7812 988.019C87.5409 984.657 84.1805 980.176 83.0604 976.814C81.9402 980.176 79.7 983.537 78.5798 986.898L75.2194 992.5L71.859 986.898C70.7389 983.537 68.4986 981.296 67.3785 976.814C66.2583 980.176 65.1382 983.537 64.0181 985.778L60.6577 990.26L58.4174 986.898C56.1771 983.537 53.9368 981.296 52.8167 977.935C51.6965 981.296 49.4562 985.778 47.216 989.139L43.8556 993.621L41.6153 989.139C39.375 985.778 37.1348 982.416 34.8945 977.935C33.7744 975.694 33.7744 974.573 32.6542 972.332V973.453C31.5341 977.935 29.2938 982.416 25.9334 985.778L22.573 989.139L20.3327 985.778C16.9723 982.416 15.8521 977.935 14.732 973.453L13.6119 974.573C12.4917 979.055 9.13132 984.657 6.89105 989.139L2.41049 993.621L0.170227 988.019C-0.949921 984.657 -2.07004 980.176 -3.19019 975.694C-5.43045 980.176 -7.67075 983.537 -11.0312 986.898L-15.5117 991.38L-16.6318 985.778C-17.752 982.416 -18.8721 979.055 -19.9922 975.694C-23.3527 982.416 -26.7131 986.898 -31.1936 990.26L-35.6742 993.621L-36.7943 988.019C-37.9144 984.657 -39.0346 980.176 -39.0346 975.694C-42.395 982.416 -45.7554 989.139 -50.2359 994.741L-55.8366 999.223L-56.9568 992.5C-56.9568 986.898 -58.0769 981.296 -58.0769 974.573C-58.0769 975.694 -59.1971 976.814 -59.1971 977.935C-63.6776 986.898 -68.1581 993.621 -74.879 996.982L-79.3595 1001.46L-80.4796 994.741C-80.4796 990.26 -80.4796 985.778 -79.3595 981.296C-84.9602 991.38 -89.4407 999.223 -97.2817 1007.07C-98.4018 1000.34 -98.4018 993.621 -98.4018 986.898C-104.003 994.741 -109.603 1001.46 -116.324 1008.19L-121.925 1012.67V1004.83C-121.925 995.862 -121.925 986.898 -119.684 976.814ZM-80.4796 938.719C-82.7199 951.044 -86.0803 962.248 -90.5609 972.332C-91.681 976.814 -91.681 981.296 -91.681 984.657C-91.681 986.898 -91.681 988.019 -91.681 989.139C-88.3206 983.537 -84.9602 977.935 -81.5998 971.212C-78.2394 963.369 -74.879 953.285 -71.5186 944.321L-70.3984 943.201C-73.7588 942.08 -77.1192 939.839 -80.4796 938.719ZM186.113 973.453C178.272 960.007 171.551 945.442 163.71 930.876C160.35 931.996 158.11 934.237 154.749 935.358C159.23 947.682 163.71 958.887 169.311 970.091C174.912 979.055 180.512 989.139 187.233 998.103C187.233 995.862 188.353 992.5 188.353 990.26C188.353 984.657 187.233 979.055 186.113 973.453ZM170.431 927.514C179.392 947.682 189.473 966.73 200.675 982.416C210.756 998.103 220.837 1010.43 234.279 1019.39C234.279 1013.79 233.159 1007.07 230.918 1001.46C228.678 993.621 225.318 985.778 220.837 976.814C216.357 968.971 211.876 961.128 207.396 953.285C200.675 940.96 193.954 929.755 186.113 918.551C181.632 921.912 176.032 925.274 170.431 927.514ZM-63.6776 945.442H-64.7977C-67.038 954.405 -69.2783 963.369 -70.3984 971.212C-71.5186 976.814 -72.6387 981.296 -72.6387 986.898C-70.3984 983.537 -68.1581 979.055 -65.9179 974.573C-62.5575 967.851 -59.1971 958.887 -55.8366 947.682C-58.0769 947.682 -61.4373 946.562 -63.6776 945.442ZM-49.1158 949.923C-50.2359 956.646 -50.2359 963.369 -51.3561 968.971C-51.3561 973.453 -51.3561 979.055 -50.2359 983.537C-45.7554 975.694 -42.395 964.489 -39.0346 953.285C-42.395 952.164 -45.7554 951.044 -49.1158 949.923ZM-32.3138 954.405C-33.4339 960.007 -33.4339 964.489 -33.4339 968.971C-32.3138 973.453 -32.3138 976.814 -31.1936 981.296C-28.9533 979.055 -27.8332 975.694 -26.7131 972.332C-24.4728 967.851 -22.2325 963.369 -21.1124 956.646C-24.4728 956.646 -28.9533 955.526 -32.3138 954.405ZM-13.2714 957.767C-14.3915 962.248 -14.3915 966.73 -13.2714 970.091C-13.2714 972.332 -13.2714 975.694 -12.1513 977.935C-11.0312 975.694 -8.79086 972.332 -7.67075 970.091C-6.5506 966.73 -5.43045 963.369 -4.31033 960.007C-7.67075 958.887 -11.0312 958.887 -13.2714 957.767ZM2.41049 960.007C2.41049 964.489 2.41049 967.851 3.53064 972.332C3.53064 974.573 3.53064 976.814 4.65079 979.055C5.7709 976.814 6.89105 973.453 8.0112 971.212C9.13132 967.851 10.2515 964.489 11.3716 961.128C9.13132 961.128 5.7709 961.128 2.41049 960.007ZM19.2126 962.248C19.2126 964.489 20.3327 967.851 20.3327 971.212C21.4528 973.453 22.573 975.694 23.6931 977.935C24.8132 975.694 25.9334 973.453 25.9334 971.212C27.0535 967.851 28.1736 965.61 29.2938 962.248C25.9334 962.248 22.573 962.248 19.2126 962.248ZM37.1348 962.248C38.2549 966.73 39.375 971.212 41.6153 974.573C42.7354 976.814 42.7354 979.055 43.8556 980.176C46.0958 974.573 47.216 967.851 48.3361 961.128C44.9757 962.248 41.6153 962.248 37.1348 962.248ZM56.1771 961.128C56.1771 965.61 56.1771 968.971 57.2972 972.332C58.4174 974.573 59.5375 975.694 59.5375 977.935C60.6577 974.573 61.7778 972.332 62.8979 970.091C62.8979 966.73 62.8979 963.369 62.8979 960.007C60.6577 961.128 58.4174 961.128 56.1771 961.128ZM70.7389 960.007C70.7389 964.489 71.859 967.851 72.9791 971.212C74.0993 973.453 74.0993 975.694 75.2194 976.814C76.3395 974.573 76.3395 972.332 77.4597 970.091C78.5798 966.73 78.5798 962.248 79.7 958.887C76.3395 958.887 72.9791 958.887 70.7389 960.007ZM86.4208 956.646C86.4208 957.767 86.4208 958.887 86.4208 958.887C86.4208 963.369 86.4208 966.73 87.5409 970.091C88.6611 973.453 90.9013 976.814 92.0215 979.055C93.1416 975.694 94.2617 971.212 95.3819 967.851C95.3819 963.369 96.502 958.887 96.502 955.526C93.1416 955.526 89.7812 956.646 86.4208 956.646ZM104.343 953.285C105.463 958.887 106.583 964.489 107.703 970.091C108.824 973.453 111.064 977.935 112.184 981.296C114.424 976.814 114.424 971.212 114.424 966.73C115.544 961.128 115.544 956.646 114.424 951.044C111.064 951.044 107.703 952.164 104.343 953.285ZM121.145 948.803V949.923C122.265 957.767 124.505 964.489 127.866 971.212C130.106 976.814 132.346 981.296 135.707 986.898C135.707 981.296 135.707 975.694 135.707 970.091C134.587 963.369 133.467 955.526 132.346 946.562C131.226 946.562 131.226 945.442 131.226 945.442C127.866 946.562 124.505 947.682 121.145 948.803ZM137.947 942.08C137.947 943.201 137.947 944.321 139.067 945.442C141.307 954.405 143.548 963.369 146.908 971.212C150.269 977.935 153.629 984.657 156.989 990.26C156.989 982.416 155.869 974.573 154.749 966.73C153.629 956.646 151.389 947.682 148.028 938.719C144.668 939.839 141.307 940.96 137.947 942.08ZM279.084 946.562C283.565 948.803 288.045 951.044 291.406 953.285C294.766 955.526 297.007 956.646 300.367 957.767C289.166 940.96 276.844 924.153 263.402 908.467C251.081 901.744 239.88 893.901 229.798 884.937C227.558 887.178 224.198 890.54 221.957 892.781C230.918 901.744 239.88 910.708 249.961 919.671C260.042 928.635 269.003 937.598 279.084 946.562ZM191.714 914.069C199.555 926.394 206.275 937.598 212.996 949.923C227.558 975.694 242.12 1001.46 262.282 1022.75C276.844 1039.56 297.007 1050.76 316.049 1063.09C323.89 1066.45 330.611 1070.93 337.331 1075.41C335.091 1067.57 332.851 1059.73 330.611 1051.88C323.89 1029.48 317.169 1007.07 304.848 989.139C289.166 964.489 266.763 944.321 245.48 924.153C235.399 915.19 225.318 906.226 216.357 897.262C208.516 902.865 200.675 909.587 191.714 914.069ZM235.399 880.456C245.48 889.419 256.682 897.262 267.883 903.985C276.844 908.467 286.925 912.949 297.007 916.31C294.766 911.828 291.406 907.346 288.045 902.865C282.445 896.142 277.964 890.54 272.364 884.937H271.243C262.282 880.456 253.321 875.974 245.48 870.372C243.24 872.612 241 874.853 238.759 877.094C237.639 878.215 236.519 879.335 235.399 880.456ZM249.961 864.769C257.802 870.372 265.643 874.853 274.604 878.215C281.325 881.576 289.166 884.937 297.007 886.058C292.526 880.456 288.045 875.974 282.445 870.372C275.724 864.769 267.883 858.047 260.042 853.565C256.682 856.926 253.321 861.408 249.961 864.769ZM264.523 847.963C270.123 851.324 276.844 854.685 282.445 858.047C288.045 860.288 293.646 861.408 299.247 862.528C295.886 858.047 291.406 854.685 286.925 851.324C282.445 846.842 275.724 843.481 270.123 840.119C267.883 842.36 266.763 844.601 264.523 847.963ZM273.484 833.397C279.084 836.758 284.685 837.879 289.166 840.119C293.646 841.24 297.007 841.24 300.367 842.36C298.127 840.119 295.886 837.879 292.526 836.758C288.045 833.397 283.565 831.156 277.964 827.794C276.844 830.035 275.724 832.276 273.484 833.397ZM281.325 822.192C285.805 823.313 289.166 824.433 293.646 824.433C297.007 825.554 300.367 825.554 303.727 825.554C302.607 823.313 300.367 821.072 298.127 818.831C294.766 815.47 291.406 813.229 288.045 810.988C285.805 814.349 283.565 817.711 281.325 822.192ZM292.526 803.145C294.766 804.265 298.127 805.386 301.487 805.386C303.727 806.506 305.968 806.506 309.328 806.506C307.088 804.265 304.848 803.145 303.727 802.024C300.367 800.904 298.127 798.663 294.766 797.542C293.646 799.783 292.526 802.024 292.526 803.145ZM298.127 790.82C301.487 790.82 303.727 791.94 307.088 791.94C309.328 791.94 311.568 791.94 314.929 791.94C312.688 790.82 311.568 788.579 309.328 787.458C307.088 786.338 304.848 784.097 301.487 782.977C300.367 785.217 299.247 787.458 298.127 790.82ZM304.848 775.133C308.208 775.133 310.448 775.133 313.809 775.133C317.169 775.133 320.529 775.133 322.77 775.133C321.65 772.893 319.409 771.772 317.169 769.531C313.809 768.411 311.568 766.17 308.208 765.049C307.088 768.411 305.968 771.772 304.848 775.133ZM310.448 757.206C313.809 757.206 317.169 757.206 319.409 757.206C321.65 757.206 325.01 757.206 327.25 756.086C325.01 754.965 323.89 753.845 321.65 752.724C319.409 750.484 317.169 749.363 313.809 748.243C312.688 751.604 311.568 753.845 310.448 757.206ZM314.929 740.4C319.409 740.4 322.77 741.52 326.13 741.52C329.491 740.4 331.731 740.4 335.091 740.4C332.851 738.159 330.611 737.038 327.25 734.797C325.01 733.677 321.65 732.556 317.169 731.436C317.169 733.677 316.049 737.038 314.929 740.4ZM319.409 723.593C322.77 723.593 326.13 723.593 329.491 723.593C332.851 723.593 335.091 723.593 338.452 722.472C336.211 721.352 335.091 720.231 332.851 719.111C329.491 717.991 325.01 716.87 320.529 714.629C320.529 717.991 319.409 720.231 319.409 723.593ZM321.65 706.786C326.13 707.907 330.611 709.027 335.091 709.027C338.452 709.027 342.932 709.027 346.293 707.907C342.932 705.666 339.572 704.545 336.211 702.304C331.731 701.184 327.25 700.063 322.77 698.943C321.65 701.184 321.65 704.545 321.65 706.786ZM322.77 691.1C328.37 691.1 333.971 691.1 339.572 691.1C342.932 691.1 347.413 689.979 351.893 689.979C348.533 687.738 344.052 686.618 340.692 685.498C335.091 684.377 329.491 683.257 323.89 682.136C323.89 685.498 322.77 687.738 322.77 691.1ZM323.89 674.293C330.611 674.293 338.452 674.293 345.172 674.293C350.773 673.173 356.374 673.173 363.095 672.052C350.773 666.45 337.331 665.329 323.89 665.329C323.89 666.45 323.89 668.691 323.89 670.932C323.89 672.052 323.89 673.173 323.89 674.293ZM323.89 657.486H325.01C340.692 657.486 355.254 656.366 375.416 651.884C369.815 649.643 363.095 648.523 355.254 647.402C345.172 646.282 333.971 646.282 322.77 646.282C322.77 650.764 322.77 654.125 323.89 657.486ZM321.65 639.559C325.01 639.559 327.25 639.559 329.491 638.439C350.773 637.318 372.056 635.077 391.098 629.475C389.978 628.355 387.738 628.355 385.497 627.234C379.897 626.114 373.176 624.993 365.335 622.752C350.773 626.114 336.211 627.234 320.529 628.355C321.65 632.836 321.65 636.198 321.65 639.559ZM319.409 621.632C339.572 620.512 359.734 617.15 377.656 613.789C394.458 609.307 410.14 603.705 423.582 594.741C417.981 592.5 412.381 591.38 405.66 591.38C397.819 590.259 388.858 591.38 379.897 592.5C370.936 593.621 360.854 594.741 351.893 596.982C339.572 599.223 327.25 600.343 316.049 602.584C317.169 609.307 318.289 616.03 319.409 621.632ZM302.607 561.128C313.809 555.526 325.01 549.923 336.211 544.321C344.052 540.96 353.013 536.478 360.854 531.996C368.695 527.514 376.536 523.033 383.257 518.551C387.738 514.069 392.218 509.587 395.579 505.105C379.897 505.105 364.215 509.587 347.413 516.31C329.491 523.033 311.568 531.996 293.646 542.08C297.007 548.803 299.247 554.405 302.607 561.128ZM313.809 595.862C326.13 593.621 338.452 591.38 350.773 590.259C379.897 585.778 409.02 580.175 435.904 570.091C457.186 561.128 475.108 546.562 493.031 533.117C499.751 527.514 505.352 521.912 512.073 517.43C504.232 517.43 496.391 516.31 487.43 516.31C465.027 514.069 441.504 512.949 420.222 517.43C391.098 524.153 365.335 537.598 338.452 551.044C327.25 556.646 316.049 562.248 304.848 567.85C308.208 576.814 311.568 586.898 313.809 595.862ZM290.286 536.478C305.968 527.514 321.65 519.671 336.211 512.949C339.572 509.587 342.932 506.226 346.293 502.864C347.413 500.624 348.533 498.383 349.653 496.142C344.052 498.383 338.452 499.503 332.851 502.864C325.01 506.226 317.169 509.587 310.448 514.069C303.727 520.792 295.886 527.514 289.166 533.117C289.166 534.237 290.286 535.357 290.286 536.478ZM95.3819 387.458C96.502 379.615 97.6221 371.772 99.8624 365.049C99.8624 354.965 100.983 346.002 100.983 335.918C100.983 329.195 99.8624 322.472 99.8624 315.75C98.7423 316.87 97.6221 317.99 97.6221 319.111C94.2617 323.593 92.0215 329.195 90.9013 333.677C88.6611 350.483 85.3007 367.29 81.9402 385.217C86.4208 385.217 90.9013 386.338 95.3819 387.458ZM285.805 527.514C293.646 520.792 300.367 514.069 307.088 507.346C312.688 501.744 318.289 495.021 321.65 488.299C314.929 491.66 308.208 493.901 301.487 498.383C293.646 502.864 285.805 507.346 277.964 514.069C280.205 518.551 282.445 523.033 285.805 527.514ZM273.484 508.467L274.604 507.346C284.685 497.262 294.766 488.299 300.367 478.215C295.886 479.335 291.406 481.576 285.805 484.937C279.084 488.299 272.364 492.78 266.763 498.383C269.003 500.624 271.243 505.105 273.484 508.467ZM262.282 491.66C269.003 486.058 275.724 478.215 279.084 469.251C275.724 471.492 272.364 473.733 267.883 475.974C264.523 478.215 260.042 481.576 256.682 484.937C257.802 487.178 260.042 489.419 262.282 491.66ZM251.081 479.335C254.441 475.974 256.682 473.733 258.922 470.371C260.042 467.01 262.282 463.649 263.402 460.287C260.042 461.408 256.682 462.528 254.441 464.769C251.081 465.89 247.721 469.251 244.36 471.492C246.6 473.733 248.841 477.094 251.081 479.335ZM238.759 465.89C241 463.649 243.24 461.408 245.48 458.047C246.6 455.806 247.721 453.565 247.721 451.324C245.48 452.444 243.24 453.565 241 454.685C238.759 456.926 236.519 459.167 234.279 461.408C235.399 462.528 237.639 464.769 238.759 465.89ZM228.678 455.806C230.918 451.324 233.159 446.842 235.399 442.36C233.159 443.481 230.918 444.601 229.798 445.722C227.558 447.962 225.318 449.083 223.078 451.324C224.198 452.444 226.438 454.685 228.678 455.806ZM215.237 444.601C217.477 441.24 218.597 436.758 220.837 432.276C218.597 433.397 217.477 434.517 216.357 434.517C214.116 436.758 211.876 438.999 209.636 440.119C211.876 442.36 214.116 443.481 215.237 444.601ZM201.795 434.517C204.035 430.035 205.155 424.433 205.155 419.951C202.915 421.072 201.795 422.192 199.555 424.433C198.435 425.554 196.194 427.794 195.074 430.035C197.314 431.156 199.555 433.397 201.795 434.517ZM188.353 425.554C189.473 423.313 190.594 419.951 190.594 417.71C191.714 415.469 191.714 412.108 191.714 409.867C189.473 412.108 188.353 413.229 187.233 415.469C184.993 417.71 183.873 418.831 181.632 422.192C183.873 423.313 186.113 424.433 188.353 425.554ZM174.912 417.71C177.152 412.108 179.392 405.385 179.392 398.663C177.152 400.904 174.912 402.024 173.792 404.265C170.431 406.506 168.191 409.867 165.951 413.229C169.311 414.349 172.671 416.59 174.912 417.71ZM159.23 408.747C160.35 405.385 161.47 402.024 162.59 397.542C162.59 394.181 163.71 390.82 163.71 387.458C161.47 389.699 160.35 391.94 158.11 394.181C155.869 397.542 152.509 400.904 150.269 405.385C153.629 406.506 155.869 407.626 159.23 408.747ZM143.548 402.024C146.908 394.181 150.269 386.338 151.389 377.374C148.028 380.736 145.788 384.097 143.548 387.458C140.187 390.82 137.947 395.301 135.707 399.783C139.067 400.904 141.307 400.904 143.548 402.024ZM127.866 396.422C130.106 389.699 131.226 382.976 132.346 376.254C133.467 370.652 133.467 363.929 133.467 358.327C130.106 363.929 126.746 369.531 124.505 375.133C122.265 378.495 121.145 382.976 120.025 387.458C120.025 389.699 118.905 391.94 118.905 393.061C122.265 394.181 125.626 395.301 127.866 396.422ZM112.184 391.94C112.184 389.699 113.304 387.458 113.304 385.217C115.544 378.495 116.664 370.652 117.785 362.808C118.905 356.086 118.905 348.243 118.905 340.399C115.544 346.002 112.184 352.724 108.824 359.447C105.463 368.411 103.223 378.495 102.103 388.579C105.463 389.699 108.824 390.82 112.184 391.94ZM75.2194 384.097C78.5798 362.808 83.0604 342.64 84.1805 323.593C85.3007 305.666 84.1805 288.859 79.7 273.173C76.3395 278.775 74.0993 283.257 71.859 289.979C68.4986 296.702 66.2583 305.666 65.1382 314.629C64.0181 323.593 61.7778 333.677 60.6577 342.64C59.5375 356.086 57.2972 368.411 56.1771 381.856C61.7778 381.856 68.4986 382.976 75.2194 384.097ZM12.4917 381.856C10.2515 368.411 8.0112 354.965 6.89105 342.64C4.65079 333.677 3.53064 323.593 2.41049 314.629C0.170227 305.666 -2.07004 296.702 -5.43045 289.979C-7.67075 283.257 -9.91101 278.775 -13.2714 273.173C-17.752 288.859 -18.8721 305.666 -17.752 323.593C-16.6318 342.64 -12.1513 362.808 -7.67075 382.976C-0.949921 382.976 5.7709 381.856 12.4917 381.856ZM48.3361 380.736C50.5764 367.29 51.6965 354.965 53.9368 341.52C58.4174 312.388 62.8979 283.257 60.6577 254.125C58.4174 231.716 50.5764 210.427 41.6153 189.139C38.2549 181.296 36.0146 173.453 32.6542 165.609C30.4139 173.453 27.0535 181.296 24.8132 189.139C15.8521 210.427 6.89105 231.716 5.7709 254.125C3.53064 283.257 8.0112 312.388 13.6119 341.52C15.8521 354.965 18.0924 367.29 19.2126 380.736C23.6931 380.736 28.1736 380.736 32.6542 380.736C38.2549 380.736 43.8556 380.736 48.3361 380.736ZM-19.9922 358.327C-22.2325 347.122 -25.5929 338.159 -28.9533 329.195C-31.1936 323.593 -33.4339 317.99 -36.7943 314.629C-39.0346 321.352 -40.1547 328.075 -40.1547 334.797C-40.1547 343.761 -40.1547 353.845 -39.0346 362.808C-35.6742 370.652 -33.4339 379.615 -31.1936 387.458C-25.5929 386.338 -19.9922 385.217 -14.3915 384.097C-16.6318 375.133 -18.8721 367.29 -19.9922 358.327ZM-37.9144 389.699C-40.1547 380.736 -42.395 372.892 -45.7554 365.049C-49.1158 358.327 -53.5963 351.604 -59.1971 347.122C-59.1971 354.965 -58.0769 362.808 -56.9568 370.652C-54.7165 377.374 -52.4762 385.217 -49.1158 391.94C-45.7554 391.94 -41.2748 390.82 -37.9144 389.699ZM-55.8366 394.181C-59.1971 389.699 -62.5575 384.097 -65.9179 379.615C-69.2783 375.133 -72.6387 371.772 -77.1192 368.411C-77.1192 372.892 -75.9991 378.495 -74.879 382.976C-73.7588 388.579 -71.5186 394.181 -69.2783 398.663C-64.7977 397.542 -60.3172 396.422 -55.8366 394.181ZM-75.9991 402.024V400.904C-80.4796 395.301 -84.9602 388.579 -90.5609 382.976C-90.5609 386.338 -89.4407 389.699 -89.4407 393.061C-88.3206 397.542 -87.2005 400.904 -84.9602 405.385C-81.5998 404.265 -79.3595 403.145 -75.9991 402.024ZM-91.681 408.747C-93.9213 405.385 -96.1616 403.145 -98.4018 399.783C-100.642 397.542 -102.882 395.301 -105.123 393.061C-105.123 396.422 -104.003 399.783 -104.003 403.145C-102.882 406.506 -101.762 409.867 -99.522 413.229C-97.2817 410.988 -93.9213 409.867 -91.681 408.747ZM-106.243 416.59C-108.483 412.108 -111.843 407.626 -116.324 404.265C-115.204 407.626 -115.204 409.867 -114.084 412.108C-112.964 414.349 -112.964 416.59 -111.843 418.831C-109.603 417.71 -107.363 416.59 -106.243 416.59ZM-118.564 423.313C-121.925 419.951 -125.285 415.469 -128.646 413.229C-127.525 418.831 -125.285 423.313 -124.165 426.674C-121.925 425.554 -120.805 424.433 -118.564 423.313ZM-129.766 431.156C-133.126 426.674 -137.607 421.072 -142.087 418.831C-142.087 421.072 -142.087 423.313 -140.967 425.554C-139.847 428.915 -137.607 432.276 -135.366 434.517C-133.126 433.397 -132.006 432.276 -129.766 431.156ZM-142.087 438.999C-144.327 437.878 -146.568 435.638 -147.688 434.517C-148.808 433.397 -151.048 432.276 -152.168 431.156C-151.048 433.397 -151.048 435.638 -151.048 436.758C-149.928 438.999 -148.808 442.36 -147.688 444.601C-146.568 442.36 -144.327 441.24 -142.087 438.999ZM-154.409 449.083C-156.649 447.962 -158.889 445.722 -161.13 444.601C-163.37 442.36 -165.61 441.24 -167.85 440.119C-166.73 442.36 -165.61 444.601 -164.49 446.842C-163.37 450.203 -161.13 452.444 -160.009 453.565C-157.769 452.444 -156.649 451.324 -154.409 449.083ZM-165.61 459.167C-167.85 458.047 -170.091 455.806 -173.451 453.565C-175.691 452.444 -177.932 451.324 -180.172 450.203C-179.052 453.565 -177.932 455.806 -176.811 458.047C-174.571 460.287 -173.451 462.528 -171.211 464.769C-170.091 463.649 -167.85 461.408 -165.61 459.167ZM-176.811 470.371C-180.172 468.131 -183.532 465.89 -186.893 463.649C-189.133 461.408 -191.373 460.287 -193.613 459.167C-192.493 462.528 -191.373 465.89 -189.133 468.131C-186.893 471.492 -184.652 473.733 -182.412 477.094C-180.172 474.853 -179.052 472.612 -176.811 470.371ZM-188.013 482.696C-191.373 479.335 -195.854 475.974 -200.334 473.733C-203.695 471.492 -207.055 470.371 -211.536 469.251C-209.295 472.612 -207.055 474.853 -204.815 478.215C-201.454 482.696 -198.094 486.058 -193.613 489.419C-191.373 487.178 -189.133 484.937 -188.013 482.696ZM-198.094 496.142C-204.815 491.66 -210.416 487.178 -216.016 483.817C-220.497 481.576 -224.977 479.335 -229.458 477.094C-226.097 482.696 -222.737 487.178 -219.377 490.54C-214.896 496.142 -210.416 500.624 -204.815 505.105C-202.575 501.744 -200.334 498.383 -198.094 496.142ZM-209.295 510.708H-210.416C-224.977 501.744 -239.539 493.901 -254.101 487.178C-252.981 489.419 -251.861 491.66 -249.62 493.901C-246.26 498.383 -242.9 501.744 -237.299 506.226C-229.458 510.708 -222.737 515.189 -214.896 519.671C-212.656 517.43 -211.536 514.069 -209.295 510.708ZM-218.257 526.394C-228.338 519.671 -239.539 512.949 -249.62 508.467C-259.702 502.864 -270.903 499.503 -280.984 496.142C-279.864 498.383 -278.744 499.503 -277.624 501.744C-274.263 505.105 -270.903 509.587 -267.543 512.949C-252.981 519.671 -238.419 527.514 -223.857 535.357C-221.617 531.996 -220.497 528.635 -218.257 526.394ZM-227.218 542.08C-246.26 530.876 -264.182 521.912 -282.104 514.069C-298.906 507.346 -314.588 503.985 -331.39 503.985C-326.91 508.467 -322.429 512.949 -317.949 516.31C-311.228 521.912 -304.507 526.394 -295.546 530.876C-287.705 534.237 -278.744 538.719 -270.903 543.201C-258.581 548.803 -247.38 554.405 -235.059 560.007C-232.818 554.405 -229.458 547.682 -227.218 542.08ZM-314.588 590.259C-323.549 589.139 -332.51 589.139 -340.351 589.139C-347.072 590.259 -352.673 591.38 -358.274 592.5C-345.952 601.464 -330.27 607.066 -312.348 611.548C-294.426 616.03 -274.263 618.271 -252.981 620.512C-251.861 613.789 -250.74 608.187 -248.5 601.464C-261.942 599.223 -274.263 596.982 -286.585 594.741C-295.546 593.621 -305.627 592.5 -314.588 590.259ZM-254.101 627.234C-273.143 624.993 -292.186 622.752 -310.108 619.391C-313.468 619.391 -317.949 619.391 -321.309 620.512C-322.429 621.632 -324.67 621.632 -325.79 622.752C-305.627 629.475 -287.705 629.475 -270.903 630.596C-265.302 630.596 -259.702 630.596 -254.101 630.596C-254.101 629.475 -254.101 628.355 -254.101 627.234ZM-238.419 566.73C-249.62 561.128 -261.942 555.526 -274.263 548.803C-300.027 535.357 -326.91 521.912 -354.913 515.189C-376.196 510.708 -399.719 511.828 -422.121 514.069C-431.083 515.189 -438.924 515.189 -446.764 515.189C-440.044 520.792 -434.443 525.273 -427.722 530.876C-409.8 545.441 -391.878 560.007 -370.595 567.85C-343.712 579.055 -314.588 583.537 -285.465 588.019C-273.143 590.259 -259.702 592.5 -247.38 594.741C-244.02 585.778 -241.779 575.694 -238.419 566.73ZM-257.461 655.245C-265.302 656.366 -273.143 656.366 -280.984 656.366C-284.345 657.486 -288.825 658.607 -292.186 659.727C-294.426 659.727 -295.546 660.848 -296.666 661.968C-291.065 664.209 -284.345 665.329 -277.624 666.45C-270.903 667.57 -264.182 667.57 -257.461 667.57C-257.461 664.209 -257.461 659.727 -257.461 655.245ZM-255.221 637.318C-265.302 637.318 -275.383 638.439 -285.465 639.559C-293.306 639.559 -301.147 641.8 -308.988 642.921C-301.147 646.282 -293.306 648.523 -285.465 648.523C-275.383 649.643 -266.422 649.643 -256.341 648.523C-256.341 645.161 -256.341 641.8 -255.221 637.318ZM-202.575 938.719C-195.854 931.996 -189.133 926.394 -181.292 919.671C-172.331 910.708 -163.37 902.865 -154.409 893.901C-160.009 889.419 -164.49 884.937 -168.97 879.335C-184.652 892.781 -200.334 906.226 -212.656 919.671C-224.977 933.117 -233.938 947.682 -239.539 962.248C-233.938 960.007 -228.338 957.767 -223.857 954.405C-216.016 949.923 -209.295 945.442 -202.575 938.719ZM-174.571 874.853C-176.811 871.492 -179.052 869.251 -182.412 867.01C-192.493 875.974 -202.575 884.937 -212.656 893.901C-220.497 901.744 -228.338 910.708 -235.059 920.792C-232.818 919.671 -230.578 919.671 -228.338 918.551C-223.857 917.43 -219.377 915.19 -214.896 911.828C-202.575 899.503 -189.133 887.178 -174.571 874.853ZM-186.893 861.408C-188.013 859.167 -190.253 856.926 -191.373 855.806C-193.613 856.926 -195.854 858.047 -198.094 860.288C-204.815 864.769 -210.416 870.372 -216.016 875.974C-221.617 881.576 -227.218 888.299 -231.698 895.021C-230.578 893.901 -228.338 893.901 -227.218 893.901C-223.857 892.781 -219.377 890.54 -216.016 888.299C-207.055 879.335 -196.974 870.372 -186.893 861.408ZM-195.854 850.203C-198.094 846.842 -200.334 843.481 -202.575 841.24C-209.295 845.722 -214.896 850.203 -219.377 854.685C-223.857 859.167 -227.218 863.649 -230.578 868.131C-224.977 867.01 -220.497 864.769 -214.896 861.408C-210.416 860.288 -205.935 856.926 -202.575 854.685C-200.334 852.444 -198.094 851.324 -195.854 850.203ZM-207.055 835.638C-209.295 832.276 -210.416 828.915 -212.656 825.554C-213.776 826.674 -214.896 826.674 -214.896 827.794C-219.377 830.035 -223.857 833.397 -227.218 836.758C-230.578 840.119 -233.938 844.601 -236.179 847.963C-231.698 846.842 -227.218 845.722 -222.737 843.481C-217.136 841.24 -211.536 838.999 -207.055 835.638ZM-216.016 819.951C-218.257 817.711 -219.377 815.47 -220.497 813.229C-224.977 815.47 -228.338 817.711 -231.698 819.951C-233.938 823.313 -236.179 825.554 -238.419 827.794C-235.059 827.794 -231.698 826.674 -228.338 825.554C-224.977 824.433 -222.737 823.313 -219.377 821.072C-218.257 821.072 -217.136 819.951 -216.016 819.951ZM-223.857 806.506C-226.097 802.024 -228.338 798.663 -229.458 794.181C-232.818 796.422 -236.179 798.663 -238.419 802.024C-240.659 804.265 -242.9 806.506 -245.14 808.747C-240.659 808.747 -237.299 808.747 -233.938 807.626C-230.578 807.626 -227.218 806.506 -223.857 806.506ZM-232.818 787.458C-233.938 785.217 -235.059 781.856 -236.179 779.615C-239.539 780.736 -241.779 782.977 -244.02 784.097C-246.26 786.338 -247.38 787.458 -248.5 789.699C-246.26 789.699 -244.02 788.579 -240.659 788.579C-238.419 788.579 -236.179 788.579 -232.818 787.458ZM-239.539 771.772C-240.659 768.411 -241.779 765.049 -242.9 761.688C-245.14 762.809 -247.38 763.929 -248.5 766.17C-250.74 767.29 -252.981 769.531 -254.101 771.772C-251.861 772.893 -249.62 772.893 -247.38 772.893C-244.02 772.893 -241.779 772.893 -239.539 771.772ZM-245.14 753.845C-246.26 751.604 -247.38 748.243 -247.38 744.881C-249.62 746.002 -251.861 747.122 -254.101 748.243C-256.341 750.484 -258.581 751.604 -259.702 752.724C-257.461 753.845 -255.221 754.965 -251.861 754.965C-249.62 754.965 -247.38 754.965 -245.14 753.845ZM-249.62 738.159C-250.74 734.797 -250.74 731.436 -251.861 729.195C-254.101 730.315 -257.461 731.436 -259.702 732.556C-261.942 734.797 -264.182 735.918 -265.302 737.038C-263.062 738.159 -260.822 738.159 -258.581 738.159C-255.221 739.279 -252.981 738.159 -249.62 738.159ZM-252.981 721.352C-254.101 717.991 -254.101 715.75 -254.101 712.388C-257.461 713.509 -259.702 715.75 -263.062 716.87C-265.302 717.991 -267.543 719.111 -269.783 721.352C-266.422 721.352 -264.182 721.352 -261.942 721.352C-258.581 721.352 -256.341 721.352 -252.981 721.352ZM-255.221 704.545C-256.341 701.184 -256.341 697.823 -256.341 694.461C-260.822 695.582 -264.182 696.702 -267.543 697.823C-269.783 698.943 -273.143 700.063 -275.383 701.184C-272.023 702.304 -269.783 702.304 -266.422 703.425C-263.062 703.425 -258.581 704.545 -255.221 704.545ZM-257.461 686.618C-257.461 682.136 -257.461 678.775 -257.461 675.414C-263.062 676.534 -267.543 677.654 -273.143 678.775C-276.504 678.775 -280.984 681.016 -284.345 682.136C-280.984 683.257 -276.504 684.377 -272.023 685.498C-267.543 685.498 -261.942 686.618 -257.461 686.618ZM232.039 472.612C180.512 422.192 111.064 390.82 32.6542 390.82C-44.6353 390.82 -114.084 422.192 -165.61 472.612C-216.016 523.033 -247.38 593.621 -247.38 670.932C-247.38 749.363 -216.016 818.831 -165.61 870.372C-114.084 920.792 -44.6353 952.164 32.6542 952.164C111.064 952.164 180.512 920.792 232.039 870.372C282.445 818.831 313.809 749.363 313.809 670.932C313.809 593.621 282.445 523.033 232.039 472.612Z" fill="white"/>
<path fill-rule="evenodd" clip-rule="evenodd" d="M32.5358 450.631C154.71 450.631 253.345 550.269 253.345 671.178C253.345 793.206 154.71 891.725 32.5358 891.725C-88.517 891.725 -187.153 793.206 -187.153 671.178C-187.153 550.269 -88.517 450.631 32.5358 450.631ZM32.5358 546.91C102.029 546.91 158.072 602.887 158.072 671.178C158.072 740.589 102.029 796.565 32.5358 796.565C-35.8366 796.565 -91.8796 740.589 -91.8796 671.178C-91.8796 602.887 -35.8366 546.91 32.5358 546.91ZM43.7444 473.021L47.107 470.782L50.4696 469.663L54.953 467.424H59.4365L63.9199 466.304H68.4033L74.0076 467.424H79.6119L85.2162 468.543L90.8205 470.782L96.4248 473.021L102.029 475.26L106.513 477.5L112.117 479.739L116.6 483.097L121.084 486.456L125.567 489.814L130.051 493.173L133.413 496.532L135.655 499.89L137.897 503.249L140.138 506.607V511.085L141.259 514.444L140.138 517.803L139.018 520.042L137.897 523.4L110.996 560.345L108.754 559.225L106.513 556.986L104.271 555.866L99.7874 552.508L94.1831 549.149L88.5788 546.91C85.2162 545.791 81.8537 544.671 79.6119 543.552C76.2494 542.432 72.8868 541.313 70.6451 540.193C67.2825 539.074 63.9199 539.074 61.6782 537.954L56.0739 536.835C52.7113 535.715 50.4696 535.715 48.2279 535.715L42.6236 534.595H41.5027H39.261H37.0193L35.8984 535.715L34.7775 494.292L35.8984 488.695L37.0193 484.217L38.1401 479.739L40.3818 476.38L43.7444 473.021ZM158.072 517.803H162.556H165.918L170.402 518.922L174.885 521.161L178.248 523.4L182.731 526.759L186.094 530.117L190.577 534.595L193.94 537.954L197.302 542.432L200.665 548.03L204.027 552.508L207.39 558.106L209.632 562.584L211.873 568.181L214.115 573.779L215.236 578.257L216.357 583.855L217.478 588.333V592.811L216.357 597.289V600.648L215.236 604.006L212.994 607.365L210.753 609.604L208.511 611.843L204.027 612.962L161.435 627.516V625.277L160.314 621.919L158.072 617.441L155.83 611.843L152.468 606.245L149.105 600.648C147.984 597.289 145.743 595.05 144.622 592.811C142.38 589.452 140.138 587.213 139.018 584.974C136.776 582.735 134.534 580.496 132.292 577.138L128.93 573.779L125.567 570.42C122.205 567.062 118.842 564.823 115.479 562.584L139.018 528.998L142.38 524.52L146.864 522.281L150.226 518.922L154.71 517.803H158.072ZM225.324 619.68L228.686 623.038L230.928 625.277L233.17 628.636L235.411 633.114L237.653 637.592L238.774 642.07L241.016 647.668V653.265L242.137 658.863V664.461V670.058V675.656L241.016 681.254L239.895 687.971L238.774 693.568L236.532 698.047L235.411 703.644L233.17 708.122L230.928 712.6L228.686 715.959L225.324 719.318L223.082 721.557L219.719 723.796L216.357 724.915L212.994 726.035H209.632L206.269 724.915L163.676 711.481V709.242L164.797 707.003L165.918 703.644L167.039 698.047L168.16 692.449L169.281 685.732C169.281 682.373 169.281 679.015 169.281 675.656C169.281 672.297 169.281 670.058 169.281 666.7C169.281 663.341 169.281 659.983 169.281 656.624L168.16 651.026V645.429C167.039 640.951 165.918 636.472 163.676 631.994L202.907 618.56L208.511 617.441H212.994H217.478L220.84 618.56L225.324 619.68ZM218.599 742.828L219.719 746.186L220.84 750.664V755.142L219.719 759.621L218.599 764.099L217.478 768.577L215.236 774.174L212.994 778.652L209.632 783.131L206.269 788.728L202.907 793.206L199.544 797.684L195.061 802.163L190.577 805.521L187.214 809.999L182.731 813.358L178.248 815.597L173.764 818.956L169.281 820.075L164.797 822.314L160.314 823.434H156.951H153.589L150.226 822.314L146.864 821.195L143.501 818.956L141.259 816.716L115.479 779.772L116.6 778.652L118.842 777.533L123.325 773.055L127.809 769.696L132.292 765.218C134.534 762.979 136.776 759.621 139.018 757.381C141.259 755.142 142.38 752.903 144.622 749.545C146.864 747.306 147.984 745.067 150.226 742.828C151.347 739.469 153.589 737.23 154.71 734.991L156.951 730.513C159.193 726.035 161.435 721.557 161.435 715.959L201.786 728.274L206.269 730.513L210.753 732.752L214.115 736.11L216.357 739.469L218.599 742.828ZM141.259 837.987L140.138 841.346L137.897 845.824L135.655 849.183L132.292 852.541L128.93 855.9L124.446 858.139L119.963 861.498L115.479 863.737L109.875 865.976L104.271 868.215L98.6666 869.334L93.0623 871.573L87.4579 872.693H81.8537L76.2494 873.812H70.6451H65.0408L60.5573 872.693L54.953 871.573L50.4696 870.454L47.107 869.334L43.7444 867.095L40.3818 864.856L38.1401 862.617L37.0193 859.259L35.8984 855.9V852.541V807.76H38.1401H40.3818H45.9861L52.7113 806.641L58.3156 805.521C61.6782 804.402 65.0408 804.402 68.4033 803.282C70.6451 802.163 74.0076 801.043 77.3702 801.043C80.7328 799.924 82.9745 798.804 86.3371 797.684C88.5788 796.565 91.9414 795.445 94.1831 794.326L98.6666 792.087C103.15 789.848 107.633 787.609 110.996 783.131L135.655 816.716L139.018 821.195L140.138 825.673L141.259 830.151L142.38 834.629L141.259 837.987ZM22.4481 869.334L19.0855 872.693L15.7229 873.812L11.2395 874.932L6.75604 876.051L2.27261 877.171H-2.21083L-7.81512 876.051L-13.4194 874.932L-19.0237 873.812L-24.628 872.693L-30.2323 870.454L-35.8366 868.215L-40.3201 865.976L-45.9244 862.617L-50.4078 860.378L-56.0121 857.019L-59.3747 853.661L-63.8581 850.302L-67.2207 846.944L-69.4624 843.585L-71.7041 839.107L-73.9459 835.748V832.39L-75.0667 829.031L-73.9459 825.673L-72.825 822.314L-71.7041 818.956L-44.8035 783.131L-42.5618 784.25L-40.3201 786.489L-38.0784 787.609L-33.5949 790.967L-27.9906 793.206L-22.3863 796.565L-16.782 798.804C-13.4194 799.924 -10.0569 801.043 -6.69427 802.163C-4.45255 803.282 -1.08997 803.282 2.27261 804.402L7.87691 806.641C10.1186 806.641 13.4812 806.641 15.7229 807.76C20.2064 807.76 25.8107 808.88 30.2941 807.76L31.415 849.183L30.2941 854.78L29.1732 859.259L28.0524 863.737L25.8107 867.095L22.4481 869.334ZM-91.8796 825.673H-96.3631H-99.7256L-104.209 823.434L-108.693 822.314L-112.055 818.956L-116.539 816.716L-121.022 813.358L-124.385 808.88L-127.747 804.402L-132.231 799.924L-135.593 795.445L-137.835 790.967L-141.197 785.37L-143.439 779.772L-145.681 775.294L-147.923 769.696L-149.043 764.099L-150.164 759.621L-151.285 755.142V750.664L-150.164 746.186V741.708L-149.043 738.35L-146.802 736.11L-144.56 732.752L-142.318 731.632L-137.835 729.393L-95.2422 715.959V718.198L-94.1213 720.437L-91.8796 726.035L-89.6379 731.632L-86.2753 737.23L-82.9127 742.828C-81.7919 745.067 -79.5502 748.425 -78.4293 750.664C-76.1876 752.903 -73.9459 756.262 -72.825 758.501L-68.3416 762.979C-66.0998 765.218 -64.979 767.457 -62.7373 769.696L-59.3747 773.055L-56.0121 776.413L-53.7704 777.533L-52.6495 778.652L-50.4078 779.772H-49.2869L-72.825 814.477L-76.1876 817.836L-80.671 821.195L-84.0336 823.434L-88.517 825.673H-91.8796ZM-159.131 722.676L-162.494 720.437L-164.736 718.198L-166.977 713.72L-169.219 710.361L-171.461 705.883L-173.702 701.405L-174.823 695.807V690.21L-175.944 684.612V679.015V673.417V666.7L-174.823 661.102L-173.702 655.504L-172.582 649.907L-170.34 644.309L-169.219 639.831L-166.977 635.353L-164.736 630.875L-162.494 627.516L-159.131 624.158L-156.889 620.799L-153.527 619.68L-150.164 617.441H-146.802H-143.439H-140.077L-97.4839 631.994V634.233L-98.6048 636.472L-99.7256 639.831L-100.847 645.429L-101.967 651.026L-103.088 657.743C-103.088 661.102 -103.088 664.461 -103.088 666.7V673.417V680.134C-103.088 683.493 -103.088 685.732 -103.088 689.09L-101.967 694.688L-100.847 700.286L-99.7256 704.764V705.883L-98.6048 708.122V710.361H-97.4839L-136.714 724.915L-142.318 726.035H-146.802H-151.285L-155.769 724.915L-159.131 722.676ZM-153.527 596.169L-154.648 592.811V588.333L-153.527 583.855L-152.406 579.377L-151.285 573.779L-149.043 569.301L-146.802 564.823L-143.439 559.225L-140.077 554.747L-136.714 550.269L-133.351 545.791L-128.868 541.313L-124.385 536.835L-121.022 533.476L-116.539 530.117L-112.055 526.759L-107.572 524.52L-103.088 522.281L-98.6048 521.161L-94.1213 520.042L-90.7588 518.922L-87.3962 520.042H-84.0336L-80.671 522.281L-77.3084 523.4L-75.0667 526.759L-49.2869 562.584L-50.4078 564.823L-52.6495 565.942L-54.8913 568.181L-59.3747 571.54L-63.8581 576.018L-67.2207 580.496C-69.4624 583.855 -71.7041 586.094 -73.9459 588.333C-75.0667 590.572 -77.3084 593.93 -78.4293 596.169C-80.671 598.409 -81.7919 601.767 -84.0336 604.006C-85.1545 606.245 -86.2753 608.484 -88.517 611.843C-89.6379 614.082 -90.7588 616.321 -91.8796 618.56L-93.0005 621.919C-94.1213 624.158 -94.1213 625.277 -95.2422 627.516L-135.593 615.201L-140.077 612.962L-144.56 609.604L-147.923 607.365L-150.164 604.006L-152.406 600.648L-153.527 596.169ZM-75.0667 505.488L-73.9459 501.01L-71.7041 497.651L-69.4624 494.292L-66.0998 490.934L-62.7373 487.575L-58.2538 484.217L-53.7704 481.978L-49.2869 479.739L-43.6826 477.5L-38.0784 475.26L-32.474 473.021L-26.8698 471.902L-21.2655 470.782L-15.6611 469.663H-10.0569H-4.45255H1.15175L5.63519 470.782H11.2395L15.7229 471.902L19.0855 474.141L22.4481 476.38L25.8107 478.619L28.0524 480.858L29.1732 483.097L30.2941 486.456V490.934V535.715H28.0524H25.8107H20.2064L13.4812 536.835L7.87691 537.954C4.51433 537.954 1.15175 539.074 -2.21083 540.193C-4.45255 540.193 -7.81512 541.313 -11.1777 542.432C-14.5403 543.552 -16.782 544.671 -20.1446 545.791L-25.7489 548.03C-27.9906 549.149 -30.2323 550.269 -32.474 551.388C-36.9575 553.627 -41.4409 555.866 -44.8035 559.225L-69.4624 526.759L-72.825 522.281L-75.0667 517.803V513.324L-76.1876 508.846L-75.0667 505.488Z" fill="white"/>
<path d="M-43.8096 540.042C-44.9323 538.916 -44.9323 537.79 -46.0549 536.665C-49.4229 533.287 -51.6682 528.785 -52.7909 524.282C-56.1589 516.402 -55.0362 509.648 -51.6682 504.02C-47.1776 497.266 -40.4416 492.763 -32.583 489.386C-31.4604 489.386 -29.2151 488.26 -28.0924 488.26C-20.2338 486.009 -13.4978 486.009 -7.88454 487.134C-1.14858 489.386 3.34205 493.889 6.71003 500.643C6.71003 501.768 6.71003 502.894 6.71003 502.894C7.83269 507.397 8.95535 511.899 8.95535 516.402C8.95535 518.654 8.95535 520.905 8.95535 522.031L-0.0259247 523.156C-0.0259247 520.905 -0.0259247 519.779 -0.0259247 517.528C-1.14858 514.151 -1.14858 511.899 -1.14858 509.648C-9.00719 510.774 -15.7431 513.025 -22.4791 515.277C-29.2151 518.654 -35.951 520.905 -42.687 525.408C-41.5643 526.533 -40.4416 528.785 -39.319 531.036C-38.1963 532.162 -37.0737 533.287 -35.951 535.539L-43.8096 540.042ZM-42.687 508.522C-44.9323 510.774 -44.9323 513.025 -44.9323 516.402C-39.319 513.025 -32.583 509.648 -25.8471 507.397C-19.1111 504.02 -11.2525 501.768 -4.51656 500.643C-5.63922 498.391 -7.88454 497.266 -10.1299 496.14C-14.6205 495.014 -19.1111 495.014 -25.8471 497.266C-26.9697 497.266 -28.0924 498.391 -30.3377 498.391C-35.951 500.643 -40.4416 504.02 -42.687 508.522Z" fill="white"/>
<path d="M117.44 504.332C117.44 509.887 117.44 516.552 116.327 522.106C115.214 527.66 112.987 532.104 109.646 537.658L101.853 532.104C104.079 528.771 105.193 525.439 106.306 522.106C100.739 518.774 94.0586 516.552 87.3781 514.33C80.6976 513.219 75.1305 512.108 68.45 510.998C67.3366 514.33 67.3366 517.663 67.3366 520.995L58.4292 522.106C58.4292 515.441 58.4292 509.887 60.656 504.332C62.8829 498.778 66.2231 493.224 70.6768 488.78L77.3573 494.335C75.1305 497.667 72.9037 499.889 71.7902 502.111C77.3573 503.221 84.0378 504.332 89.6049 505.443C96.2855 507.665 101.853 509.887 108.533 513.219C108.533 510.998 108.533 507.665 107.42 505.443L117.44 504.332Z" fill="white"/>
<path d="M136.515 563.475C137.635 557.871 140.997 552.267 144.359 548.905C148.842 544.422 154.445 541.059 158.928 541.059C164.532 539.939 169.014 541.059 172.376 544.422C176.859 547.784 180.221 552.267 181.342 556.75C181.342 558.992 181.342 561.233 180.221 563.475C182.462 564.596 184.704 564.596 185.824 565.717H186.945C191.428 567.958 193.669 571.32 194.79 575.804C195.91 580.287 195.91 584.77 193.669 588.132C193.669 589.253 193.669 589.253 193.669 589.253C191.428 594.857 185.824 598.219 181.342 600.461C175.738 602.702 169.014 603.823 163.411 603.823L164.532 594.857C169.014 594.857 173.497 593.736 176.859 592.615C180.221 590.374 183.583 588.132 185.824 584.77C186.945 582.528 186.945 580.287 185.824 578.045C185.824 576.924 184.704 574.683 182.462 573.562C181.342 573.562 180.221 573.562 179.1 572.441C176.859 572.441 174.618 572.441 173.497 572.441L165.652 573.562L169.014 566.837C169.014 565.717 169.014 564.596 170.135 563.475C171.256 561.233 172.376 560.113 172.376 558.992C171.256 556.75 170.135 553.388 166.773 552.267C165.652 550.026 163.411 548.905 161.17 550.026C157.807 550.026 154.445 552.267 151.083 554.509C148.842 557.871 146.601 561.233 145.48 565.717L136.515 563.475Z" fill="white"/>
<path d="M182.412 643.323H183.543C191.461 641.096 202.771 639.982 210.688 644.437C216.343 647.778 219.736 651.118 221.998 655.573C225.391 661.141 226.522 665.596 226.522 671.164C226.522 676.732 225.391 682.301 223.129 687.869C220.867 692.324 217.474 695.665 211.819 699.006C205.033 703.46 193.723 701.233 185.806 699.006C184.674 699.006 183.543 699.006 182.412 699.006L184.674 690.096C184.674 690.096 185.806 690.096 186.937 690.096C189.199 691.21 190.33 691.21 192.592 691.21C193.723 684.528 193.723 677.846 193.723 671.164C193.723 664.482 193.723 657.8 193.723 651.118C190.33 651.118 188.068 652.232 184.674 652.232L182.412 643.323ZM206.164 652.232C205.033 652.232 203.902 651.118 202.771 651.118C203.902 657.8 203.902 664.482 202.771 671.164C202.771 678.96 202.771 685.642 201.64 692.324C203.902 692.324 206.164 692.324 207.295 691.21C210.688 688.983 212.95 686.755 214.081 683.414C216.343 680.073 217.474 675.619 217.474 671.164C217.474 667.823 216.343 663.369 214.081 660.028C212.95 656.687 209.557 654.459 206.164 652.232Z" fill="white"/>
<path d="M164.863 740.765C169.339 744.112 174.934 746.344 179.41 748.575C183.886 751.922 188.362 754.153 193.957 757.5L197.314 759.731L195.076 763.078L193.957 766.425C185.005 782.044 170.458 807.704 150.316 797.663C135.769 789.854 138.007 777.582 144.721 765.31C146.959 759.731 150.316 755.269 153.673 750.806C155.911 747.459 157.03 745.228 158.149 742.997L160.387 738.534L164.863 740.765ZM174.934 757.5C171.577 755.269 168.22 753.038 163.744 750.806C162.625 753.038 162.625 754.153 161.506 755.269C158.149 759.731 154.792 764.194 152.554 769.772C148.078 777.582 146.959 785.391 154.792 789.854C165.982 795.432 178.291 775.35 185.005 763.078C181.648 760.847 178.291 758.616 174.934 757.5Z" fill="white"/>
<path d="M66.1973 819.007C66.1973 822.346 66.1973 825.684 67.3173 829.023C72.9173 829.023 79.6372 826.797 86.3572 824.572C93.0772 822.346 99.7972 820.12 107.637 815.669C105.397 813.443 104.277 811.217 102.037 808.991L108.757 802.314C113.237 806.765 116.597 812.33 118.837 819.007C119.957 823.459 121.077 827.91 119.957 832.362C118.837 837.926 116.597 842.378 112.117 845.716C108.757 849.055 104.277 851.281 97.5572 853.506C78.5172 859.071 68.4373 854.619 62.8373 845.716C57.2373 837.926 57.2373 826.797 57.2373 817.894L66.1973 819.007ZM69.5573 837.926C69.5573 839.039 69.5573 840.152 70.6773 841.265C74.0373 846.829 80.7572 849.055 95.3172 844.603C99.7972 843.49 103.157 841.265 106.517 839.039C108.757 836.813 109.877 833.475 110.997 831.249C110.997 829.023 110.997 826.797 110.997 824.572C103.157 829.023 96.4372 831.249 88.5972 833.475C81.8772 835.7 75.1573 837.926 69.5573 837.926Z" fill="white"/>
<path d="M-36.9287 836.94C-36.9287 836.94 -35.8151 838.059 -34.7015 839.178C-30.2472 843.653 -25.7929 845.891 -20.225 847.01C-15.7706 847.01 -10.2027 845.891 -5.74841 841.415C-5.74841 840.297 -4.63483 840.297 -4.63483 840.297C-3.52124 839.178 -3.52124 839.178 -3.52124 838.059C-2.40766 836.94 -1.29408 833.583 -2.40766 831.346C-2.40766 827.989 -4.63483 825.751 -7.97557 822.395C-9.08916 821.276 -11.3163 819.038 -13.5435 817.919C-20.225 813.443 -24.6793 812.325 -29.1336 813.443C-32.4744 814.562 -35.8151 816.8 -40.2695 820.157C-36.9287 822.395 -33.588 823.513 -31.3608 825.751C-26.9065 826.87 -22.4521 829.108 -16.8842 829.108L-19.1114 838.059C-24.6793 838.059 -30.2472 835.821 -34.7015 833.583C-40.2695 831.346 -44.7238 827.989 -49.1781 824.632L-53.6324 822.395L-50.2917 817.919C-43.6102 811.206 -38.0423 805.611 -31.3608 804.492C-24.6793 803.374 -16.8842 804.492 -7.97557 810.087C-5.74841 812.325 -3.52124 813.443 -1.29408 815.681C3.16025 820.157 5.38741 824.632 6.501 829.108C7.61458 834.702 7.61458 839.178 4.27383 843.653C4.27383 844.772 3.16025 844.772 2.04667 845.891C2.04667 847.01 0.933083 847.01 0.933083 848.129C-5.74841 853.723 -13.5435 855.961 -21.3386 855.961C-28.0201 854.842 -35.8151 851.485 -41.383 845.891C-42.4966 844.772 -43.6102 843.653 -43.6102 842.534L-36.9287 836.94Z" fill="white"/>
</svg>
