<svg width="767" height="214" viewBox="0 0 767 214" fill="none" xmlns="http://www.w3.org/2000/svg">
<path fill-rule="evenodd" clip-rule="evenodd" d="M83.4461 154.042L78.621 155.179C77.7695 155.179 76.918 155.747 76.3504 156.315C75.7827 157.168 75.4989 157.736 75.4989 158.588V163.703V176.491V184.731C75.4989 185.584 75.2151 186.152 74.3636 186.436C70.6738 188.994 66.4163 190.983 61.5912 192.12C56.4823 192.972 51.941 193.825 47.6835 194.109C43.1422 194.109 40.8716 194.393 40.8716 194.109C35.7626 194.109 30.3699 192.972 25.5447 190.983C20.4358 188.994 15.8945 186.152 11.9209 182.174C7.94725 178.48 5.10895 173.933 3.12213 168.818C1.13532 163.988 0 158.588 0 153.474C0 147.79 1.13532 142.675 3.12213 137.276C5.39278 132.161 8.51491 127.615 12.4885 123.352C16.746 119.374 21.2873 116.248 26.6801 114.259C31.789 112.27 37.4656 111.133 43.1422 111.133C47.9673 111.133 53.3601 111.702 59.0367 112.554C64.9972 113.691 70.1061 115.68 74.3636 118.522C75.2151 119.09 75.4989 119.658 75.4989 120.795V137.845H73.2282L72.6606 135.855C72.0929 132.446 70.6738 129.32 68.9708 126.478L68.1193 125.626C65.281 122.5 61.875 119.942 57.9014 118.237C54.2116 116.248 49.9542 115.396 45.6967 115.396C39.7363 115.396 34.0597 117.101 28.383 120.511C22.7064 123.921 18.1651 128.467 14.7592 134.15C11.0694 139.834 9.3664 146.085 9.3664 152.621C9.3664 159.157 11.0694 165.408 14.7592 171.092C18.1651 176.775 22.7064 181.322 28.383 184.731C34.0597 188.141 39.7363 189.846 45.6967 189.846C51.941 189.846 57.6176 187.857 62.7265 184.447L63.0104 184.163C63.0104 184.163 63.2942 183.879 63.8618 183.311C65.281 181.606 66.1325 179.901 66.1325 177.627V158.588C66.1325 157.736 65.8487 157.168 65.281 156.315C64.7133 155.747 63.8618 155.179 63.0104 155.179L57.9014 154.042V152.621H83.4461V154.042ZM155.539 190.415V191.836H131.413V190.415L133.684 189.846C134.536 189.846 135.387 189.278 135.955 188.71C136.522 187.857 136.806 187.005 136.806 186.152C136.806 185.868 136.806 185.3 136.522 184.731L128.291 163.703H105.585L97.3538 185.3C97.07 185.584 97.07 185.868 97.07 186.152C97.07 187.005 97.3538 187.857 97.9215 188.426C98.4892 189.278 99.0568 189.562 99.9083 189.846L102.463 190.415V191.836H81.1755V190.415L82.8785 190.131C84.8653 189.562 86.5683 188.994 87.9874 187.857C89.4066 186.721 90.2581 185.3 91.1096 183.595L118.073 112.838H118.641L145.605 183.311C146.456 185.016 147.308 186.436 148.727 187.573C150.146 188.71 151.565 189.562 153.552 189.846L155.539 190.415ZM126.588 158.873L116.938 133.866L107.288 158.873H126.588ZM192.437 113.975C198.965 113.975 205.209 115.396 210.602 118.806C216.279 121.931 220.82 126.478 223.942 132.161C227.348 137.56 229.051 143.812 229.051 150.348V155.179C229.051 161.998 227.348 167.966 223.942 173.649C220.82 179.048 216.279 183.595 210.602 187.005C205.209 190.131 198.965 191.836 192.437 191.836H169.447H164.338H156.674V190.415L161.5 189.562C162.351 189.278 162.919 188.994 163.486 188.141C164.054 187.573 164.338 186.721 164.338 185.868V119.942C164.338 118.806 164.054 118.237 163.486 117.385C162.919 116.817 162.351 116.248 161.5 116.248L156.674 115.396V113.975H164.338H173.137H192.437ZM219.685 149.495C219.685 144.38 218.266 139.55 215.711 135.003C213.157 130.741 209.751 127.046 205.209 124.489C200.668 121.931 196.127 120.795 190.734 120.795H175.123C174.556 120.795 173.988 121.079 173.704 121.363C173.137 121.647 173.137 122.216 173.137 122.784V183.026C173.137 183.595 173.137 184.163 173.704 184.447C173.988 184.731 174.556 185.016 175.123 185.016H190.734C196.127 185.016 200.668 183.595 205.209 181.037C209.751 178.48 213.157 175.07 215.711 170.523C218.266 166.261 219.685 161.43 219.685 156.031V149.495ZM259.421 115.396L254.596 116.248C253.744 116.248 253.177 116.817 252.609 117.385C251.758 118.237 251.474 118.806 251.474 119.658V176.775C251.474 189.562 248.635 198.94 242.675 205.191C236.998 211.159 228.484 214 217.698 214V210.306C221.955 210.306 225.645 209.169 229.335 206.896C233.309 204.907 236.431 201.213 238.701 196.098C241.256 191.267 242.675 184.731 242.675 176.775V119.942C242.675 118.806 242.391 118.237 241.54 117.385C240.972 116.817 240.404 116.248 239.553 116.248L234.728 115.396V113.975H242.675H251.474H259.421V115.396ZM331.514 190.415V191.836H307.388V190.415L309.943 189.846C310.794 189.846 311.362 189.278 311.93 188.71C312.497 187.857 312.781 187.005 312.781 186.152C312.781 185.868 312.781 185.3 312.497 184.731L304.266 163.703H281.56L273.329 185.3C273.329 185.584 273.045 185.868 273.045 186.152C273.045 187.005 273.329 187.857 273.896 188.426C274.464 189.278 275.032 189.562 275.883 189.846L278.438 190.415V191.836H257.15V190.415L259.137 190.131C260.84 189.562 262.543 188.994 263.962 187.857C265.381 186.721 266.517 185.3 267.084 183.595L294.048 112.838H294.616L321.864 183.311C322.431 185.016 323.283 186.436 324.702 187.573C326.121 188.71 327.824 189.562 329.527 189.846L331.514 190.415ZM302.563 158.873L292.913 133.866L283.263 158.873H302.563ZM402.188 185.868C402.188 186.721 402.472 187.573 403.323 188.141C403.891 188.994 404.458 189.278 405.31 189.562L410.135 190.415V191.836H402.188H393.105H385.442V190.415L390.267 189.562C391.118 189.278 391.686 188.994 392.254 188.141C392.821 187.573 393.105 186.721 393.105 185.868V150.348H349.679V185.868C349.679 186.721 349.963 187.573 350.531 188.141C351.098 188.994 351.95 189.278 352.801 189.562L357.626 190.415V191.836H349.679H340.597H332.649V190.415L337.474 189.562C338.326 189.278 339.177 188.994 339.745 188.141C340.313 187.573 340.597 186.721 340.597 185.868V119.658C340.597 118.806 340.313 118.237 339.745 117.385C339.177 116.817 338.326 116.248 337.474 116.248L332.649 115.396V113.975H340.597H349.679H357.626V115.396L352.801 116.248C351.95 116.248 351.098 116.817 350.531 117.385C349.963 118.237 349.679 118.806 349.679 119.658V145.517H393.105V119.658C393.105 118.806 392.821 118.237 392.254 117.385C391.686 116.817 391.118 116.248 390.267 116.248L385.442 115.396V113.975H393.105H402.188H410.135V115.396L405.31 116.248C404.458 116.248 403.891 116.817 403.323 117.385C402.472 117.953 402.188 118.806 402.188 119.658V185.868ZM542.4 116.248C541.548 116.248 540.697 116.817 540.129 117.385C539.562 118.237 539.278 118.806 539.278 119.658V185.868C539.278 186.721 539.562 187.573 540.129 188.141C540.697 188.994 541.548 189.278 542.4 189.562L547.225 190.415V191.836H522.248V190.415L527.073 189.562C527.925 189.278 528.776 188.994 529.344 188.141C529.911 187.573 530.195 186.721 530.195 185.868V121.931L504.367 177.627L500.677 185.868H497.555L496.419 183.879L466.901 119.942V185.868C466.901 187.005 467.185 187.573 467.753 188.141C468.604 188.994 469.172 189.278 470.023 189.562L474.848 190.415V191.836H451.29V190.415L456.116 189.562C456.967 189.278 457.535 188.994 458.102 188.141C458.67 187.573 459.238 186.721 459.238 185.868V119.658C459.238 118.806 458.67 118.237 458.102 117.385C457.535 116.817 456.967 116.248 456.116 116.248L451.29 115.396V113.975H459.238H469.456C470.875 113.975 472.01 114.259 472.862 114.827C473.997 115.396 474.848 116.248 475.416 117.385L498.974 168.818L522.816 117.385C523.383 116.248 523.951 115.396 525.086 114.827C525.938 114.259 527.073 113.975 528.208 113.975H539.278H547.225V115.396L542.4 116.248ZM621.589 190.415V191.836H597.179V190.415L599.734 189.846C600.585 189.846 601.153 189.278 601.721 188.71C602.288 187.857 602.572 187.005 602.572 186.152C602.572 185.868 602.572 185.3 602.288 184.731L594.341 163.703H571.351L563.12 185.3C563.12 185.584 563.12 185.868 563.12 186.152C563.12 187.005 563.403 187.857 563.687 188.426C564.255 189.278 565.106 189.562 565.674 189.846L568.229 190.415V191.836H547.225V190.415L548.928 190.131C550.631 189.562 552.334 188.994 553.753 187.857C555.172 186.721 556.308 185.3 556.875 183.595L584.123 112.838H584.691L611.655 183.311C612.222 185.016 613.358 186.436 614.777 187.573C615.912 188.71 617.615 189.562 619.318 189.846L621.589 190.415ZM592.354 158.873L582.704 133.866L573.337 158.873H592.354ZM658.487 113.975C665.015 113.975 670.975 115.396 676.652 118.806C682.045 121.931 686.586 126.478 689.992 132.161C693.114 137.56 694.817 143.812 694.817 150.348V155.179C694.817 161.998 693.114 167.966 689.992 173.649C686.586 179.048 682.045 183.595 676.652 187.005C670.975 190.131 665.015 191.836 658.487 191.836H635.496H630.387H622.724V190.415L627.265 189.562C628.117 189.278 628.968 188.994 629.536 188.141C630.104 187.573 630.387 186.721 630.387 185.868V119.942C630.387 118.806 630.104 118.237 629.536 117.385C628.968 116.817 628.117 116.248 627.265 116.248L622.724 115.396V113.975H630.387H638.902H658.487ZM685.451 149.495C685.451 144.38 684.315 139.55 681.477 135.003C678.922 130.741 675.516 127.046 670.975 124.489C666.718 121.931 661.893 120.795 656.784 120.795H640.889C640.321 120.795 639.754 121.079 639.47 121.363C639.186 121.647 638.902 122.216 638.902 122.784V183.026C638.902 183.595 639.186 184.163 639.47 184.447C640.038 184.731 640.321 185.016 640.889 185.016H656.784C661.893 185.016 666.718 183.595 670.975 181.037C675.516 178.48 678.922 175.07 681.477 170.523C684.315 166.261 685.451 161.43 685.451 156.031V149.495ZM766.91 190.415V191.836H742.784V190.415L745.055 189.846C745.906 189.846 746.758 189.278 747.326 188.71C747.893 187.857 748.177 187.005 748.177 186.152C748.177 185.868 748.177 185.3 747.893 184.731L739.662 163.703H716.956L708.725 185.3C708.441 185.584 708.441 185.868 708.441 186.152C708.441 187.005 708.725 187.857 709.292 188.426C709.86 189.278 710.428 189.562 711.279 189.846L713.834 190.415V191.836H692.546V190.415L694.249 190.131C696.236 189.562 697.939 188.994 699.358 187.857C700.777 186.721 701.629 185.3 702.48 183.595L729.444 112.838H730.012L756.976 183.311C757.827 185.016 758.679 186.436 760.098 187.573C761.517 188.71 762.936 189.562 764.923 189.846L766.91 190.415ZM737.959 158.873L728.309 133.866L718.659 158.873H737.959Z" fill="white"/>
<path fill-rule="evenodd" clip-rule="evenodd" d="M76.4508 3.721L71.6279 4.57969C70.7768 4.57969 69.9257 5.15215 69.3582 5.72462C68.7908 6.58331 68.5071 7.442 68.5071 8.30069V21.7535V54.3838C68.5071 59.536 67.0886 64.4019 64.5353 68.6954C61.982 73.2751 58.5775 76.7098 54.0383 79.2859C49.7827 81.862 44.9598 83.2932 39.8531 83.2932H34.7465C29.6398 83.2932 25.3843 81.862 21.4124 79.2859C17.7243 76.7098 14.8873 73.2751 12.9013 68.9816C10.9154 64.6882 9.7806 59.536 9.7806 54.3838V21.7535V8.30069C9.7806 7.442 9.4969 6.58331 8.92949 5.72462C8.36209 5.15215 7.51098 4.86592 6.65987 4.57969L1.83691 3.721V2.28985H26.8028V3.721L21.9798 4.57969C21.1287 4.57969 20.5613 5.15215 19.7102 5.72462C19.1428 6.58331 18.8591 7.442 18.8591 8.30069V21.7535V59.536C18.8591 62.9708 19.7102 66.1193 21.4124 68.9816C23.1146 72.1302 25.668 74.42 28.505 76.1374C31.342 77.8548 34.7465 78.7135 38.1509 78.7135H41.5553C44.9598 78.7135 48.0805 77.8548 50.9175 76.1374C54.0383 74.42 56.3079 72.1302 58.0101 68.9816C59.7123 66.1193 60.5635 62.9708 60.5635 59.536V21.7535V8.30069C60.5635 7.15577 60.2798 6.58331 59.7123 5.72462C59.1449 5.15215 58.2938 4.57969 57.4427 4.57969L52.6198 3.721V2.28985H76.4508V3.721ZM160.711 3.721L155.888 4.57969C155.037 4.57969 154.469 5.15215 153.902 5.72462C153.051 6.58331 152.767 7.15577 152.767 8.30069V64.9744V81.2895H151.065L96.5937 18.3188V75.2787C96.8774 76.1374 97.1611 76.9961 97.7286 77.5685C98.296 78.4272 99.1471 78.7135 99.7145 78.7135L104.537 79.8584V81.2895H96.5937H88.9338H80.9901V79.8584L85.813 78.7135C86.6641 78.7135 87.5152 78.141 88.0827 77.5685C88.6501 76.7098 88.9338 76.1374 88.9338 74.9925V8.30069C88.9338 7.15577 88.6501 6.58331 88.0827 5.72462C87.5152 5.15215 86.6641 4.57969 85.813 4.57969L80.9901 3.721V2.28985H88.9338H90.3523H95.1752C96.31 2.28985 97.1611 2.57608 97.7286 3.43477L144.823 57.8186V8.30069C144.823 7.15577 144.54 6.58331 143.972 5.72462C143.405 5.15215 142.837 4.57969 141.703 4.57969L137.163 3.721V2.28985H144.823H152.767H160.711V3.721ZM188.797 4.57969C187.946 4.57969 187.379 5.15215 186.811 5.72462C185.96 6.58331 185.677 7.15577 185.677 8.30069V75.2787C185.677 76.1374 185.96 76.9961 186.811 77.5685C187.379 78.141 188.23 78.7135 188.797 78.7135L193.904 79.8584V81.2895H185.677H176.598H168.654V79.8584L173.477 78.7135C174.328 78.7135 175.18 78.4272 175.747 77.5685C176.314 76.9961 176.598 76.1374 176.598 75.2787V8.30069C176.598 7.15577 176.314 6.58331 175.747 5.72462C175.18 5.15215 174.328 4.57969 173.477 4.57969L168.654 3.721V2.28985H176.598H185.677H193.904V3.721L188.797 4.57969ZM274.192 2.28985V3.721L268.234 4.86592C266.816 5.15215 265.964 6.01085 265.681 7.15577L237.027 82.1482H232.771L204.117 7.15577C203.834 6.58331 203.55 6.01085 202.982 5.72462C202.415 5.15215 201.848 4.86592 201.28 4.86592L195.606 3.721V2.28985H220.005V3.721L217.451 4.00723C216.6 4.29346 216.033 4.57969 215.182 5.43838C214.614 6.01085 214.331 6.86954 214.331 7.72823C214.331 8.30069 214.614 8.58692 214.898 9.15938L235.892 64.9744L257.17 8.58692C257.17 8.58692 257.17 8.30069 257.17 7.72823C257.17 6.86954 256.886 6.01085 256.602 5.43838C256.035 4.86592 255.184 4.29346 254.616 4.00723L251.779 3.721V2.28985H274.192ZM327.812 78.141C327.812 78.9997 327.528 79.5722 326.961 80.4308C326.393 81.0033 325.542 81.2895 324.691 81.2895H292.633H283.27H275.327V79.8584L280.15 78.7135C281.001 78.7135 281.852 78.4272 282.419 77.5685C282.987 76.9961 283.27 76.1374 283.27 75.2787V8.30069C283.27 7.15577 282.987 6.58331 282.419 5.72462C281.852 5.15215 281.001 4.57969 280.15 4.57969L275.327 3.721V2.28985H283.27H292.633H321.003C321.854 2.28985 322.421 2.57608 322.989 3.14854C323.556 3.721 323.84 4.29346 323.84 4.86592V8.87315V16.8876H322.421L321.57 12.0217C321.287 11.163 321.003 10.5905 320.152 10.0181C319.584 9.44562 318.733 9.15938 317.882 8.87315H294.335C293.767 8.87315 293.484 9.15938 292.916 9.44562C292.633 10.0181 292.633 10.3043 292.633 10.8768V33.2028C292.633 33.7752 292.633 34.3477 293.2 34.6339C293.484 34.9202 293.767 35.2064 294.335 35.2064H310.222C311.073 35.2064 311.924 34.6339 312.776 34.0615C313.343 33.489 313.91 32.9165 313.91 32.0578L314.761 27.1919H316.18V35.2064V38.6412V40.0723V48.0868H314.761L313.91 43.2208C313.627 42.3622 313.343 41.5035 312.776 40.931C311.924 40.3585 311.073 40.0723 310.222 40.0723H294.335C293.767 40.0723 293.484 40.3585 293.2 40.6448C292.633 40.931 292.633 41.5035 292.633 42.0759V70.699C292.633 71.8439 292.916 72.7026 293.484 73.2751C294.335 74.1338 294.902 74.42 296.037 74.42H321.854C322.705 74.42 323.556 74.1338 324.407 73.5613C324.975 72.9888 325.258 72.1302 325.542 71.2715L326.393 66.4055H327.812V78.141ZM401.291 79.8584V81.2895H393.347H387.673C385.971 81.2895 384.269 81.0033 382.566 80.1446C380.581 79.5722 379.162 78.7135 378.311 77.5685L354.48 47.8005H352.494C351.927 47.8005 351.359 48.0868 351.075 48.373C350.792 48.9455 350.508 49.2317 350.508 49.8042V75.2787C350.508 76.1374 350.792 76.9961 351.359 77.5685C351.927 78.4272 352.778 78.7135 353.629 78.7135L358.452 79.8584V81.2895H333.486V79.8584L338.309 78.7135C339.16 78.7135 339.727 78.4272 340.295 77.5685C341.146 76.9961 341.43 76.1374 341.43 75.2787V8.30069C341.43 7.15577 341.146 6.58331 340.295 5.72462C339.727 5.15215 339.16 4.57969 338.309 4.57969L333.486 3.721V2.28985H341.43H361.005C365.261 2.28985 369.232 3.14854 372.637 5.15215C376.041 7.15577 378.878 10.0181 380.864 13.4528C382.85 16.8876 383.985 20.8948 383.985 25.1883C383.985 30.3405 382.283 35.2064 378.878 39.2136C375.758 43.5071 371.502 46.0832 366.395 47.2281L387.957 74.42C388.808 75.2787 389.943 76.1374 390.794 76.7098C391.929 77.2823 393.063 77.8548 393.631 78.141C394.482 78.4272 394.766 78.4272 395.049 78.7135L401.291 79.8584ZM357.033 44.3658C360.438 44.3658 363.275 43.5071 366.112 42.0759C368.949 40.3585 371.218 38.0687 372.637 35.4926C374.339 32.6303 375.19 29.768 375.19 26.3332C375.19 23.1847 374.339 20.0362 372.637 17.1738C370.935 14.3115 368.665 12.3079 366.112 10.5905C363.275 8.87315 360.154 8.01446 356.749 8.01446H352.494C351.927 8.01446 351.643 8.30069 351.075 8.58692C350.792 8.87315 350.508 9.44562 350.508 10.0181V44.3658H357.033ZM452.074 60.1085C452.074 60.1085 452.357 60.3947 452.357 60.9672C452.357 61.2534 452.357 61.8258 452.357 62.6845C452.357 65.8331 451.79 68.9816 450.371 72.4164C448.953 75.5649 446.4 78.4272 442.428 80.7171C442.428 80.7171 442.144 81.0033 441.293 81.5758C440.442 81.862 439.023 82.4345 437.037 83.0069C435.052 83.5794 433.066 83.5794 431.08 83.5794C425.689 83.5794 420.583 82.1482 414.909 79.2859L409.235 76.1374C408.951 75.8512 408.383 75.5649 407.816 75.5649C407.249 75.5649 406.681 75.8512 406.114 76.1374C405.83 76.4236 405.546 76.9961 405.263 77.5685L404.979 78.9997H403.56V57.8186H405.83L407.532 66.1193C407.816 68.9816 409.518 71.2715 412.072 73.2751C412.072 73.2751 413.206 73.8475 415.192 74.9925C420.015 77.5685 424.271 78.9997 428.243 78.9997C433.633 78.9997 437.889 76.1374 440.442 70.699C440.442 70.699 440.726 70.4128 440.726 69.8403C441.009 69.2678 441.293 68.6954 441.293 67.8367C441.577 66.6918 441.577 65.8331 441.577 64.6882C441.577 61.8258 440.726 58.6773 439.023 55.815C437.321 52.6665 434.2 50.0904 429.945 47.5143C428.243 46.3694 425.406 44.9382 422.001 42.6484C418.313 40.3585 416.043 38.9274 415.192 38.3549C411.788 36.0651 408.951 33.2028 406.681 30.3405C404.412 27.4782 403.277 24.0434 403.277 20.3224C403.277 14.884 404.695 10.0181 408.1 6.01085C411.22 2.00362 416.611 0 424.271 0C424.555 0 425.406 0 426.824 0.286231C428.526 0.286231 430.229 0.858692 432.782 1.43115C435.052 2.00362 437.605 2.86231 440.158 4.00723C440.442 4.00723 441.009 4.29346 441.577 4.29346C442.428 4.29346 443.279 4.00723 444.13 3.43477C444.697 2.86231 444.981 2.00362 445.265 1.14492L445.549 0H446.967V18.0325H445.549L444.697 14.5978C444.414 13.1666 443.846 11.7355 442.995 10.5905C442.144 9.44562 441.009 8.58692 439.874 8.01446C438.456 7.15577 436.47 6.58331 434.2 6.01085C431.647 5.43838 429.377 4.86592 427.108 4.86592C423.42 4.86592 420.299 6.01085 417.746 8.01446C415.476 10.3043 414.341 13.7391 414.341 18.3188C414.341 22.0398 415.192 24.6158 416.895 26.6195C418.597 28.6231 420.299 30.0542 422.285 31.1992C423.987 32.0578 425.122 32.9165 425.406 33.2028C426.54 33.7752 428.526 34.6339 430.796 36.3513C433.349 37.7825 435.619 38.9274 437.037 39.7861C446.4 45.7969 451.506 52.3802 452.074 60.1085ZM480.444 4.57969C479.593 4.57969 478.742 5.15215 478.174 5.72462C477.607 6.58331 477.323 7.15577 477.323 8.30069V75.2787C477.323 76.1374 477.607 76.9961 478.458 77.5685C479.026 78.141 479.593 78.7135 480.444 78.7135L485.551 79.8584V81.2895H477.323H468.245H460.301V79.8584L465.124 78.7135C465.975 78.7135 466.826 78.4272 467.394 77.5685C467.961 76.9961 468.245 76.1374 468.245 75.2787V8.30069C468.245 7.15577 467.961 6.58331 467.394 5.72462C466.826 5.15215 465.975 4.57969 465.124 4.57969L460.301 3.721V2.28985H468.245H477.323H485.551V3.721L480.444 4.57969ZM546.547 17.1738L545.979 12.5942C545.696 11.7355 545.412 10.8768 544.561 10.3043C543.994 9.73185 543.142 9.44562 542.291 9.15938H527.255C526.971 9.15938 526.404 9.44562 525.837 10.0181C525.553 10.3043 525.269 10.8768 525.269 11.4492V75.2787C525.269 76.1374 525.553 76.9961 526.12 77.5685C526.688 78.141 527.539 78.7135 528.39 78.7135L533.213 79.8584V81.2895H525.269H516.191H508.247V79.8584L513.07 78.7135C513.921 78.7135 514.488 78.141 515.056 77.5685C515.907 76.9961 516.191 76.1374 516.191 74.9925V11.4492C516.191 10.8768 515.907 10.3043 515.339 10.0181C515.056 9.44562 514.488 9.15938 513.921 9.15938H499.168C498.317 9.44562 497.466 9.73185 496.899 10.3043C496.048 10.8768 495.764 11.7355 495.48 12.5942L494.629 17.1738H493.211V9.15938V4.29346C493.211 3.721 493.494 3.14854 493.778 2.86231C494.345 2.28985 494.913 2.28985 495.48 2.28985H516.191H525.269H542.291H545.979C546.547 2.28985 547.114 2.28985 547.682 2.86231C547.965 3.14854 548.249 3.721 548.249 4.29346V17.1738H546.547ZM622.012 79.8584V81.2895H597.613V79.8584L599.883 79.2859C600.734 78.9997 601.585 78.7135 602.153 77.8548C602.72 77.2823 603.004 76.4236 603.004 75.5649C603.004 74.9925 603.004 74.7062 602.72 74.1338L594.493 52.6665H571.513L563.285 74.7062C563.002 74.9925 563.002 75.2787 563.002 75.5649C563.002 76.4236 563.285 77.2823 563.853 77.8548C564.42 78.7135 564.988 78.9997 565.839 79.2859L568.392 79.8584V81.2895H547.114V79.8584L548.816 79.2859C550.802 78.9997 552.505 78.4272 553.923 77.2823C555.342 76.1374 556.193 74.7062 557.044 72.9888L584.279 1.14492H584.847L612.082 72.7026C612.65 74.42 613.784 75.8512 614.919 76.9961C616.338 78.141 618.04 78.9997 619.742 79.2859L622.012 79.8584ZM592.79 47.8005L582.861 22.6122L573.499 47.8005H592.79ZM675.064 60.1085C675.064 60.1085 675.064 60.3947 675.064 60.9672C675.064 61.2534 675.064 61.8258 675.064 62.6845C675.064 65.8331 674.497 68.9816 673.078 72.4164C671.66 75.5649 669.107 78.4272 665.418 80.7171C665.135 80.7171 664.851 81.0033 664 81.5758C663.149 81.862 661.73 82.4345 659.744 83.0069C658.042 83.5794 655.773 83.5794 653.787 83.5794C648.68 83.5794 643.29 82.1482 637.616 79.2859L632.225 76.1374C631.658 75.8512 631.374 75.5649 630.523 75.5649C629.956 75.5649 629.388 75.8512 629.104 76.1374C628.537 76.4236 628.253 76.9961 627.97 77.5685L627.686 78.9997H626.267V57.8186H628.537L630.239 66.1193C630.523 68.9816 632.225 71.2715 634.779 73.2751C634.779 73.2751 635.913 73.8475 637.899 74.9925C642.722 77.5685 646.978 78.9997 650.95 78.9997C656.624 78.9997 660.595 76.1374 663.149 70.699C663.432 70.699 663.432 70.4128 663.716 69.8403C663.716 69.2678 664 68.6954 664.284 67.8367C664.284 66.6918 664.567 65.8331 664.567 64.6882C664.567 61.8258 663.716 58.6773 661.73 55.815C660.028 52.6665 656.907 50.0904 652.652 47.5143C650.95 46.3694 648.396 44.9382 644.708 42.6484C641.02 40.3585 638.75 38.9274 638.183 38.3549C634.495 36.0651 631.658 33.2028 629.672 30.3405C627.402 27.4782 625.984 24.0434 625.984 20.3224C625.984 14.884 627.686 10.0181 630.807 6.01085C633.927 2.00362 639.318 0 646.978 0C647.261 0 648.396 0 649.815 0.286231C651.233 0.286231 653.219 0.858692 655.489 1.43115C657.758 2.00362 660.312 2.86231 662.865 4.00723C663.432 4.00723 663.716 4.29346 664.567 4.29346C665.418 4.29346 666.27 4.00723 666.837 3.43477C667.404 2.86231 667.972 2.00362 667.972 1.14492L668.255 0H669.674V18.0325H668.255L667.688 14.5978C667.404 13.1666 666.837 11.7355 665.986 10.5905C664.851 9.44562 664 8.58692 662.581 8.01446C661.163 7.15577 659.177 6.58331 656.907 6.01085C654.638 5.43838 652.084 4.86592 649.815 4.86592C646.127 4.86592 643.006 6.01085 640.736 8.01446C638.183 10.3043 637.048 13.7391 637.048 18.3188C637.048 22.0398 637.899 24.6158 639.601 26.6195C641.304 28.6231 643.29 30.0542 644.992 31.1992C646.694 32.0578 647.829 32.9165 648.113 33.2028C649.247 33.7752 651.233 34.6339 653.787 36.3513C656.34 37.7825 658.326 38.9274 659.744 39.7861C669.107 45.7969 674.213 52.3802 675.064 60.1085Z" fill="white"/>
</svg>
