<svg width="38" height="38" viewBox="0 0 38 38" fill="none" xmlns="http://www.w3.org/2000/svg">
<g clip-path="url(#clip0_134_1407)">
<path d="M35.6883 10.1647C35.5002 9.41324 35.1172 8.72475 34.5778 8.16873C34.0385 7.61272 33.362 7.20888 32.6166 6.99801C29.8933 6.33301 19 6.33301 19 6.33301C19 6.33301 8.10664 6.33301 5.3833 7.06134C4.63794 7.27222 3.96143 7.67606 3.4221 8.23207C2.88277 8.78808 2.49972 9.47657 2.31164 10.228C1.81323 12.9918 1.56943 15.7955 1.5833 18.6038C1.56554 21.4333 1.80935 24.2584 2.31164 27.043C2.51899 27.7711 2.91062 28.4334 3.4487 28.9659C3.98677 29.4985 4.6531 29.8832 5.3833 30.083C8.10664 30.8113 19 30.8113 19 30.8113C19 30.8113 29.8933 30.8113 32.6166 30.083C33.362 29.8721 34.0385 29.4683 34.5778 28.9123C35.1172 28.3563 35.5002 27.6678 35.6883 26.9163C36.1829 24.1734 36.4267 21.391 36.4166 18.6038C36.4344 15.7744 36.1906 12.9493 35.6883 10.1647Z" stroke="#F5F5F5" stroke-width="4" stroke-linecap="round" stroke-linejoin="round"/>
<path d="M15.4375 23.7813L24.5416 18.6038L15.4375 13.4263V23.7813Z" stroke="#F5F5F5" stroke-width="4" stroke-linecap="round" stroke-linejoin="round"/>
</g>
<defs>
<clipPath id="clip0_134_1407">
<rect width="38" height="38" fill="white"/>
</clipPath>
</defs>
</svg>
