<svg width="2728" height="3064" viewBox="0 0 2728 3064" fill="none" xmlns="http://www.w3.org/2000/svg">
<path d="M619.836 2130.57C619.836 2140.74 619.308 2150.84 618.318 2160.94C617.328 2171.04 615.809 2181.07 613.829 2191.04C611.848 2201.01 609.406 2210.85 606.435 2220.55C603.53 2230.26 600.097 2239.76 596.202 2249.14C592.307 2258.51 588.016 2267.69 583.197 2276.67C578.444 2285.58 573.228 2294.29 567.551 2302.74C561.939 2311.19 555.932 2319.31 549.462 2327.17C542.992 2335.03 536.193 2342.55 529.063 2349.68C521.867 2356.88 514.341 2363.68 506.485 2370.15C498.629 2376.55 490.509 2382.62 482.058 2388.24C473.608 2393.91 464.96 2399.13 455.981 2403.88C447.069 2408.64 437.893 2412.99 428.518 2416.89C419.144 2420.78 409.571 2424.22 399.867 2427.12C390.162 2430.09 380.326 2432.53 370.357 2434.51C360.388 2436.49 350.354 2438.01 340.253 2439C330.153 2439.99 320.052 2440.46 309.885 2440.46C299.785 2440.46 289.618 2439.99 279.517 2439C269.417 2438.01 259.382 2436.49 249.413 2434.51C239.511 2432.53 229.674 2430.09 219.97 2427.12C210.265 2424.22 200.693 2420.78 191.318 2416.89C181.944 2412.99 172.767 2408.64 163.789 2403.88C154.877 2399.13 146.162 2393.91 137.712 2388.24C129.262 2382.62 121.142 2376.55 113.286 2370.15C105.43 2363.68 97.9697 2356.88 90.7738 2349.68C83.5779 2342.55 76.7781 2335.03 70.3744 2327.17C63.9048 2319.31 57.8972 2311.19 52.2197 2302.74C46.6082 2294.29 41.3928 2285.58 36.5736 2276.67C31.8203 2267.69 27.4632 2258.51 23.5682 2249.14C19.7392 2239.76 16.3063 2230.26 13.3355 2220.55C10.4307 2210.85 7.92208 2201.01 5.94156 2191.04C3.96105 2181.07 2.50864 2171.04 1.5184 2160.94C0.528134 2150.84 0 2140.74 0 2130.57C0 2120.4 0.528134 2110.3 1.5184 2100.2C2.50864 2090.1 3.96105 2080.07 5.94156 2070.1C7.92208 2060.13 10.4307 2050.36 13.3355 2040.59C16.3063 2030.88 19.7392 2021.38 23.5682 2012C27.4632 2002.63 31.8203 1993.45 36.5736 1984.47C41.3928 1975.56 46.6082 1966.85 52.2197 1958.4C57.8972 1949.95 63.9048 1941.83 70.3744 1933.97C76.7781 1926.11 83.5779 1918.59 90.7738 1911.46C97.9697 1904.26 105.43 1897.46 113.286 1890.99C121.142 1884.59 129.262 1878.52 137.712 1872.9C146.162 1867.29 154.877 1862.08 163.789 1857.26C172.767 1852.5 181.944 1848.15 191.318 1844.25C200.693 1840.36 210.265 1836.99 219.97 1834.02C229.674 1831.05 239.511 1828.61 249.413 1826.63C259.382 1824.65 269.417 1823.19 279.517 1822.14C289.618 1821.15 299.785 1820.68 309.885 1820.68C320.052 1820.68 330.153 1821.15 340.253 1822.14C350.354 1823.19 360.388 1824.65 370.357 1826.63C380.326 1828.61 390.162 1831.05 399.867 1834.02C409.571 1836.99 419.144 1840.36 428.518 1844.25C437.893 1848.15 447.069 1852.5 455.981 1857.26C464.96 1862.08 473.608 1867.29 482.058 1872.9C490.509 1878.52 498.629 1884.59 506.485 1890.99C514.341 1897.46 521.867 1904.26 529.063 1911.46C536.193 1918.59 542.992 1926.11 549.462 1933.97C555.932 1941.83 561.939 1949.95 567.551 1958.4C573.228 1966.85 578.444 1975.56 583.197 1984.47C588.016 1993.45 592.307 2002.63 596.202 2012C600.097 2021.38 603.53 2030.88 606.435 2040.59C609.406 2050.36 611.848 2060.13 613.829 2070.1C615.809 2080.07 617.328 2090.1 618.318 2100.2C619.308 2110.3 619.836 2120.4 619.836 2130.57Z" fill="#5627FF"/>
<path d="M1625.94 2753.44C1625.94 2763.6 1625.47 2773.7 1624.48 2783.81C1623.49 2793.91 1621.97 2803.94 1619.99 2813.91C1618.01 2823.88 1615.57 2833.71 1612.6 2843.42C1609.63 2853.12 1606.26 2862.63 1602.37 2872C1598.47 2881.38 1594.11 2890.56 1589.36 2899.53C1584.54 2908.45 1579.39 2917.16 1573.72 2925.61C1568.1 2934.06 1562.03 2942.18 1555.63 2950.04C1549.16 2957.89 1542.36 2965.42 1535.16 2972.55C1528.03 2979.74 1520.51 2986.54 1512.65 2993.01C1504.79 2999.42 1496.67 3005.49 1488.22 3011.1C1479.77 3016.78 1471.06 3021.93 1462.15 3026.75C1453.17 3031.5 1443.99 3035.86 1434.62 3039.75C1425.24 3043.65 1415.74 3047.02 1406.03 3049.99C1396.33 3052.96 1386.49 3055.4 1376.52 3057.38C1366.55 3059.36 1356.52 3060.88 1346.42 3061.87C1336.32 3062.86 1326.22 3063.32 1316.05 3063.32C1305.88 3063.32 1295.78 3062.86 1285.68 3061.87C1275.58 3060.88 1265.55 3059.36 1255.58 3057.38C1245.61 3055.4 1235.77 3052.96 1226.07 3049.99C1216.36 3047.02 1206.86 3043.65 1197.48 3039.75C1188.11 3035.86 1178.93 3031.5 1169.95 3026.75C1161.04 3021.93 1152.33 3016.78 1143.88 3011.1C1135.43 3005.49 1127.31 2999.42 1119.45 2993.01C1111.59 2986.54 1104.07 2979.74 1096.94 2972.55C1089.74 2965.42 1082.94 2957.89 1076.47 2950.04C1070.07 2942.18 1064 2934.06 1058.38 2925.61C1052.71 2917.16 1047.56 2908.45 1042.74 2899.53C1037.99 2890.56 1033.63 2881.38 1029.73 2872C1025.84 2862.63 1022.47 2853.12 1019.5 2843.42C1016.53 2833.71 1014.09 2823.88 1012.11 2813.91C1010.13 2803.94 1008.61 2793.91 1007.62 2783.81C1006.63 2773.7 1006.16 2763.6 1006.16 2753.44C1006.16 2743.27 1006.63 2733.17 1007.62 2723.07C1008.61 2712.97 1010.13 2702.93 1012.11 2692.97C1014.09 2683 1016.53 2673.16 1019.5 2663.46C1022.47 2653.75 1025.84 2644.24 1029.73 2634.87C1033.63 2625.5 1037.99 2616.32 1042.74 2607.34C1047.56 2598.43 1052.71 2589.71 1058.38 2581.26C1064 2572.81 1070.07 2564.69 1076.47 2556.84C1082.94 2548.98 1089.74 2541.46 1096.94 2534.33C1104.07 2527.13 1111.59 2520.33 1119.45 2513.86C1127.31 2507.46 1135.43 2501.38 1143.88 2495.77C1152.33 2490.09 1161.04 2484.94 1169.95 2480.13C1178.93 2475.37 1188.11 2471.01 1197.48 2467.12C1206.86 2463.22 1216.36 2459.86 1226.07 2456.89C1235.77 2453.92 1245.61 2451.47 1255.58 2449.49C1265.55 2447.51 1275.58 2445.99 1285.68 2445C1295.78 2444.01 1305.88 2443.55 1316.05 2443.55C1326.22 2443.55 1336.32 2444.01 1346.42 2445C1356.52 2445.99 1366.55 2447.51 1376.52 2449.49C1386.49 2451.47 1396.33 2453.92 1406.03 2456.89C1415.74 2459.86 1425.24 2463.22 1434.62 2467.12C1443.99 2471.01 1453.17 2475.37 1462.15 2480.13C1471.06 2484.94 1479.77 2490.09 1488.22 2495.77C1496.67 2501.38 1504.79 2507.46 1512.65 2513.86C1520.51 2520.33 1528.03 2527.13 1535.16 2534.33C1542.36 2541.46 1549.16 2548.98 1555.63 2556.84C1562.03 2564.69 1568.1 2572.81 1573.72 2581.26C1579.39 2589.71 1584.54 2598.43 1589.36 2607.34C1594.11 2616.32 1598.47 2625.5 1602.37 2634.87C1606.26 2644.24 1609.63 2653.75 1612.6 2663.46C1615.57 2673.16 1618.01 2683 1619.99 2692.97C1621.97 2702.93 1623.49 2712.97 1624.48 2723.07C1625.47 2733.17 1625.94 2743.27 1625.94 2753.44Z" fill="#AFACFF"/>
<path d="M2728 2130.57C2728 2140.74 2727.47 2150.84 2726.48 2160.94C2725.49 2171.04 2724.04 2181.07 2722.06 2191.04C2720.08 2201.01 2717.57 2210.85 2714.66 2220.55C2711.69 2230.26 2708.26 2239.76 2704.43 2249.14C2700.54 2258.51 2696.18 2267.69 2691.43 2276.67C2686.61 2285.58 2681.39 2294.29 2675.78 2302.74C2670.1 2311.19 2664.09 2319.31 2657.62 2327.17C2651.22 2335.03 2644.42 2342.55 2637.23 2349.68C2630.03 2356.88 2622.5 2363.68 2614.71 2370.15C2606.86 2376.55 2598.67 2382.62 2590.29 2388.24C2581.84 2393.91 2573.12 2399.13 2564.14 2403.88C2555.23 2408.64 2546.06 2412.99 2536.68 2416.89C2527.31 2420.78 2517.73 2424.22 2508.03 2427.12C2498.33 2430.09 2488.49 2432.53 2478.52 2434.51C2468.62 2436.49 2458.58 2438.01 2448.48 2439C2438.38 2439.99 2428.21 2440.46 2418.11 2440.46C2407.95 2440.46 2397.85 2439.99 2387.75 2439C2377.65 2438.01 2367.61 2436.49 2357.64 2434.51C2347.67 2432.53 2337.84 2430.09 2328.13 2427.12C2318.43 2424.22 2308.86 2420.78 2299.48 2416.89C2290.11 2412.99 2280.93 2408.64 2272.02 2403.88C2263.04 2399.13 2254.39 2393.91 2245.94 2388.24C2237.49 2382.62 2229.37 2376.55 2221.51 2370.15C2213.66 2363.68 2206.13 2356.88 2198.94 2349.68C2191.81 2342.55 2184.94 2335.03 2178.54 2327.17C2172.07 2319.31 2166.06 2311.19 2160.45 2302.74C2154.77 2294.29 2149.56 2285.58 2144.8 2276.67C2139.98 2267.69 2135.69 2258.51 2131.8 2249.14C2127.9 2239.76 2124.47 2230.26 2121.56 2220.55C2118.59 2210.85 2116.15 2201.01 2114.17 2191.04C2112.19 2181.07 2110.67 2171.04 2109.68 2160.94C2108.69 2150.84 2108.16 2140.74 2108.16 2130.57C2108.16 2120.4 2108.69 2110.3 2109.68 2100.2C2110.67 2090.1 2112.19 2080.07 2114.17 2070.1C2116.15 2060.13 2118.59 2050.36 2121.56 2040.59C2124.47 2030.88 2127.9 2021.38 2131.8 2012C2135.69 2002.63 2139.98 1993.45 2144.8 1984.47C2149.56 1975.56 2154.77 1966.85 2160.45 1958.4C2166.06 1949.95 2172.07 1941.83 2178.54 1933.97C2184.94 1926.11 2191.81 1918.59 2198.94 1911.46C2206.13 1904.26 2213.66 1897.46 2221.51 1890.99C2229.37 1884.59 2237.49 1878.52 2245.94 1872.9C2254.39 1867.29 2263.04 1862.08 2272.02 1857.26C2280.93 1852.5 2290.11 1848.15 2299.48 1844.25C2308.86 1840.36 2318.43 1836.99 2328.13 1834.02C2337.84 1831.05 2347.67 1828.61 2357.64 1826.63C2367.61 1824.65 2377.65 1823.19 2387.75 1822.14C2397.85 1821.15 2407.95 1820.68 2418.11 1820.68C2428.21 1820.68 2438.38 1821.15 2448.48 1822.14C2458.58 1823.19 2468.62 1824.65 2478.52 1826.63C2488.49 1828.61 2498.33 1831.05 2508.03 1834.02C2517.73 1836.99 2527.31 1840.36 2536.68 1844.25C2546.06 1848.15 2555.23 1852.5 2564.14 1857.26C2573.12 1862.08 2581.84 1867.29 2590.29 1872.9C2598.67 1878.52 2606.86 1884.59 2614.71 1890.99C2622.5 1897.46 2630.03 1904.26 2637.23 1911.46C2644.42 1918.59 2651.22 1926.11 2657.62 1933.97C2664.09 1941.83 2670.1 1949.95 2675.78 1958.4C2681.39 1966.85 2686.61 1975.56 2691.43 1984.47C2696.18 1993.45 2700.54 2002.63 2704.43 2012C2708.26 2021.38 2711.69 2030.88 2714.66 2040.59C2717.57 2050.36 2720.08 2060.13 2722.06 2070.1C2724.04 2080.07 2725.49 2090.1 2726.48 2100.2C2727.47 2110.3 2728 2120.4 2728 2130.57Z" fill="#5627FF"/>
<path d="M619.836 932.751C619.836 942.918 619.308 953.019 618.318 963.119C617.328 973.22 615.809 983.255 613.829 993.223C611.848 1003.19 609.406 1013.03 606.435 1022.73C603.53 1032.44 600.097 1042.01 596.202 1051.38C592.307 1060.76 588.016 1069.87 583.197 1078.85C578.444 1087.83 573.228 1096.47 567.551 1104.92C561.939 1113.37 555.932 1121.49 549.462 1129.35C542.992 1137.21 536.193 1144.73 529.063 1151.93C521.867 1159.06 514.341 1165.86 506.485 1172.33C498.629 1178.73 490.509 1184.81 482.058 1190.42C473.608 1196.09 464.96 1201.31 455.981 1206.06C447.069 1210.88 437.893 1215.17 428.518 1219.07C419.144 1222.96 409.571 1226.4 399.867 1229.3C390.162 1232.27 380.326 1234.71 370.357 1236.7C360.388 1238.68 350.354 1240.19 340.253 1241.18C330.153 1242.17 320.052 1242.64 309.885 1242.64C299.785 1242.64 289.618 1242.17 279.517 1241.18C269.417 1240.19 259.382 1238.68 249.413 1236.7C239.511 1234.71 229.674 1232.27 219.97 1229.3C210.265 1226.4 200.693 1222.96 191.318 1219.07C181.944 1215.17 172.767 1210.88 163.789 1206.06C154.877 1201.31 146.162 1196.09 137.712 1190.42C129.262 1184.81 121.142 1178.73 113.286 1172.33C105.43 1165.86 97.9697 1159.06 90.7738 1151.93C83.5779 1144.73 76.7781 1137.21 70.3744 1129.35C63.9048 1121.49 57.8972 1113.37 52.2197 1104.92C46.6082 1096.47 41.3928 1087.83 36.5736 1078.85C31.8203 1069.87 27.4632 1060.76 23.5682 1051.38C19.7392 1042.01 16.3063 1032.44 13.3355 1022.73C10.4307 1013.03 7.92208 1003.19 5.94156 993.223C3.96105 983.255 2.50864 973.22 1.5184 963.119C0.528134 953.019 0 942.918 0 932.751C0 922.585 0.528134 912.484 1.5184 902.383C2.50864 892.283 3.96105 882.248 5.94156 872.279C7.92208 862.377 10.4307 852.54 13.3355 842.836C16.3063 833.065 19.7392 823.559 23.5682 814.184C27.4632 804.81 31.8203 795.633 36.5736 786.655C41.3928 777.742 46.6082 769.028 52.2197 760.578C57.8972 752.128 63.9048 744.008 70.3744 736.152C76.7781 728.295 83.5779 720.836 90.7738 713.64C97.9697 706.444 105.43 699.644 113.286 693.24C121.142 686.771 129.262 680.763 137.712 675.085C146.162 669.474 154.877 664.259 163.789 659.439C172.767 654.686 181.944 650.329 191.318 646.434C200.693 642.539 210.265 639.172 219.97 636.201C229.674 633.23 239.511 630.788 249.413 628.807C259.382 626.827 269.417 625.374 279.517 624.384C289.618 623.394 299.785 622.866 309.885 622.866C320.052 622.866 330.153 623.394 340.253 624.384C350.354 625.374 360.388 626.827 370.357 628.807C380.326 630.788 390.162 633.23 399.867 636.201C409.571 639.172 419.144 642.539 428.518 646.434C437.893 650.329 447.069 654.686 455.981 659.439C464.96 664.259 473.608 669.474 482.058 675.085C490.509 680.763 498.629 686.771 506.485 693.24C514.341 699.644 521.867 706.444 529.063 713.64C536.193 720.836 542.992 728.295 549.462 736.152C555.932 744.008 561.939 752.128 567.551 760.578C573.228 769.028 578.444 777.742 583.197 786.655C588.016 795.633 592.307 804.81 596.202 814.184C600.097 823.559 603.53 833.065 606.435 842.836C609.406 852.54 611.848 862.377 613.829 872.279C615.809 882.248 617.328 892.283 618.318 902.383C619.308 912.484 619.836 922.585 619.836 932.751Z" fill="#AFACFF"/>
<path d="M2727.93 932.751C2727.93 942.918 2727.47 953.019 2726.48 963.119C2725.49 973.22 2723.97 983.255 2721.99 993.223C2720.01 1003.19 2717.57 1013.03 2714.6 1022.73C2711.69 1032.44 2708.26 1042.01 2704.37 1051.38C2700.47 1060.76 2696.18 1069.87 2691.36 1078.85C2686.61 1087.83 2681.39 1096.47 2675.71 1104.92C2670.1 1113.37 2664.03 1121.49 2657.62 1129.35C2651.16 1137.21 2644.36 1144.73 2637.23 1151.93C2630.03 1159.06 2622.5 1165.86 2614.65 1172.33C2606.79 1178.73 2598.67 1184.81 2590.22 1190.42C2581.77 1196.09 2573.12 1201.31 2564.14 1206.06C2555.17 1210.88 2546.06 1215.17 2536.68 1219.07C2527.31 1222.96 2517.73 1226.4 2508.03 1229.3C2498.33 1232.27 2488.49 1234.71 2478.52 1236.7C2468.55 1238.68 2458.52 1240.19 2448.42 1241.18C2438.32 1242.17 2428.21 1242.64 2418.05 1242.64C2407.88 1242.64 2397.78 1242.17 2387.68 1241.18C2377.58 1240.19 2367.54 1238.68 2357.58 1236.7C2347.67 1234.71 2337.84 1232.27 2328.13 1229.3C2318.36 1226.4 2308.86 1222.96 2299.48 1219.07C2290.11 1215.17 2280.93 1210.88 2271.95 1206.06C2263.04 1201.31 2254.33 1196.09 2245.87 1190.42C2237.42 1184.81 2229.3 1178.73 2221.45 1172.33C2213.59 1165.86 2206.13 1159.06 2198.94 1151.93C2191.74 1144.73 2184.94 1137.21 2178.54 1129.35C2172.07 1121.49 2166.06 1113.37 2160.38 1104.92C2154.77 1096.47 2149.56 1087.83 2144.74 1078.85C2139.98 1069.87 2135.63 1060.76 2131.73 1051.38C2127.84 1042.01 2124.47 1032.44 2121.5 1022.73C2118.53 1013.03 2116.08 1003.19 2114.1 993.223C2112.12 983.255 2110.67 973.22 2109.68 963.119C2108.69 953.019 2108.16 942.918 2108.16 932.751C2108.16 922.585 2108.69 912.484 2109.68 902.383C2110.67 892.283 2112.12 882.248 2114.1 872.279C2116.08 862.377 2118.53 852.54 2121.5 842.836C2124.47 833.065 2127.84 823.559 2131.73 814.184C2135.63 804.81 2139.98 795.633 2144.74 786.655C2149.56 777.742 2154.77 769.028 2160.38 760.578C2166.06 752.128 2172.07 744.008 2178.54 736.152C2184.94 728.295 2191.74 720.836 2198.94 713.64C2206.13 706.444 2213.59 699.644 2221.45 693.24C2229.3 686.771 2237.42 680.763 2245.87 675.085C2254.33 669.474 2263.04 664.259 2271.95 659.439C2280.93 654.686 2290.11 650.329 2299.48 646.434C2308.86 642.539 2318.36 639.172 2328.13 636.201C2337.84 633.23 2347.67 630.788 2357.58 628.807C2367.54 626.827 2377.58 625.374 2387.68 624.384C2397.78 623.394 2407.88 622.866 2418.05 622.866C2428.21 622.866 2438.32 623.394 2448.42 624.384C2458.52 625.374 2468.55 626.827 2478.52 628.807C2488.49 630.788 2498.33 633.23 2508.03 636.201C2517.73 639.172 2527.31 642.539 2536.68 646.434C2546.06 650.329 2555.17 654.686 2564.14 659.439C2573.12 664.259 2581.77 669.474 2590.22 675.085C2598.67 680.763 2606.79 686.771 2614.65 693.24C2622.5 699.644 2630.03 706.444 2637.23 713.64C2644.36 720.836 2651.16 728.295 2657.62 736.152C2664.03 744.008 2670.1 752.128 2675.71 760.578C2681.39 769.028 2686.61 777.742 2691.36 786.655C2696.18 795.633 2700.47 804.81 2704.37 814.184C2708.26 823.559 2711.69 833.065 2714.6 842.836C2717.57 852.54 2720.01 862.377 2721.99 872.279C2723.97 882.248 2725.49 892.283 2726.48 902.383C2727.47 912.484 2727.93 922.585 2727.93 932.751Z" fill="#5627FF"/>
<mask id="mask0_70_370" style="mask-type:luminance" maskUnits="userSpaceOnUse" x="1006" y="0" width="621" height="621">
<path d="M1006.16 0H1626.13V620.035H1006.16V0Z" fill="white"/>
</mask>
<g mask="url(#mask0_70_370)">
<path d="M1625.94 309.952C1625.94 320.052 1625.47 330.219 1624.48 340.32C1623.49 350.42 1621.97 360.455 1619.99 370.357C1618.01 380.326 1615.57 390.163 1612.6 399.867C1609.63 409.572 1606.26 419.144 1602.37 428.519C1598.47 437.893 1594.11 447.07 1589.36 455.982C1584.54 464.96 1579.39 473.675 1573.72 482.125C1568.1 490.509 1562.03 498.695 1555.63 506.551C1549.16 514.341 1542.36 521.867 1535.16 529.063C1528.03 536.259 1520.51 543.059 1512.65 549.463C1504.79 555.932 1496.67 561.94 1488.22 567.617C1479.77 573.229 1471.06 578.444 1462.15 583.198C1453.17 588.017 1443.99 592.374 1434.62 596.203C1425.24 600.098 1415.74 603.531 1406.03 606.502C1396.33 609.406 1386.49 611.915 1376.52 613.896C1366.55 615.876 1356.52 617.328 1346.42 618.319C1336.32 619.309 1326.22 619.837 1316.05 619.837C1305.88 619.837 1295.78 619.309 1285.68 618.319C1275.58 617.328 1265.55 615.876 1255.58 613.896C1245.61 611.915 1235.77 609.406 1226.07 606.502C1216.36 603.531 1206.86 600.098 1197.48 596.203C1188.11 592.374 1178.93 588.017 1169.95 583.198C1161.04 578.444 1152.33 573.229 1143.88 567.617C1135.43 561.94 1127.31 555.932 1119.45 549.463C1111.59 543.059 1104.07 536.259 1096.94 529.063C1089.74 521.867 1082.94 514.341 1076.47 506.551C1070.07 498.695 1064 490.509 1058.38 482.125C1052.71 473.675 1047.56 464.96 1042.74 455.982C1037.99 447.07 1033.63 437.893 1029.73 428.519C1025.84 419.144 1022.47 409.572 1019.5 399.867C1016.53 390.163 1014.09 380.326 1012.11 370.357C1010.13 360.455 1008.61 350.42 1007.62 340.32C1006.63 330.219 1006.16 320.052 1006.16 309.952C1006.16 299.785 1006.63 289.618 1007.62 279.518C1008.61 269.417 1010.13 259.448 1012.11 249.48C1014.09 239.511 1016.53 229.674 1019.5 219.97C1022.47 210.265 1025.84 200.693 1029.73 191.318C1033.63 181.944 1037.99 172.767 1042.74 163.855C1047.56 154.877 1052.71 146.162 1058.38 137.778C1064 129.328 1070.07 121.142 1076.47 113.352C1082.94 105.496 1089.74 97.9698 1096.94 90.7739C1104.07 83.644 1111.59 76.7782 1119.45 70.3745C1127.31 63.9048 1135.43 57.8972 1143.88 52.2197C1152.33 46.6083 1161.04 41.3929 1169.95 36.6396C1178.93 31.8204 1188.11 27.4632 1197.48 23.6342C1206.86 19.7392 1216.36 16.3063 1226.07 13.3355C1235.77 10.4307 1245.61 7.98811 1255.58 6.00758C1265.55 4.02707 1275.58 2.50866 1285.68 1.5184C1295.78 0.528152 1305.88 0 1316.05 0C1326.22 0 1336.32 0.528152 1346.42 1.5184C1356.52 2.50866 1366.55 4.02707 1376.52 6.00758C1386.49 7.98811 1396.33 10.4307 1406.03 13.3355C1415.74 16.3063 1425.24 19.7392 1434.62 23.6342C1443.99 27.4632 1453.17 31.8204 1462.15 36.6396C1471.06 41.3929 1479.77 46.6083 1488.22 52.2197C1496.67 57.8972 1504.79 63.9048 1512.65 70.3745C1520.51 76.7782 1528.03 83.644 1535.16 90.7739C1542.36 97.9698 1549.16 105.496 1555.63 113.352C1562.03 121.142 1568.1 129.328 1573.72 137.778C1579.39 146.162 1584.54 154.877 1589.36 163.855C1594.11 172.767 1598.47 181.944 1602.37 191.318C1606.26 200.693 1609.63 210.265 1612.6 219.97C1615.57 229.674 1618.01 239.511 1619.99 249.48C1621.97 259.448 1623.49 269.417 1624.48 279.518C1625.47 289.618 1625.94 299.785 1625.94 309.952Z" fill="#AFACFF"/>
</g>
</svg>
